<?xml version="1.0" encoding="UTF-8" standalone="no"?>
<!-- Created with Inkscape (http://www.inkscape.org/) -->

<svg
   xmlns:dc="http://purl.org/dc/elements/1.1/"
   xmlns:cc="http://creativecommons.org/ns#"
   xmlns:rdf="http://www.w3.org/1999/02/22-rdf-syntax-ns#"
   xmlns:svg="http://www.w3.org/2000/svg"
   xmlns="http://www.w3.org/2000/svg"
   xmlns:sodipodi="http://sodipodi.sourceforge.net/DTD/sodipodi-0.dtd"
   xmlns:inkscape="http://www.inkscape.org/namespaces/inkscape"
   width="210mm"
   height="297mm"
   viewBox="0 0 210 297"
   version="1.1"
   id="svg1067"
   inkscape:version="0.92.3 (2405546, 2018-03-11)"
   sodipodi:docname="current.svg"
   inkscape:export-filename="/home/flo/Teaching/TopicsInPhysics/book/week2/current.png"
   inkscape:export-xdpi="300"
   inkscape:export-ydpi="300">
  <defs
     id="defs1061" />
  <sodipodi:namedview
     id="base"
     pagecolor="#ffffff"
     bordercolor="#666666"
     borderopacity="1.0"
     inkscape:pageopacity="0.0"
     inkscape:pageshadow="2"
     inkscape:zoom="2.8"
     inkscape:cx="376.65708"
     inkscape:cy="845.71429"
     inkscape:document-units="mm"
     inkscape:current-layer="layer1"
     showgrid="false"
     inkscape:window-width="2426"
     inkscape:window-height="1329"
     inkscape:window-x="134"
     inkscape:window-y="55"
     inkscape:window-maximized="1" />
  <metadata
     id="metadata1064">
    <rdf:RDF>
      <cc:Work
         rdf:about="">
        <dc:format>image/svg+xml</dc:format>
        <dc:type
           rdf:resource="http://purl.org/dc/dcmitype/StillImage" />
        <dc:title></dc:title>
      </cc:Work>
    </rdf:RDF>
  </metadata>
  <g
     inkscape:label="Layer 1"
     inkscape:groupmode="layer"
     id="layer1">
    <path
       style="fill:#808080;fill-opacity:1;stroke:none;stroke-width:1;stroke-miterlimit:4;stroke-dasharray:none;stroke-dashoffset:0;stroke-opacity:1"
       id="path1612"
       d="m 69.586448,34.43402 c -0.112461,0.450318 -0.166079,0.911818 -0.201674,1.373677 -0.06631,0.473242 -0.116893,0.947208 -0.141036,1.424469 -0.0222,0.564147 -0.02236,1.128848 -0.02341,1.693336 -0.0036,0.560777 -0.01,1.120106 0.03828,1.679083 0.04901,0.472633 0.07407,0.946952 0.08779,1.421754 0.0095,0.413624 0.0095,0.827379 0.0097,1.241084 0.03469,0.354486 0.08147,0.707358 0.108286,1.062681 0.02188,0.318957 0.02334,0.638796 0.02495,0.958352 0.0021,0.344734 0.06638,0.685528 0.09621,1.028832 0.02763,0.348549 0.03353,0.698215 0.03665,1.047674 0.0019,0.335618 0.0011,0.671245 7.94e-4,1.006866 0.01752,0.397923 -0.04599,0.791581 -0.08155,1.186725 -0.03899,0.451363 -0.04569,0.904595 -0.05088,1.357342 -0.0036,0.476787 -0.0028,0.953593 -0.0024,1.430388 5.29e-4,0.535813 5.29e-4,1.071626 5.29e-4,1.607439 7.9e-5,0.58679 7.7e-5,1.17358 7.9e-5,1.760373 -0.01963,0.542266 0.01479,1.08096 0.06005,1.620774 0.04242,0.579175 0.0569,1.158888 0.106728,1.73755 0.05801,0.633577 0.07974,1.269397 0.09268,1.905217 0.01,0.66616 0.0089,1.332421 0.0089,1.998639 -2.65e-4,0.707353 -7.94e-4,1.414709 -7.94e-4,2.122064 -1.67e-4,0.675137 -1.8e-4,1.350272 -1.93e-4,2.025409 -5e-6,0.655185 0,1.31037 2e-6,1.965556 0,0.6346 3e-6,1.2692 3e-6,1.903801 -0.0019,0.634325 0.06274,1.266642 0.09665,1.899774 0.0226,0.614604 0.04933,1.230252 0.02061,1.844919 -0.04834,0.608155 -0.08316,1.217017 -0.101727,1.826781 -0.01466,0.582269 -0.01561,1.164757 -0.01638,1.747173 -1.96e-4,0.566574 2.64e-4,1.133147 5.29e-4,1.699723 2.19e-4,0.499412 2.64e-4,0.998824 2.64e-4,1.498235 1.6e-5,0.473578 1.1e-5,0.947158 8e-6,1.420739 0,0.452273 -2e-6,0.904547 -2e-6,1.356817 0,0.37138 0,0.742762 0,1.114142 0,0.315116 0,0.630232 0,0.945349 0,0.274618 0,0.54924 0,0.823862 0,0.319439 0,0.638879 0,0.958318 0,0.354674 0,0.70935 0,1.064024 0,0.349343 0,0.698683 0,1.048026 0,0.297357 0,0.594714 0,0.892071 0,0.169479 0,0.338958 0,0.508437 0,0.134842 0,0.269684 0,0.404524 -0.0021,0.159586 0.03677,0.111196 -0.222383,-0.03739 0.07214,-0.172619 0.316265,-0.07059 0.244121,0.102026 v 0 c -0.315862,0.02811 -0.285803,0.108215 -0.286322,-0.06463 0,-0.13484 0,-0.269682 0,-0.404524 0,-0.169479 0,-0.338958 0,-0.508437 0,-0.297357 0,-0.594714 0,-0.892071 0,-0.349343 0,-0.698683 0,-1.048026 0,-0.354674 0,-0.70935 0,-1.064024 0,-0.319439 0,-0.638879 0,-0.958318 0,-0.274622 0,-0.549244 0,-0.823862 0,-0.315117 0,-0.630233 0,-0.945349 0,-0.37138 0,-0.742762 0,-1.114142 0,-0.452273 3e-6,-0.904544 3e-6,-1.356817 3e-6,-0.473575 8e-6,-0.94715 -8e-6,-1.420726 -2.9e-5,-0.499374 -7.4e-5,-0.998751 -2.64e-4,-1.498126 -2.6e-4,-0.566732 -7.94e-4,-1.133462 -5.3e-4,-1.700194 7.94e-4,-0.584988 0.0019,-1.170048 0.01651,-1.754889 0.01865,-0.611245 0.05328,-1.221615 0.101905,-1.831242 0.02912,-0.605723 7.93e-4,-1.212556 -0.02053,-1.818243 -0.03414,-0.637844 -0.09923,-1.27486 -0.09703,-1.913924 0,-0.634601 -2e-6,-1.269201 -2e-6,-1.903799 -3e-6,-0.655188 -8e-6,-1.310375 -3e-6,-1.96556 1.3e-5,-0.675161 2.7e-5,-1.350322 1.93e-4,-2.025484 2.04e-4,-0.707331 5.29e-4,-1.414663 7.94e-4,-2.121998 2.4e-5,-0.664419 0.0011,-1.328885 -0.0088,-1.993249 -0.01281,-0.630044 -0.03426,-1.260088 -0.09176,-1.887905 -0.04981,-0.578866 -0.06474,-1.158745 -0.106778,-1.738138 -0.04587,-0.547142 -0.08048,-1.093274 -0.06097,-1.642877 -3e-6,-0.586774 0,-1.173551 -8e-5,-1.760326 -9.5e-5,-0.535776 -2.38e-4,-1.071552 -5.29e-4,-1.607325 -2.64e-4,-0.477864 -0.0011,-0.955736 0.0024,-1.433592 0.0053,-0.459655 0.01225,-0.919795 0.05194,-1.378035 0.03493,-0.387365 0.09775,-0.773152 0.08048,-1.163224 2.65e-4,-0.334759 0.0011,-0.66952 -7.93e-4,-1.004274 -0.003,-0.342622 -0.0087,-0.685448 -0.03567,-1.027189 -0.03028,-0.350446 -0.09639,-0.698267 -0.09719,-1.050338 -0.0016,-0.313367 -0.0029,-0.62702 -0.02421,-0.93981 -0.02722,-0.361919 -0.07679,-0.72113 -0.109032,-1.08248 -1.22e-4,-0.411188 -1.69e-4,-0.822425 -0.0096,-1.233529 -0.01355,-0.469776 -0.03837,-0.939067 -0.08692,-1.406692 -0.04869,-0.566714 -0.04328,-1.133745 -0.03925,-1.702268 0.0011,-0.568799 0.0013,-1.137809 0.02376,-1.706256 0.02439,-0.479555 0.07414,-0.955995 0.141483,-1.431446 0.03693,-0.476605 0.09258,-0.952791 0.208788,-1.417463 0.04538,-0.181501 0.302059,-0.117332 0.256683,0.06417 z"
       inkscape:connector-curvature="0" />
    <path
       style="fill:#808080;fill-opacity:1;stroke:none;stroke-width:1;stroke-miterlimit:4;stroke-dasharray:none;stroke-dashoffset:0;stroke-opacity:1"
       id="path1614"
       d="m 36.669334,62.149333 c 0.466698,0.223248 0.962297,0.371724 1.466778,0.479946 0.468612,0.09155 0.946214,0.104431 1.421998,0.112117 0.518671,-0.0013 1.038654,-0.05131 1.553737,-0.111842 0.597212,-0.06481 1.190323,-0.159557 1.787842,-0.221646 0.590111,-0.0944 1.186979,-0.127527 1.780114,-0.193503 0.576088,-0.07912 1.156505,-0.110956 1.737194,-0.129482 0.653904,-0.02241 1.308404,-0.06758 1.960104,-0.127148 0.831475,-0.06949 1.655929,-0.200642 2.484631,-0.295148 0.868474,-0.123704 1.742321,-0.193109 2.618253,-0.231815 0.737815,-0.02776 1.476251,-0.02901 2.214478,-0.02986 0.72753,2.03e-4 1.45506,0.0013 2.182593,0.0019 0.866859,5.29e-4 1.733722,5.29e-4 2.600584,5.29e-4 0.860541,-0.01934 1.71877,0.01217 2.577613,0.06074 0.735089,0.04513 1.471443,0.06026 2.207713,0.06849 0.857371,-0.01146 1.712838,0.04913 2.568916,0.08589 0.913445,0.01736 1.825061,0.06087 2.737151,0.111222 0.889257,0.03003 1.777008,0.07716 2.665058,0.131628 0.866032,0.05282 1.733738,0.06506 2.601114,0.0731 0.956379,0.006 1.912784,0.0048 2.869176,0.0044 0.952045,0.03314 1.903259,0.08272 2.855584,0.108601 0.908566,0.02149 1.817436,0.02305 2.726206,0.02461 0.967658,0.04627 1.936623,0.07019 2.903786,0.125478 1.005314,0.06747 2.012119,0.09901 3.01748,0.165116 0.917525,0.04412 1.833719,0.103286 2.75031,0.163211 0.837335,0.05393 1.676381,0.0685 2.515176,0.07703 0.826252,0.0057 1.650746,0.06964 2.476344,0.10115 0.802251,0.02742 1.605021,0.03246 2.407663,0.03552 0.6959,-0.02096 1.38912,0.03918 2.08293,0.08141 0.6255,0.03722 1.25218,0.04539 1.87861,0.05061 0.54523,0.0034 1.09047,0.0028 1.63571,0.0024 0.4997,-2.64e-4 0.99941,-5.29e-4 1.49911,-5.29e-4 0.30473,-5.8e-5 0.60945,-7.4e-5 0.91418,-7.7e-5 0.0503,0 0.10061,0 0.15091,6e-6 2.7e-4,0 8e-4,0 0.001,0 -0.0206,0.08819 -0.0412,0.17639 -0.0617,0.264586 -0.18709,5e-6 -0.1871,-0.264578 -1e-5,-0.264584 v 0 c 0.0205,0.08819 0.0411,0.176388 0.0616,0.264581 -2.6e-4,0 -5.2e-4,0 -0.001,0 -0.0503,-5e-6 -0.10058,-5e-6 -0.15086,-5e-6 -0.30471,2e-6 -0.60942,1.8e-5 -0.91412,7.7e-5 -0.49968,1.11e-4 -0.99935,2.64e-4 -1.49903,5.29e-4 -0.54602,2.64e-4 -1.09205,7.93e-4 -1.63806,-0.0024 -0.63106,-0.0053 -1.26236,-0.01357 -1.89248,-0.05109 -0.68879,-0.04193 -1.37698,-0.10193 -2.06786,-0.08093 -0.805672,-0.0031 -1.611471,-0.0081 -2.416749,-0.03571 -0.823135,-0.03144 -1.645169,-0.09512 -2.468941,-0.100971 -0.843658,-0.0086 -1.687563,-0.02331 -2.529747,-0.07758 -0.916625,-0.05994 -1.832851,-0.119086 -2.75041,-0.163216 -1.004612,-0.06606 -2.010677,-0.09751 -3.015242,-0.164978 -0.962268,-0.05518 -1.926362,-0.07852 -2.889115,-0.125047 -0.911016,-0.0016 -1.822133,-0.0031 -2.732945,-0.02471 -0.949899,-0.02582 -1.898705,-0.07499 -2.848311,-0.108503 -0.957236,2.65e-4 -1.914488,0.0016 -2.871711,-0.0045 -0.87196,-0.0081 -1.744252,-0.02045 -2.614861,-0.07358 -0.88751,-0.05444 -1.774721,-0.101508 -2.663441,-0.131533 -0.911016,-0.05029 -1.821548,-0.09374 -2.733918,-0.111064 -0.853284,-0.03665 -1.705952,-0.09713 -2.560524,-0.08566 -0.740267,-0.0083 -1.480616,-0.02355 -2.219695,-0.0689 -0.85388,-0.04829 -1.707111,-0.07968 -2.562686,-0.06031 -0.866915,-4.5e-5 -1.733833,-8.2e-5 -2.600748,-5.29e-4 -0.727371,-5.29e-4 -1.45474,-0.0016 -2.182111,-0.0019 -0.734439,7.93e-4 -1.469084,0.0021 -2.203114,0.0296 -0.869829,0.03836 -1.737548,0.10746 -2.599955,0.230373 -0.83068,0.09465 -1.657083,0.226282 -2.49056,0.295756 -0.656921,0.05981 -1.316588,0.105614 -1.975718,0.128106 -0.573765,0.01826 -1.147252,0.04968 -1.716452,0.128003 -0.593805,0.06567 -1.191186,0.09955 -1.781958,0.193704 -0.596371,0.06185 -1.1883,0.15676 -1.784377,0.221263 -0.526767,0.06153 -1.058378,0.112993 -1.588812,0.113604 -0.493038,-0.008 -0.987886,-0.0223 -1.473332,-0.117996 -0.526082,-0.113385 -1.042977,-0.268475 -1.529483,-0.501965 -0.167335,-0.08367 -0.04901,-0.320318 0.118327,-0.236651 z"
       inkscape:connector-curvature="0" />
    <path
       style="fill:#808080;fill-opacity:1;stroke:none;stroke-width:1;stroke-miterlimit:4;stroke-dasharray:none;stroke-dashoffset:0;stroke-opacity:1"
       id="path1616"
       d="m 107.23355,61.058771 c 0.28905,0.484335 0.67004,0.891701 1.10202,1.249286 0.27352,0.23033 0.58119,0.414131 0.88,0.608896 0.061,0.03832 0.10893,0.08607 0.17939,0.09352 0.0349,0.07149 0.0873,0.13685 0.10463,0.214487 0.0252,0.113025 -0.32088,0.456634 -0.39097,0.525925 -0.30383,0.307568 -0.67733,0.521447 -1.04139,0.746983 -0.27458,0.170928 -0.58658,0.256421 -0.88056,0.383876 -0.0702,0.03224 -0.14088,0.06426 -0.20765,0.103349 -0.0974,-0.206614 -0.15386,-0.189286 -0.0525,-0.301292 0.0322,-0.0349 0.0204,-0.01659 0.038,-0.05324 0.0968,-0.160091 0.32321,-0.02318 0.2264,0.136917 v 0 c -0.0512,0.07867 -0.0258,0.04797 -0.0706,0.09645 -0.12741,0.13521 -0.0962,0.102941 -0.30112,-0.089 -10e-4,-0.0011 0.0212,-0.01511 0.0223,-0.0159 0.0767,-0.04622 0.15901,-0.08239 0.24004,-0.120103 0.28239,-0.122023 0.58148,-0.204485 0.84632,-0.365982 0.34748,-0.21522 0.70512,-0.417452 0.99535,-0.710853 0.0963,-0.09378 0.17738,-0.189871 0.26218,-0.293503 0.0102,-0.01249 0.0234,-0.02267 0.0322,-0.03622 0.009,-0.0136 0.004,-0.04867 0.02,-0.04426 0.0479,0.01355 0.0819,0.05646 0.12289,0.0847 -0.11122,-0.0159 -0.19981,-0.06803 -0.28938,-0.134186 -0.30728,-0.200279 -0.62334,-0.389721 -0.90439,-0.626859 -0.45322,-0.376201 -0.85361,-0.804339 -1.15753,-1.312752 -0.0992,-0.158649 0.12521,-0.298878 0.22437,-0.140229 z"
       inkscape:connector-curvature="0" />
    <path
       style="fill:#808080;fill-opacity:1;stroke:none;stroke-width:1;stroke-miterlimit:4;stroke-dasharray:none;stroke-dashoffset:0;stroke-opacity:1"
       id="path1618"
       d="m 69.137802,33.941866 c 0.236884,0.472205 0.517329,0.916268 0.836811,1.336225 0.268459,0.408702 0.638471,0.723654 0.989441,1.056079 0.140806,0.124614 0.284638,0.246912 0.439626,0.353743 0.007,0.0045 0.01461,0.0098 0.02212,0.01389 0.01175,0.0064 -0.02397,-0.01582 -0.0373,-0.01476 -0.03147,0.0024 -0.0602,0.02593 -0.09168,0.02368 -0.01011,-7.94e-4 0.0039,-0.01987 0.0058,-0.02982 0.06374,-0.175898 0.312492,-0.08576 0.248756,0.09014 v 0 c -0.05353,0.128633 -0.171656,0.235702 -0.298127,0.134562 -0.165976,-0.114861 -0.320749,-0.245226 -0.471279,-0.379423 -0.361008,-0.342566 -0.741198,-0.667671 -1.018048,-1.08798 -0.329094,-0.433276 -0.618701,-0.89104 -0.862822,-1.378011 -0.08367,-0.167338 0.152982,-0.285662 0.236649,-0.118326 z"
       inkscape:connector-curvature="0" />
    <path
       style="fill:#808080;fill-opacity:1;stroke:none;stroke-width:1;stroke-miterlimit:4;stroke-dasharray:none;stroke-dashoffset:0;stroke-opacity:1"
       id="path1620"
       d="m 66.285207,36.89093 c 0.358489,-0.355531 0.744945,-0.68163 1.118365,-1.021315 0.291914,-0.307081 0.635201,-0.549127 0.976198,-0.796515 0.199938,-0.154715 0.422273,-0.275817 0.633394,-0.414062 0.08387,-0.06197 0.183328,-0.09593 0.28498,-0.114395 0.02265,-0.0042 0.04543,-0.005 0.06833,-0.0039 0.186471,0.01519 0.164984,0.278905 -0.02148,0.26371 v 0 c -2.64e-4,2.6e-4 -5.29e-4,7.94e-4 -0.0011,7.94e-4 -0.06703,0.01106 -0.131813,0.03283 -0.18587,0.07517 -0.207621,0.135903 -0.426188,0.255016 -0.622956,0.406866 -0.333182,0.241686 -0.668893,0.477303 -0.953527,0.778076 -0.370347,0.336864 -0.753594,0.660294 -1.10931,1.012676 -0.132292,0.132292 -0.319381,-0.05479 -0.18709,-0.187086 z"
       inkscape:connector-curvature="0" />
    <path
       style="fill:#000000;fill-opacity:1;stroke:none;stroke-width:1;stroke-miterlimit:4;stroke-dasharray:none;stroke-dashoffset:0;stroke-opacity:1"
       id="path1622"
       d="m 65.997436,29.621675 c -0.05653,0.544926 -0.08279,1.092335 -0.101886,1.639655 -0.01191,0.364855 -0.01492,0.729901 -0.01585,1.094923 -2.3e-4,0.159639 1.99e-4,0.319278 5.3e-4,0.478917 -0.0016,0.165666 0.03794,0.10886 -0.246039,-0.01725 0.0345,-0.183878 0.294547,-0.135083 0.260043,0.04879 v 0 c -0.311819,0.06876 -0.277056,0.141618 -0.278585,-0.03087 -5.29e-4,-0.160078 -7.94e-4,-0.320159 -5.29e-4,-0.48024 7.93e-4,-0.367879 0.004,-0.735782 0.01601,-1.103495 0.01934,-0.553992 0.04602,-1.108077 0.103341,-1.659638 0.02066,-0.185944 0.283628,-0.156726 0.262967,0.02922 z"
       inkscape:connector-curvature="0" />
    <path
       style="fill:#000000;fill-opacity:1;stroke:none;stroke-width:1;stroke-miterlimit:4;stroke-dasharray:none;stroke-dashoffset:0;stroke-opacity:1"
       id="path1624"
       d="m 64.049981,32.840535 c 0.581646,0.11788 1.180314,0.106749 1.769541,0.06748 0.335476,-0.02676 0.670401,-0.05994 1.005467,-0.09136 0.08117,-0.0063 0.162504,-0.01127 0.24393,-0.01214 -0.04693,0.04622 -0.09386,0.09244 -0.140785,0.138668 -0.07663,-0.170672 0.164732,-0.279051 0.241369,-0.108378 v 0 c -0.03262,0.07809 -0.06523,0.156186 -0.09785,0.23428 -0.07408,0.0013 -0.148103,0.005 -0.221959,0.01101 -0.337452,0.03165 -0.674764,0.06508 -1.012642,0.09194 -0.614334,0.04065 -1.238237,0.05072 -1.844466,-0.0732 -0.182634,-0.04059 -0.125238,-0.298868 0.0574,-0.258281 z"
       inkscape:connector-curvature="0" />
    <path
       style="fill:#000000;fill-opacity:1;stroke:none;stroke-width:1;stroke-miterlimit:4;stroke-dasharray:none;stroke-dashoffset:0;stroke-opacity:1"
       id="path1626"
       d="m 64.332497,29.34744 c 0.729761,0.05988 1.461855,0.08307 2.193613,0.102116 0.396902,0.0094 0.79389,0.01458 1.190898,0.01587 0.05808,1.01e-4 0.116154,2.36e-4 0.174225,-5.29e-4 0.187008,-0.0055 0.194829,0.258937 0.0078,0.264467 v 0 c -0.06096,0.0013 -0.121952,5.29e-4 -0.182922,5.29e-4 -0.399011,-0.0013 -0.798005,-0.0065 -1.196909,-0.01595 -0.737458,-0.01921 -1.475251,-0.04265 -2.210681,-0.103114 -0.186323,-0.01693 -0.162367,-0.280434 0.02394,-0.263496 z"
       inkscape:connector-curvature="0" />
    <path
       style="fill:#000000;fill-opacity:1;stroke:none;stroke-width:1;stroke-miterlimit:4;stroke-dasharray:none;stroke-dashoffset:0;stroke-opacity:1"
       id="path1628"
       d="m 110.6316,64.113986 c -0.035,0.62303 0.0408,1.242385 0.12479,1.858238 0.0859,0.563292 0.16004,1.129686 0.25919,1.69087 0.0798,0.29765 0.0847,0.613558 0.16541,0.910084 0.0256,0.07991 0.0569,0.158353 0.10088,0.229939 -0.0168,-0.04983 -0.10914,-0.01487 -0.15049,-0.04736 -0.0151,-0.01185 0.0289,-0.02551 0.0415,-0.03994 0.0445,-0.0509 0.0844,-0.116777 0.12077,-0.171628 0.31441,-0.449707 0.61243,-0.910494 0.91788,-1.36631 0.30631,-0.473835 0.62747,-0.93684 0.92445,-1.416593 0.15013,-0.272571 0.30277,-0.544232 0.4395,-0.823851 0.0721,-0.165783 0.16343,-0.322461 0.26087,-0.474459 0.0168,-0.02659 0.0349,-0.0522 0.0544,-0.07681 0.12158,-0.142198 0.32267,0.02974 0.20109,0.171942 v 0 c -0.0112,0.01574 -0.0223,0.03151 -0.0328,0.04774 -0.0921,0.14342 -0.17832,0.291338 -0.24598,0.448022 -0.14103,0.287192 -0.29695,0.566949 -0.45212,0.846677 -0.29866,0.482465 -0.6215,0.948171 -0.92962,1.424622 -0.30538,0.455695 -0.60332,0.916366 -0.91764,1.365954 -0.0687,0.102201 -0.2815,0.462852 -0.45393,0.255765 -0.0603,-0.09465 -0.10094,-0.200329 -0.13478,-0.306898 -0.0772,-0.30539 -0.0941,-0.62465 -0.16997,-0.930992 -0.0992,-0.564682 -0.1747,-1.134253 -0.26078,-1.701014 -0.0868,-0.636379 -0.16391,-1.276604 -0.1259,-1.92032 0.0186,-0.186161 0.28188,-0.159832 0.26327,0.02633 z"
       inkscape:connector-curvature="0" />
    <path
       style="fill:#000000;fill-opacity:1;stroke:none;stroke-width:1;stroke-miterlimit:4;stroke-dasharray:none;stroke-dashoffset:0;stroke-opacity:1"
       id="path1630"
       d="m 56.905725,81.384872 c 0.283732,-0.195435 0.556353,-0.408781 0.826688,-0.622604 0.279072,-0.215509 0.551593,-0.440259 0.813591,-0.676212 0.284615,-0.248155 0.573681,-0.490797 0.859793,-0.737275 0.336775,-0.262519 0.651206,-0.551537 0.977064,-0.826965 0.251428,-0.204653 0.495684,-0.417598 0.732629,-0.638794 0.239701,-0.232659 0.497707,-0.445419 0.75951,-0.652503 0.241562,-0.186444 0.466881,-0.392001 0.687599,-0.602294 0.255736,-0.234707 0.514858,-0.465765 0.772065,-0.698956 0.250703,-0.215489 0.515937,-0.413538 0.782947,-0.608226 0.267509,-0.195308 0.544835,-0.374518 0.798306,-0.588188 0.29405,-0.234328 0.581411,-0.476305 0.889677,-0.692065 0.330422,-0.251989 0.660593,-0.504386 0.98374,-0.765683 0.349517,-0.279688 0.683151,-0.575746 1.009959,-0.881266 0.335865,-0.311732 0.664708,-0.630857 0.991561,-0.951982 0.281024,-0.268618 0.557855,-0.541618 0.845719,-0.803028 0.353094,-0.329057 0.719079,-0.6437 1.07605,-0.968505 0.324421,-0.318529 0.671356,-0.613164 1.000022,-0.926865 0.247179,-0.248298 0.477991,-0.51118 0.723984,-0.760822 0.305618,-0.318664 0.640668,-0.60652 0.965859,-0.904605 0.356002,-0.340675 0.696442,-0.696664 1.051216,-1.038916 0.357915,-0.340709 0.726117,-0.671377 1.09969,-0.994913 0.340212,-0.314348 0.690724,-0.617164 1.04031,-0.92094 0.343244,-0.302419 0.70231,-0.586494 1.066538,-0.863095 0.35383,-0.262387 0.710811,-0.521499 1.057132,-0.793916 0.397442,-0.297461 0.788506,-0.602999 1.176576,-0.912583 0.376396,-0.291859 0.725572,-0.613899 1.065459,-0.946877 0.312023,-0.305195 0.614391,-0.619811 0.909669,-0.94115 0.245898,-0.27886 0.50809,-0.542395 0.763937,-0.812077 0.285318,-0.292251 0.560361,-0.593993 0.847714,-0.884219 0.28412,-0.290058 0.597075,-0.549873 0.887577,-0.833147 0.248957,-0.256013 0.49332,-0.516419 0.74177,-0.77294 0.225086,-0.228584 0.452281,-0.454107 0.661921,-0.697042 0.229036,-0.274455 0.467794,-0.538975 0.718047,-0.794208 0.258538,-0.259935 0.520002,-0.516932 0.7805,-0.774896 0.203533,-0.197308 0.403378,-0.397007 0.588147,-0.612016 0.237901,-0.263601 0.510752,-0.490336 0.779603,-0.720825 0.280911,-0.231455 0.535366,-0.490617 0.79143,-0.7483 0.290076,-0.295193 0.577027,-0.593204 0.885161,-0.869897 0.27133,-0.226613 0.512654,-0.485886 0.75787,-0.739746 0.278524,-0.307128 0.60697,-0.56234 0.931476,-0.818467 0.319828,-0.248677 0.628711,-0.51072 0.927338,-0.784379 0.21985,-0.217522 0.426736,-0.446434 0.650076,-0.660982 0.207465,-0.235463 0.426662,-0.457525 0.65722,-0.670261 0.276264,-0.251428 0.556974,-0.498009 0.835482,-0.747077 0.291182,-0.251796 0.582756,-0.503561 0.868828,-0.76127 0.261448,-0.233876 0.51266,-0.478555 0.771139,-0.71555 0.256,-0.225631 0.506627,-0.457173 0.753488,-0.692732 0.180158,-0.172722 0.357151,-0.348692 0.533792,-0.524991 0.16219,-0.158756 0.310904,-0.329407 0.473414,-0.487918 0.06082,-0.05252 0.112741,-0.116026 0.145232,-0.189932 0.0013,-0.0057 -0.0019,0.01146 -0.0028,0.0172 0.01109,-0.186761 0.275211,-0.171069 0.264117,0.01569 v 0 c -0.0033,0.02689 -0.0089,0.05275 -0.02082,0.07737 -0.0479,0.102436 -0.115657,0.194506 -0.201027,0.269095 -0.161817,0.157734 -0.309534,0.327943 -0.471223,0.485753 -0.178046,0.1777 -0.356452,0.355058 -0.538046,0.529146 -0.248169,0.236784 -0.500057,0.469601 -0.757415,0.696399 -0.259226,0.237268 -0.510686,0.482799 -0.77279,0.717053 -0.28634,0.257879 -0.578117,0.509894 -0.869532,0.761899 -0.277492,0.248153 -0.557231,0.493768 -0.832442,0.744318 -0.229317,0.211548 -0.446384,0.433022 -0.653347,0.666612 -0.224866,0.215967 -0.432572,0.446919 -0.654621,0.66525 -0.303469,0.277995 -0.617228,0.544338 -0.942187,0.797007 -0.315277,0.248687 -0.634754,0.496031 -0.905068,0.794576 -0.249597,0.2584 -0.495461,0.522052 -0.771493,0.752877 -0.30466,0.273008 -0.587372,0.568166 -0.874186,0.859472 -0.261091,0.262594 -0.520602,0.526648 -0.806876,0.762646 -0.258691,0.221771 -0.521568,0.43946 -0.751173,0.692438 -0.189466,0.220303 -0.393885,0.425419 -0.60261,0.627531 -0.259577,0.257054 -0.520115,0.513152 -0.777761,0.772147 -0.246375,0.251206 -0.481293,0.511614 -0.706676,0.781846 -0.213021,0.246698 -0.443312,0.47624 -0.672147,0.708226 -0.250248,0.258374 -0.496274,0.520769 -0.747244,0.778431 -0.289753,0.281765 -0.60061,0.541401 -0.884156,0.829752 -0.286065,0.288843 -0.559718,0.589301 -0.843769,0.88015 -0.254897,0.268681 -0.516163,0.531164 -0.761095,0.809035 -0.298517,0.32463 -0.603914,0.642747 -0.919308,0.9511 -0.346327,0.33922 -0.702281,0.667173 -1.085615,0.964705 -0.388567,0.309946 -0.780066,0.615945 -1.178031,0.913736 -0.347599,0.273209 -0.705622,0.533413 -1.06068,0.796658 -0.359659,0.272997 -0.714113,0.553529 -1.052997,0.85209 -0.349739,0.303832 -0.700259,0.606862 -1.040653,0.92124 -0.370068,0.320328 -0.734637,0.647951 -1.089182,0.985308 -0.356399,0.343808 -0.698227,0.701583 -1.056134,1.043538 -0.3219,0.29505 -0.65364,0.579879 -0.956186,0.895276 -0.247946,0.251579 -0.480234,0.516861 -0.729879,0.766619 -0.330552,0.314725 -0.678297,0.611426 -1.00452,0.931056 -0.357053,0.324847 -0.723072,0.63958 -1.076246,0.968682 -0.285318,0.259056 -0.559657,0.529645 -0.838157,0.795888 -0.328417,0.322654 -0.658837,0.643297 -0.996302,0.956524 -0.331446,0.309838 -0.66993,0.609986 -1.024297,0.893736 -0.327962,0.265118 -0.662895,0.521417 -0.998482,0.776774 -0.302012,0.21091 -0.582756,0.448599 -0.8709,0.677646 -0.258503,0.217286 -0.539793,0.40142 -0.812853,0.599588 -0.259501,0.189032 -0.517102,0.381553 -0.761071,0.590426 -0.255601,0.231716 -0.513168,0.461256 -0.767276,0.694502 -0.226621,0.215858 -0.458039,0.426767 -0.705961,0.618244 -0.256159,0.202599 -0.508712,0.410633 -0.743112,0.638405 -0.24017,0.224134 -0.487598,0.440076 -0.74241,0.64748 -0.325329,0.274738 -0.638879,0.563502 -0.975133,0.825318 -0.284691,0.245242 -0.572304,0.486698 -0.855556,0.733546 -0.266528,0.239372 -0.542793,0.46839 -0.82654,0.687129 -0.278273,0.219416 -0.557914,0.439483 -0.850432,0.639323 -0.158649,0.09915 -0.298878,-0.125211 -0.140229,-0.224367 z"
       inkscape:connector-curvature="0" />
    <path
       style="fill:#000000;fill-opacity:1;stroke:none;stroke-width:1;stroke-miterlimit:4;stroke-dasharray:none;stroke-dashoffset:0;stroke-opacity:1"
       id="path1632"
       d="m 79.842936,60.523778 c -0.08346,0.212151 -0.160118,0.426609 -0.212868,0.648547 -0.01249,0.130209 -0.05963,0.252153 -0.09115,0.378081 -0.02133,0.109765 -0.03062,0.218533 -0.0641,0.325832 -0.03696,0.101804 -0.04405,0.209931 -0.07453,0.312997 -0.03696,0.06935 -0.05996,0.141928 -0.07441,0.218646 -0.0081,0.03765 -0.008,0.07615 -0.0083,0.114456 1.24e-4,0.07919 5.29e-4,0.158377 5.29e-4,0.237564 1.64e-4,0.09599 1.85e-4,0.191982 2.01e-4,0.28797 1.1e-5,0.09482 6e-6,0.189648 6e-6,0.284472 -3e-6,0.07261 -3e-6,0.145214 -3e-6,0.217821 -3e-6,0.02572 -3e-6,0.05142 -3e-6,0.07713 0,0.02053 0,0.04107 0,0.0616 -0.003,0.04979 0.0497,-0.110971 -0.04579,0.113789 -0.02085,0.03599 -0.03804,0.07388 -0.05328,0.112528 0.0028,-0.01283 0.0035,-0.0093 0.0037,0.02548 0.0045,0.06595 -0.04313,0.117348 -0.06769,0.173879 -0.01132,0.02717 -0.02154,0.0548 -0.03016,0.08295 -5.29e-4,-0.06075 -0.227838,-0.0583 -0.209529,-0.166756 0.06163,-0.176649 0.311444,-0.0895 0.24982,0.08715 v 0 c -0.03782,0.09372 -0.26297,0.502068 -0.293894,0.0042 0.01217,-0.03917 0.02598,-0.07782 0.04223,-0.115504 0.01542,-0.03389 0.07172,-0.17132 0.04499,-0.04243 -0.0016,0.0071 0.0016,-0.03328 -2.64e-4,-0.02172 -2.54e-4,-0.04072 -0.0019,-0.08321 0.01371,-0.121651 0.02238,-0.05819 0.04948,-0.11462 0.08222,-0.167727 -0.0011,0.07347 -5.3e-4,0.05152 -5.3e-4,0.03584 0,-0.02053 0,-0.04107 0,-0.0616 0,-0.02572 0,-0.05142 3e-6,-0.07713 0,-0.07261 0,-0.145217 3e-6,-0.217826 0,-0.09481 5e-6,-0.189614 -6e-6,-0.284422 -1.5e-5,-0.09584 -3.7e-5,-0.191683 -2.01e-4,-0.287525 -1.48e-4,-0.08017 -5.29e-4,-0.16034 -5.29e-4,-0.240509 5.29e-4,-0.05411 0.0019,-0.108418 0.01302,-0.161594 0.01688,-0.08761 0.03983,-0.174165 0.08333,-0.252831 0.04333,-0.09346 0.02305,-0.215432 0.07333,-0.309285 0.03304,-0.101653 0.03404,-0.207047 0.05982,-0.310816 0.03198,-0.12477 0.07778,-0.245253 0.09024,-0.374417 0.05564,-0.232543 0.134699,-0.457767 0.222493,-0.680062 0.06569,-0.175175 0.313428,-0.08227 0.247737,0.0929 z"
       inkscape:connector-curvature="0" />
    <path
       style="fill:#000000;fill-opacity:1;stroke:none;stroke-width:1;stroke-miterlimit:4;stroke-dasharray:none;stroke-dashoffset:0;stroke-opacity:1"
       id="path1634"
       d="m 77.900891,66.347262 c 0.0056,0.360183 -0.01249,0.72108 0.01103,1.08068 0.02669,0.278252 0.04363,0.556988 0.09729,0.831528 0.03119,0.193579 0.06679,0.384712 0.114067,0.575016 0.02732,0.133403 0.08097,0.259294 0.121359,0.389144 0.01109,0.03637 0.02196,0.07282 0.03123,0.109701 0.01415,0.05654 -0.05974,-0.07107 -0.0957,-0.09996 -0.03926,-0.03155 -0.08083,0.06961 -0.07195,0.03 0.0042,-0.01849 0.01818,-0.03328 0.02726,-0.04992 0.102812,-0.163972 0.195961,-0.333316 0.312145,-0.489701 0.238675,-0.317222 0.440135,-0.662027 0.635834,-1.007054 0.200477,-0.362866 0.396388,-0.727869 0.569505,-1.10467 0.06246,-0.17162 0.16569,-0.324591 0.231581,-0.494321 0.0085,-0.02421 0.0164,-0.04866 0.02257,-0.07355 -2.22e-4,0.0045 -5.29e-4,0.0089 -7.93e-4,0.01341 -0.0038,-0.18705 0.26072,-0.192435 0.264527,-0.0054 v 0 c -1.9e-4,0.0061 -2.64e-4,0.01209 -5.29e-4,0.01815 -0.0061,0.04961 -0.02265,0.09711 -0.03952,0.14395 -0.06883,0.174172 -0.171119,0.33274 -0.237519,0.508275 -0.176493,0.383498 -0.37542,0.755393 -0.579768,1.124696 -0.201314,0.354708 -0.408784,0.708977 -0.65422,1.035145 -0.111551,0.147349 -0.198614,0.309465 -0.295917,0.465341 -0.02051,0.02553 -0.02907,0.0593 -0.04958,0.08484 -0.09539,0.118777 -0.202795,0.04107 -0.295423,-0.03811 -0.0081,-0.03097 -0.01704,-0.06171 -0.02647,-0.09231 -0.04184,-0.134708 -0.09745,-0.265364 -0.125479,-0.403895 -0.04833,-0.194625 -0.0851,-0.390247 -0.116983,-0.588174 -0.05557,-0.285771 -0.07462,-0.575656 -0.101639,-0.865296 -0.02278,-0.365321 -0.0071,-0.73166 -0.01156,-1.097534 0,-0.187089 0.264584,-0.187089 0.264584,0 z"
       inkscape:connector-curvature="0" />
    <path
       style="fill:#000000;fill-opacity:1;stroke:none;stroke-width:1;stroke-miterlimit:4;stroke-dasharray:none;stroke-dashoffset:0;stroke-opacity:1"
       id="path1636"
       d="m 79.873307,68.639586 c -0.06085,0.349231 -0.115636,0.698897 -0.149894,1.051798 -0.02032,0.222353 -0.02606,0.445617 -0.02816,0.668771 -2.64e-4,0.07366 -7.93e-4,0.147339 5.29e-4,0.220996 -0.297018,-0.02365 -0.264117,0.05022 -0.264038,-0.142605 2.1e-5,-0.154665 -2e-6,-0.309327 -1.3e-5,-0.463992 -1.1e-5,-0.130958 -1.6e-5,-0.261916 -1.6e-5,-0.392874 0,-0.0677 -3e-6,-0.135395 0,-0.203094 0.0056,-0.184121 0.223065,-0.153609 0.326284,-0.135478 0.190064,0.03914 0.379825,0.08059 0.570617,0.117034 0.157797,0.03179 0.318074,0.04761 0.478498,0.0582 0.05283,0.0024 0.105733,0.0037 0.158621,0.003 0.0016,-6.6e-5 0.0033,-1.9e-5 0.005,-2.9e-5 0.186283,-0.01738 0.21085,0.24607 0.02458,0.26344 v 0 c -0.0087,5.29e-4 -0.01741,0.0013 -0.02614,0.0011 -0.05986,7.94e-4 -0.119753,-5.29e-4 -0.179546,-0.0036 -0.171236,-0.01138 -0.342283,-0.02852 -0.510733,-0.06234 -0.192757,-0.03696 -0.384368,-0.07916 -0.576524,-0.118234 -0.05435,-0.01884 -0.09915,0.0051 -0.09346,-0.0074 0.09565,-0.210584 0.08715,-0.174019 0.0874,-0.115781 -3e-6,0.0677 0,0.13539 0,0.203086 0,0.130953 5e-6,0.261908 1.6e-5,0.392861 1e-5,0.154707 3.4e-5,0.309415 1.3e-5,0.464122 -2.4e-5,0.05666 -2.64e-4,0.616955 -0.265094,0.146693 -0.0013,-0.07589 -7.94e-4,-0.151794 -5.29e-4,-0.227688 0.0021,-0.230872 0.0083,-0.461854 0.02939,-0.69189 0.0344,-0.353097 0.08784,-0.703257 0.149963,-1.052513 0.01863,-0.186161 0.281887,-0.159834 0.263271,0.02633 z"
       inkscape:connector-curvature="0" />
    <path
       style="fill:#000000;fill-opacity:1;stroke:none;stroke-width:1;stroke-miterlimit:4;stroke-dasharray:none;stroke-dashoffset:0;stroke-opacity:1"
       id="path1638"
       d="m 82.042676,69.99961 c 0.282001,0.0181 0.565066,0.0753 0.848215,0.06057 0.09916,-0.01185 0.197688,-0.03014 0.293989,-0.05671 0.03909,-0.01408 0.08089,-0.0154 0.121957,-0.01635 0.101626,-0.0019 -0.138845,0.01572 -0.08811,0.144164 -0.04051,-0.07339 -0.106799,-0.116036 -0.166142,-0.171439 -0.04339,-0.0619 -0.106079,-0.07243 -0.169569,-0.106313 -0.05315,-0.03633 -0.113228,-0.0535 -0.175003,-0.06829 -0.08629,-0.0051 -0.170331,-0.0051 -0.255469,-0.02114 -0.08337,-0.02741 -0.166227,-0.05609 -0.252949,-0.07039 -0.0596,-0.01027 -0.120272,-0.0088 -0.180518,-0.0092 -0.04361,0.03184 -0.08522,0.08197 -0.130037,0.125185 -0.06421,0.05758 -0.12143,0.13031 -0.161541,0.207013 -0.03228,0.07135 -0.05254,0.159549 -0.03522,0.236918 0.02368,0.125452 0.09609,0.237109 0.169537,0.339704 0.07235,0.09788 0.156342,0.186362 0.241218,0.273331 0.07015,0.03621 0.121356,0.102581 0.195347,0.131339 0.100788,0.01757 0.193688,0.06115 0.29051,0.0925 0.09205,0.02299 0.187436,0.02685 0.281842,0.03045 0.02986,0.0011 0.05974,0.0016 0.08961,0.0011 -5.29e-4,8e-6 -7.94e-4,1.6e-5 -0.0013,2.4e-5 0.186762,-0.01103 0.202372,0.253087 0.01561,0.264123 v 0 c -0.0019,9.8e-5 -0.0039,1.98e-4 -0.0058,2.65e-4 -0.03613,7.93e-4 -0.07227,2.6e-5 -0.108384,-0.0011 -0.11866,-0.0046 -0.238426,-0.0109 -0.353377,-0.04319 -0.107326,-0.03494 -0.21054,-0.07935 -0.320844,-0.10446 -0.09959,-0.04963 -0.183068,-0.121203 -0.272675,-0.186257 -0.09448,-0.09686 -0.187597,-0.195728 -0.267687,-0.30508 -0.0975,-0.138589 -0.188436,-0.288205 -0.21599,-0.458039 -0.01349,-0.137826 5.3e-4,-0.276772 0.06683,-0.401164 0.05698,-0.09788 0.12454,-0.194082 0.209881,-0.269163 0.09456,-0.08813 0.174461,-0.187248 0.314074,-0.198051 0.0744,5.29e-4 0.149219,-1.35e-4 0.222758,0.01289 0.09164,0.01566 0.180787,0.04146 0.268115,0.0734 0.07972,0.03002 0.176509,-0.0065 0.258601,0.02185 0.08782,0.02143 0.1738,0.04926 0.250047,0.09927 0.07759,0.03341 0.163669,0.06982 0.217406,0.143452 0.05801,0.06433 0.142081,0.106156 0.181919,0.188293 0.06664,0.103492 0.08475,0.280876 -0.106793,0.292547 -0.04366,7.94e-4 -0.01889,-0.0046 -0.05794,0.007 -0.115422,0.03152 -0.233405,0.05377 -0.352465,0.06589 -0.297227,0.01103 -0.593166,-0.03826 -0.888947,-0.06194 -0.185946,-0.02066 -0.156726,-0.283626 0.02922,-0.262967 z"
       inkscape:connector-curvature="0" />
    <path
       style="fill:#000000;fill-opacity:1;stroke:none;stroke-width:1;stroke-miterlimit:4;stroke-dasharray:none;stroke-dashoffset:0;stroke-opacity:1"
       id="path1640"
       d="m 85.604373,69.779612 c -0.298731,-0.01286 -0.591042,0.04186 -0.880454,0.10795 -0.131683,0.04133 -0.254823,0.09754 -0.368626,0.175109 -0.03478,0.02424 -0.03998,0.06435 -0.01267,0.0064 0.02902,0.08514 0.101042,0.144219 0.166071,0.203634 0.09592,0.07993 0.207129,0.134991 0.308594,0.206989 0.08175,0.05803 0.153061,0.12279 0.20411,0.208857 0.01998,0.112202 -0.02429,0.189095 -0.107304,0.26185 -0.106106,0.08254 -0.23867,0.128167 -0.363818,0.175371 -0.147656,0.04887 -0.302805,0.06177 -0.457102,0.06921 -0.112499,0.004 -0.225084,0.0034 -0.33763,0.003 -0.08993,-2.64e-4 -0.179872,-5.29e-4 -0.269806,-7.93e-4 -0.09578,0.01352 -0.176056,-0.08843 -0.182171,-0.182253 -0.0028,-0.09148 -0.006,-0.01659 0.159544,-0.158515 0.186864,-0.0092 0.199832,0.255096 0.01296,0.264266 v 0 c 0.09354,-0.137194 0.09028,-0.187997 0.09156,-0.122232 0.0047,0.08035 -0.209846,-0.09071 -0.08131,-0.06585 0.09008,2.01e-4 0.180152,5.3e-4 0.270227,7.94e-4 0.108005,5.29e-4 0.216048,0.0011 0.324009,-0.0026 0.126968,-0.006 0.254881,-0.0149 0.377065,-0.05275 0.09701,-0.03586 0.200621,-0.07044 0.285285,-0.129283 0.01556,-0.0123 0.03828,-0.03602 0.01019,0.0113 -0.01045,0.01762 0.01233,-0.07519 0.02228,-0.05728 0.01408,0.02532 -0.043,0.06214 0.0016,0.0869 0.06577,0.07459 -0.09238,-0.09198 -0.113242,-0.09451 -0.109561,-0.0787 -0.231143,-0.138107 -0.333626,-0.227253 -0.09351,-0.08581 -0.188204,-0.176588 -0.232384,-0.298879 -0.04647,-0.131868 -0.0079,-0.247493 0.109204,-0.325212 0.141293,-0.0954 0.294383,-0.165635 0.458224,-0.214067 0.308703,-0.07046 0.620858,-0.127238 0.939342,-0.114588 0.187087,0 0.187087,0.264583 0,0.264583 z"
       inkscape:connector-curvature="0" />
    <path
       style="fill:#000000;fill-opacity:1;stroke:none;stroke-width:1;stroke-miterlimit:4;stroke-dasharray:none;stroke-dashoffset:0;stroke-opacity:1"
       id="path1642"
       d="m 86.801202,69.713366 c -0.20633,0.308472 -0.417499,0.613489 -0.621276,0.923684 -0.1295,0.196477 -0.231023,0.40867 -0.348562,0.611978 -0.0344,0.07172 -0.07489,0.142825 -0.08629,0.222338 0.0037,-0.07228 0.02061,-0.03729 0.07547,-0.005 0.05185,0.03048 0.06684,0.03387 0.123547,0.05649 0.148571,0.0491 0.305548,0.06164 0.460864,0.06909 0.127646,0.0048 0.255416,0.0037 0.383125,0.0031 0.01397,-0.01508 0.161597,-0.07004 0.107585,-0.05319 -0.0061,-0.01884 -0.01384,0.03666 -0.0038,-0.01979 0.04094,-0.182555 0.299114,-0.124651 0.25817,0.0579 v 0 c -0.0136,0.0561 -0.02915,0.111532 -0.07184,0.153453 -0.08472,0.0645 -0.182922,0.108685 -0.28889,0.126209 -0.132408,5.29e-4 -0.264883,0.0016 -0.397225,-0.0034 -0.185309,-0.0092 -0.372221,-0.02617 -0.548351,-0.08856 -0.158041,-0.06611 -0.344644,-0.145166 -0.359942,-0.337775 0.01868,-0.111604 0.0658,-0.213704 0.118573,-0.313312 0.120168,-0.207541 0.223679,-0.424402 0.356447,-0.62475 0.202681,-0.308528 0.412511,-0.612042 0.618042,-0.918644 0.09916,-0.158649 0.323525,-0.01842 0.224367,0.14023 z"
       inkscape:connector-curvature="0" />
    <path
       style="fill:#000000;fill-opacity:1;stroke:none;stroke-width:1;stroke-miterlimit:4;stroke-dasharray:none;stroke-dashoffset:0;stroke-opacity:1"
       id="path1644"
       d="m 85.656088,70.390651 c 0.425993,0.0756 0.857443,0.112795 1.288653,0.14287 0.176292,0.01024 0.352735,0.01961 0.529334,0.02223 0.102462,-0.0191 0.123989,0.207716 0.05892,0.295929 -0.119589,0.143877 -0.323064,-0.02524 -0.203475,-0.169125 v 0 c 0.01844,-0.02109 0.03238,-0.0793 0.05533,-0.06324 0.293981,0.205838 0.186859,0.200977 0.08527,0.200985 -0.181427,-0.0028 -0.362696,-0.01222 -0.543803,-0.02283 -0.442437,-0.03091 -0.885114,-0.06929 -1.322118,-0.147368 -0.183454,-0.03669 -0.131567,-0.296137 0.05189,-0.259445 z"
       inkscape:connector-curvature="0" />
    <path
       style="fill:#000000;fill-opacity:1;stroke:none;stroke-width:1;stroke-miterlimit:4;stroke-dasharray:none;stroke-dashoffset:0;stroke-opacity:1"
       id="path1646"
       d="m 96.584158,46.14632 c -0.04837,0.193492 -0.09675,0.386985 -0.145122,0.580477 -0.0075,0.03002 -0.015,0.06005 -0.02252,0.09007 0.0041,-0.01685 0.0038,-0.04192 0.0044,-0.0094 0.0034,0.187058 -0.261117,0.1919 -0.264541,0.0048 v 0 c -2.64e-4,-0.02138 -2.64e-4,-0.03469 0.0035,-0.05957 0.0075,-0.03002 0.015,-0.06005 0.02252,-0.09007 0.04837,-0.193493 0.09675,-0.386985 0.145122,-0.580478 0.04537,-0.181501 0.302059,-0.117332 0.256683,0.06417 z"
       inkscape:connector-curvature="0" />
    <path
       style="fill:#000000;fill-opacity:1;stroke:none;stroke-width:1;stroke-miterlimit:4;stroke-dasharray:none;stroke-dashoffset:0;stroke-opacity:1"
       id="path1648"
       d="m 96.362545,47.87429 c -0.113813,0.216138 -0.207039,0.441732 -0.282829,0.673719 -0.02193,0.06408 -0.03551,0.131199 -0.03867,0.198906 -0.01,0.186822 -0.274198,0.172688 -0.264205,-0.01413 v 0 c 0.0052,-0.09081 0.02196,-0.180872 0.0514,-0.267044 0.08003,-0.244274 0.177922,-0.482042 0.297649,-0.709774 0.08367,-0.167336 0.320317,-0.04901 0.236648,0.118327 z"
       inkscape:connector-curvature="0" />
    <path
       style="fill:#000000;fill-opacity:1;stroke:none;stroke-width:1;stroke-miterlimit:4;stroke-dasharray:none;stroke-dashoffset:0;stroke-opacity:1"
       id="path1650"
       d="m 96.111686,50.209563 c -0.0847,0.240472 -0.163878,0.482579 -0.222036,0.730917 -0.02365,0.0996 -0.0866,0.180745 -0.123084,0.274698 -0.0044,0.01042 -0.0072,0.02141 -0.01032,0.03222 -0.04555,0.181459 -0.302172,0.117041 -0.256622,-0.06442 v 0 c 0.0057,-0.02191 0.01257,-0.0435 0.02072,-0.06463 0.03261,-0.08219 0.08154,-0.155218 0.111726,-0.238313 0.05865,-0.249473 0.135929,-0.49362 0.22294,-0.734645 0.04538,-0.181501 0.302059,-0.117332 0.256683,0.06417 z"
       inkscape:connector-curvature="0" />
    <path
       style="fill:#000000;fill-opacity:1;stroke:none;stroke-width:1;stroke-miterlimit:4;stroke-dasharray:none;stroke-dashoffset:0;stroke-opacity:1"
       id="path1652"
       d="m 95.812429,52.019316 c -0.08184,0.20592 -0.152043,0.41589 -0.214657,0.628356 -0.01511,0.04522 -0.02706,0.08916 -0.02846,0.136504 -1.22e-4,0.0089 1.46e-4,0.01778 5.29e-4,0.02667 0.02201,0.18579 -0.240736,0.216916 -0.262747,0.03113 v 0 c -0.0021,-0.02236 -0.0029,-0.04479 -0.0021,-0.06726 0.0028,-0.06943 0.01691,-0.135953 0.03909,-0.201863 0.06446,-0.218546 0.136617,-0.434579 0.220702,-0.646438 0.06569,-0.175176 0.313428,-0.08227 0.247737,0.0929 z"
       inkscape:connector-curvature="0" />
    <path
       style="fill:#000000;fill-opacity:1;stroke:none;stroke-width:1;stroke-miterlimit:4;stroke-dasharray:none;stroke-dashoffset:0;stroke-opacity:1"
       id="path1654"
       d="m 95.464671,53.888658 c -0.02753,0.235357 -0.05116,0.471125 -0.07228,0.707138 -0.0037,0.04454 -0.008,0.08904 -0.01095,0.133636 4.5e-5,-7.94e-4 9e-5,-0.0016 1.32e-4,-0.0026 -0.0054,0.187011 -0.269845,0.179414 -0.264472,-0.0076 v 0 c 7.2e-5,-0.0019 1.43e-4,-0.0036 2.15e-4,-0.0055 0.0031,-0.04728 0.0076,-0.09446 0.01156,-0.141663 0.0213,-0.237892 0.0451,-0.475538 0.07284,-0.712774 0.02066,-0.185944 0.283626,-0.156726 0.262964,0.02922 z"
       inkscape:connector-curvature="0" />
    <path
       style="fill:#000000;fill-opacity:1;stroke:none;stroke-width:1;stroke-miterlimit:4;stroke-dasharray:none;stroke-dashoffset:0;stroke-opacity:1"
       id="path1656"
       d="m 94.581307,55.416518 c -0.284327,0 -0.568653,0 -0.85298,0 -0.120406,0 -0.24081,0 -0.361217,0 -0.07789,0.0092 -0.137967,-0.02424 -0.191143,-0.07842 -0.114239,-0.148161 0.09529,-0.309718 0.209532,-0.161557 v 0 c -0.04753,-0.03341 -0.12722,-0.02336 -0.01839,-0.02461 0.120407,0 0.240811,0 0.361217,0 0.284327,0 0.568653,0 0.85298,0 0.187089,0 0.187089,0.264583 0,0.264583 z"
       inkscape:connector-curvature="0" />
    <path
       style="fill:#000000;fill-opacity:1;stroke:none;stroke-width:1;stroke-miterlimit:4;stroke-dasharray:none;stroke-dashoffset:0;stroke-opacity:1"
       id="path1658"
       d="m 91.855588,55.521505 c -0.336661,0.03387 -0.674193,0.04756 -1.008811,0.09876 -0.149723,0.02596 -0.299731,0.05029 -0.450012,0.07279 -0.0071,0.0011 -0.01416,0.0021 -0.02122,0.0031 -0.185127,0.02704 -0.223364,-0.234765 -0.03824,-0.261805 v 0 c 0.0068,-0.0011 0.01352,-0.0019 0.02029,-0.003 0.150027,-0.02246 0.299768,-0.04682 0.449247,-0.07267 0.338238,-0.05155 0.679193,-0.0668 1.019532,-0.100172 0.185944,-0.02066 0.215162,0.242303 0.02922,0.262964 z"
       inkscape:connector-curvature="0" />
    <path
       style="fill:#000000;fill-opacity:1;stroke:none;stroke-width:1;stroke-miterlimit:4;stroke-dasharray:none;stroke-dashoffset:0;stroke-opacity:1"
       id="path1660"
       d="m 89.333029,55.62416 c -0.254505,0.06036 -0.502518,0.144706 -0.755139,0.212969 -0.06325,0.01662 -0.126463,0.03346 -0.190214,0.04806 -0.182383,0.0417 -0.241353,-0.216228 -0.05897,-0.257929 v 0 c 0.0604,-0.01378 0.120243,-0.02991 0.180176,-0.04556 0.254228,-0.06867 0.503801,-0.153625 0.759976,-0.214225 0.181504,-0.04538 0.245674,0.211306 0.06417,0.256682 z"
       inkscape:connector-curvature="0" />
    <path
       style="fill:#000000;fill-opacity:1;stroke:none;stroke-width:1;stroke-miterlimit:4;stroke-dasharray:none;stroke-dashoffset:0;stroke-opacity:1"
       id="path1662"
       d="m 87.683241,55.888987 c -0.28271,0 -0.565423,0 -0.848132,0 -0.09118,0 -0.18237,0 -0.273553,0 -0.0037,0 -0.0074,0 -0.01111,0 -0.187087,0 -0.187087,-0.264583 0,-0.264583 v 0 c 0.0037,0 0.0074,0 0.01111,0 0.09118,0 0.182369,0 0.273553,0 0.282709,0 0.565422,0 0.848132,0 0.18709,0 0.18709,0.264583 0,0.264583 z"
       inkscape:connector-curvature="0" />
    <path
       style="fill:#000000;fill-opacity:1;stroke:none;stroke-width:1;stroke-miterlimit:4;stroke-dasharray:none;stroke-dashoffset:0;stroke-opacity:1"
       id="path1664"
       d="m 97.873988,50.207232 c -0.262922,-0.006 -0.530079,-0.03077 -0.77601,0.07648 -0.151275,0.0666 -0.244096,0.189148 -0.323937,0.328187 -0.01087,0.03806 -0.103624,0.205978 -0.04424,0.231931 0.08803,0.0275 0.177564,-0.0051 0.264268,-0.028 0.214842,-0.06773 0.406892,-0.193492 0.586396,-0.32699 0.138758,-0.08555 0.247148,-0.206799 0.366747,-0.314741 0.04145,-0.04359 0.08033,-0.09007 0.112676,-0.140888 0.196799,0.180711 0.227136,0.105813 0.152699,0.262967 -0.05426,0.173101 -0.08985,0.353478 -0.128128,0.531336 -0.03661,0.178422 -0.0478,0.36045 -0.05443,0.542042 0.0011,0.08707 -0.0173,0.174921 0.01588,0.256169 0.01042,0.02798 0.01979,0.02183 0.05233,0.03365 0.01585,-5.3e-4 -0.03654,-0.0013 0.01185,-0.0019 0.187082,-0.0013 0.189119,0.263133 0.0021,0.264575 v 0 c -0.03591,2.25e-4 -0.07125,-0.0011 -0.105129,-0.01431 -0.0921,-0.03523 -0.173631,-0.09311 -0.209019,-0.189603 -0.04181,-0.117557 -0.03962,-0.234839 -0.03235,-0.358302 0.0073,-0.197066 0.02008,-0.394536 0.0602,-0.588086 0.04266,-0.197472 0.08038,-0.398696 0.14768,-0.588891 0.0054,-0.01151 0.06343,-0.136636 0.06983,-0.136158 0.286197,0.02141 0.298439,0.03101 0.239011,0.129755 -0.04586,0.07074 -0.09953,0.136303 -0.159528,0.195553 -0.12759,0.1103 -0.238392,0.241755 -0.385238,0.329721 -0.207598,0.152228 -0.427803,0.295876 -0.676585,0.370086 -0.209627,0.05429 -0.425392,0.08417 -0.569751,-0.113548 -0.06894,-0.179192 -0.02703,-0.311031 0.05391,-0.479097 0.110207,-0.188553 0.245771,-0.350607 0.451215,-0.439753 0.291365,-0.117116 0.596599,-0.111932 0.906833,-0.09514 0.185944,0.02066 0.156726,0.283625 -0.02922,0.262964 z"
       inkscape:connector-curvature="0" />
    <path
       style="fill:#000000;fill-opacity:1;stroke:none;stroke-width:1;stroke-miterlimit:4;stroke-dasharray:none;stroke-dashoffset:0;stroke-opacity:1"
       id="path1666"
       d="m 90.726325,56.643073 c -0.06727,0.303642 -0.113064,0.611259 -0.142568,0.9207 -0.01355,0.165791 -0.02,0.332118 -0.02193,0.49843 -0.0011,0.116293 0.02331,0.06718 -0.170953,-0.07159 0.105995,-0.113345 0.216723,-0.219839 0.335672,-0.319566 0.148151,-0.116202 0.305181,-0.217638 0.466606,-0.314108 0.134178,-0.09028 0.274955,-0.109268 0.430159,-0.07666 0.142852,0.04245 0.251328,0.137753 0.343879,0.250701 0.07484,0.105966 0.09698,0.228719 0.106588,0.355029 0.01257,0.140432 -0.06872,0.252862 -0.165362,0.343971 -0.122494,0.112424 -0.26806,0.162245 -0.428829,0.18982 -0.18215,0.01871 -0.367017,0.03239 -0.549087,0.0095 -0.136361,-0.02839 -0.272857,-0.05496 -0.410898,-0.07366 -0.08755,-0.02024 -0.163497,-0.06731 -0.248756,-0.09394 -0.0779,-0.03737 -0.126235,-0.100079 -0.153757,-0.179658 -0.02172,-0.06743 0.0088,-0.128582 0.04773,-0.181678 0.118565,-0.144725 0.323234,0.02294 0.204671,0.167674 v 0 c 0.0013,-0.02238 0.01072,-0.04712 -7.94e-4,-0.06797 0.0046,0.01579 0.0052,0.01664 -0.01828,0.0093 0.07084,0.02249 0.137781,0.05236 0.204808,0.0841 0.138465,0.01884 0.275646,0.04443 0.412256,0.07385 0.153992,0.02569 0.314142,0.0011 0.468857,-0.0085 0.113525,-0.01796 0.21164,-0.04734 0.297887,-0.127921 0.04089,-0.02777 0.08025,-0.0777 0.07573,-0.125362 -0.0051,-0.07208 -0.0117,-0.14397 -0.04837,-0.208047 -0.05337,-0.06711 -0.1129,-0.126939 -0.193945,-0.158523 -0.09114,-0.02032 -0.158337,-0.01315 -0.239053,0.04532 -0.149673,0.0888 -0.294712,0.182528 -0.432113,0.289626 -0.126449,0.105799 -0.237916,0.224697 -0.358436,0.336637 -0.247277,-0.07895 -0.241938,-0.0054 -0.240736,-0.151402 0.0021,-0.173689 0.0088,-0.347393 0.0231,-0.520528 0.03071,-0.320249 0.07795,-0.638657 0.147669,-0.952908 0.04058,-0.182634 0.298868,-0.125238 0.258281,0.0574 z"
       inkscape:connector-curvature="0" />
    <path
       style="fill:#000000;fill-opacity:1;stroke:none;stroke-width:1;stroke-miterlimit:4;stroke-dasharray:none;stroke-dashoffset:0;stroke-opacity:1"
       id="path1668"
       d="m 105.39702,50.521483 c -0.37482,0.09492 -0.72696,0.244906 -1.05876,0.441373 -0.29824,0.160702 -0.53122,0.396642 -0.73243,0.664223 -0.11125,0.153511 -0.17149,0.312277 -0.13287,0.499692 0.10804,0.168127 0.2706,0.24607 0.45394,0.305797 0.30291,0.06943 0.61751,0.08032 0.92685,0.06459 0.26672,-0.019 0.53906,-0.05914 0.76847,-0.203705 0.11839,-0.09882 0.25167,-0.198218 0.31883,-0.340818 0.008,-0.0657 -0.0346,-0.06583 -0.0891,-0.08496 -0.16745,-0.0436 -0.34268,-0.04063 -0.51446,-0.04326 -0.16533,-0.0062 -0.32619,-0.0081 -0.48572,0.03815 -0.0257,0.0078 -0.0505,0.01762 -0.0749,0.02876 -0.17081,0.07633 -0.27876,-0.165227 -0.10795,-0.24156 v 0 c 0.036,-0.01588 0.0725,-0.0306 0.11033,-0.04166 0.18477,-0.05191 0.37108,-0.05725 0.56229,-0.04824 0.20596,0.0032 0.41656,5.29e-4 0.61469,0.06466 0.19178,0.08905 0.29617,0.235268 0.22028,0.448607 -0.0978,0.18302 -0.25084,0.323701 -0.41677,0.446301 -0.27186,0.161513 -0.57886,0.225013 -0.89324,0.241996 -0.34199,0.0159 -0.68961,0.0048 -1.02336,-0.07786 -0.27369,-0.0929 -0.51749,-0.230695 -0.63098,-0.511694 -0.0402,-0.261985 0.0226,-0.489995 0.18226,-0.704016 0.22248,-0.294767 0.48137,-0.55445 0.80926,-0.732856 0.35421,-0.208497 0.72938,-0.369488 1.12908,-0.47021 0.1815,-0.04538 0.24567,0.211307 0.0642,0.256683 z"
       inkscape:connector-curvature="0" />
    <path
       style="fill:#000000;fill-opacity:1;stroke:none;stroke-width:1;stroke-miterlimit:4;stroke-dasharray:none;stroke-dashoffset:0;stroke-opacity:1"
       id="path1670"
       d="m 107.36377,51.088689 c 0.33902,0 0.67803,0 1.01704,0 0.0941,0 0.18823,0 0.28235,0 0.003,0 0.007,0 0.0103,0 0.18708,0 0.18708,0.264583 0,0.264583 v 0 c -0.003,0 -0.007,0 -0.0103,0 -0.0941,0 -0.18823,0 -0.28235,0 -0.33901,0 -0.67802,0 -1.01704,0 -0.18708,0 -0.18708,-0.264583 0,-0.264583 z"
       inkscape:connector-curvature="0" />
    <path
       style="fill:#000000;fill-opacity:1;stroke:none;stroke-width:1;stroke-miterlimit:4;stroke-dasharray:none;stroke-dashoffset:0;stroke-opacity:1"
       id="path1672"
       d="m 107.17479,52.03363 c 0.37744,0 0.75489,0 1.13235,0 0.16733,0 0.33467,0 0.50201,0 0.0179,0 0.0357,0 0.0536,0 0.18709,0 0.18709,0.264583 0,0.264583 v 0 c -0.0179,0 -0.0357,0 -0.0536,0 -0.16734,0 -0.33468,0 -0.50201,0 -0.37746,0 -0.75491,0 -1.13235,0 -0.18709,0 -0.18709,-0.264583 0,-0.264583 z"
       inkscape:connector-curvature="0" />
    <path
       style="fill:#000000;fill-opacity:1;stroke:none;stroke-width:1;stroke-miterlimit:4;stroke-dasharray:none;stroke-dashoffset:0;stroke-opacity:1"
       id="path1674"
       d="m 112.53517,49.557886 c -0.28409,0.01151 -0.56279,0.05475 -0.8396,0.116949 -0.1158,0.03483 -0.22607,0.07126 -0.30161,0.167989 -0.0378,0.08391 -0.0397,0.178041 -0.0434,0.268457 0.0132,0.07153 0.0481,0.132572 0.1139,0.167706 0.0682,0.03937 0.13435,0.04903 0.20732,0.0299 0.0994,-0.07742 0.17179,-0.17962 0.2378,-0.285491 0.10324,-0.137607 0.18876,-0.287387 0.28692,-0.428183 0.0549,-0.07287 0.0902,-0.153969 0.1145,-0.241141 0.0274,-0.114049 -0.0243,-0.03663 0.27019,0.03383 -0.001,0.114848 -0.001,0.229706 -0.001,0.344559 -0.005,0.150373 -0.006,0.296154 0.0467,0.438425 0.0374,0.135398 0.13021,0.236675 0.21305,0.344938 0.07,0.07236 0.12594,0.155395 0.20325,0.220596 0.0578,0.05192 0.13196,0.05776 0.20582,0.06504 0.0641,-0.01519 0.12295,-0.04486 0.18492,-0.06613 0.0471,-0.0019 0.0895,-0.03793 0.0191,5.29e-4 0.11585,-0.146907 0.32361,0.01693 0.20776,0.163835 v 0 c -0.04,0.04408 -0.0857,0.08092 -0.14703,0.08791 -0.0973,0.02148 -0.18475,0.0916 -0.29164,0.0771 -0.12954,-0.01357 -0.25461,-0.0401 -0.35456,-0.130349 -0.0873,-0.0796 -0.16021,-0.170641 -0.23852,-0.258705 -0.098,-0.131016 -0.20663,-0.254814 -0.25181,-0.417073 -0.058,-0.171905 -0.0719,-0.345157 -0.0617,-0.526116 1e-5,-0.116033 -1.3e-4,-0.232071 0.001,-0.348102 0.2761,-0.04737 0.28671,-0.117075 0.24896,0.04176 -0.0331,0.115599 -0.0811,0.224624 -0.15305,0.321847 -0.0976,0.135404 -0.17677,0.284343 -0.27926,0.416746 -0.10275,0.161046 -0.21792,0.325808 -0.40033,0.401619 -0.14758,0.03307 -0.28523,0.01159 -0.41585,-0.06756 -0.13628,-0.09859 -0.22152,-0.226338 -0.23089,-0.398679 0.006,-0.148154 0.018,-0.298059 0.10318,-0.425045 0.11859,-0.140658 0.27164,-0.211458 0.44821,-0.25834 0.2958,-0.06633 0.59401,-0.111969 0.89756,-0.123372 0.18709,0 0.18709,0.264583 0,0.264583 z"
       inkscape:connector-curvature="0" />
    <path
       style="fill:#000000;fill-opacity:1;stroke:none;stroke-width:1;stroke-miterlimit:4;stroke-dasharray:none;stroke-dashoffset:0;stroke-opacity:1"
       id="path1676"
       d="m 110.69435,51.478513 c 0.46177,0.04072 0.92661,0.01884 1.38743,-0.02283 0.32346,-0.02183 0.64316,-0.0605 0.96203,-0.11734 0.15717,-0.02737 0.31541,-0.0486 0.47469,-0.05817 0.051,-0.0024 0.10197,-0.0041 0.15298,-0.0033 0.007,-3.7e-5 0.0133,5.3e-4 0.0199,0.0011 0.18615,0.01876 0.15962,0.282006 -0.0265,0.26325 v 0 c 8e-4,6.6e-5 0.003,2.32e-4 0.002,1.95e-4 -0.0443,-5.29e-4 -0.0885,7.94e-4 -0.13276,0.0028 -0.14896,0.0086 -0.29687,0.02924 -0.44386,0.05453 -0.32636,0.05817 -0.65366,0.09786 -0.98467,0.120375 -0.47671,0.04294 -0.95751,0.06508 -1.43517,0.02281 -0.18632,-0.01693 -0.16237,-0.280435 0.0239,-0.263496 z"
       inkscape:connector-curvature="0" />
    <path
       style="fill:#000000;fill-opacity:1;stroke:none;stroke-width:1;stroke-miterlimit:4;stroke-dasharray:none;stroke-dashoffset:0;stroke-opacity:1"
       id="path1678"
       d="m 111.98669,52.288431 c -0.0604,0.320615 -0.12608,0.640147 -0.18624,0.960843 -0.0436,0.229433 -0.061,0.4622 -0.0689,0.695216 -0.004,0.135676 -0.003,0.27142 -0.003,0.407136 2.6e-4,0.05521 5.3e-4,0.110413 7.9e-4,0.165621 0.006,0.09747 -0.25102,-0.03114 -0.1876,-0.14129 0.0391,-0.112951 0.0851,-0.223637 0.15035,-0.323903 0.12422,-0.145471 0.26233,-0.280453 0.41042,-0.401495 0.11646,-0.07986 0.22177,-0.176778 0.3452,-0.245813 0.14392,-0.06633 0.26132,-0.02737 0.38595,0.05585 0.0946,0.05753 0.15976,0.145849 0.19995,0.246901 0.0212,0.07084 0.0206,0.144941 0.0205,0.218122 0.009,0.10934 -0.0365,0.203595 -0.0946,0.292206 -0.0668,0.07864 -0.14656,0.14487 -0.22222,0.21467 -0.0562,0.06114 -0.12013,0.103336 -0.20076,0.124666 -0.0225,0.0077 -0.0781,0.04753 -0.1355,0.06998 -0.082,0.0301 -0.17025,0.03138 -0.25651,0.03337 -0.0704,0.0011 -0.14073,5.29e-4 -0.2111,5.29e-4 -0.10643,0.0076 -0.13898,-0.007 -0.24131,-0.06034 -0.0348,-0.05477 -0.0678,-0.09501 -0.12158,-0.128977 -0.008,-0.0024 -0.0109,-2.64e-4 -0.0462,-0.0013 -0.0715,0.0021 0.008,-0.06917 0.0465,-0.263234 0.18708,0.0016 0.18473,0.266237 -0.002,0.264573 v 0 c -0.0779,-0.252306 -0.16742,-0.266901 -0.035,-0.265763 0.0623,0.0024 0.12689,0.0087 0.18059,0.04362 0.0643,0.04211 0.12723,0.09092 0.16222,0.161317 -0.15712,-0.03379 0.0189,-0.0053 0.0579,-0.01439 0.0681,2.07e-4 0.13624,7.94e-4 0.20436,-2.64e-4 0.056,-0.0013 0.11447,5.29e-4 0.16843,-0.01617 0.0581,-0.02088 0.10205,-0.06836 0.16535,-0.07935 0.0261,-0.0054 0.046,-0.02035 0.0855,-0.06245 0.0627,-0.05783 0.12744,-0.113617 0.18691,-0.174794 0.0418,-0.03791 0.0457,-0.08738 0.0447,-0.13803 9e-5,-0.0445 0.002,-0.0896 -0.007,-0.133493 -0.0166,-0.0427 -0.0516,-0.08716 -0.096,-0.11107 -0.0608,-0.04059 -0.0505,-0.05976 -0.11559,-0.04186 -0.11207,0.04974 -0.19508,0.158038 -0.30204,0.217336 -0.12944,0.103812 -0.24666,0.223221 -0.35869,0.345419 -0.0688,0.09098 -0.0905,0.209106 -0.14163,0.310285 -0.0656,0.107243 -0.28181,0.192437 -0.30402,0.0072 -2.7e-4,-0.05544 -8e-4,-0.110881 -0.001,-0.166325 -5.3e-4,-0.139078 -0.001,-0.278188 0.003,-0.417226 0.008,-0.246375 0.0272,-0.492469 0.0733,-0.73505 0.0612,-0.325829 0.12751,-0.650571 0.18958,-0.976196 0.0454,-0.181504 0.30206,-0.117332 0.25669,0.06417 z"
       inkscape:connector-curvature="0"
       inkscape:export-xdpi="300"
       inkscape:export-ydpi="300" />
  </g>
</svg>
