<?xml version="1.0" encoding="UTF-8" standalone="no"?>
<!-- Created with Inkscape (http://www.inkscape.org/) -->

<svg
   xmlns:dc="http://purl.org/dc/elements/1.1/"
   xmlns:cc="http://creativecommons.org/ns#"
   xmlns:rdf="http://www.w3.org/1999/02/22-rdf-syntax-ns#"
   xmlns:svg="http://www.w3.org/2000/svg"
   xmlns="http://www.w3.org/2000/svg"
   xmlns:sodipodi="http://sodipodi.sourceforge.net/DTD/sodipodi-0.dtd"
   xmlns:inkscape="http://www.inkscape.org/namespaces/inkscape"
   width="210mm"
   height="297mm"
   viewBox="0 0 210 297"
   version="1.1"
   id="svg8"
   inkscape:version="0.92.3 (2405546, 2018-03-11)"
   sodipodi:docname="drawings.svg">
  <defs
     id="defs2" />
  <sodipodi:namedview
     id="base"
     pagecolor="#ffffff"
     bordercolor="#666666"
     borderopacity="1.0"
     inkscape:pageopacity="1"
     inkscape:pageshadow="2"
     inkscape:zoom="2.8"
     inkscape:cx="248.46971"
     inkscape:cy="945.71429"
     inkscape:document-units="mm"
     inkscape:current-layer="layer1"
     showgrid="false"
     inkscape:window-width="2426"
     inkscape:window-height="1329"
     inkscape:window-x="134"
     inkscape:window-y="55"
     inkscape:window-maximized="1" />
  <metadata
     id="metadata5">
    <rdf:RDF>
      <cc:Work
         rdf:about="">
        <dc:format>image/svg+xml</dc:format>
        <dc:type
           rdf:resource="http://purl.org/dc/dcmitype/StillImage" />
        <dc:title></dc:title>
      </cc:Work>
    </rdf:RDF>
  </metadata>
  <g
     inkscape:label="Layer 1"
     inkscape:groupmode="layer"
     id="layer1">
    <path
       style="fill:#000000;fill-opacity:1;stroke:none;stroke-width:1;stroke-miterlimit:4;stroke-dasharray:none;stroke-dashoffset:0;stroke-opacity:1"
       id="path879"
       d="m 21.664822,11.838807 c -0.05181,0.349942 -0.02996,0.703072 -0.01495,1.054729 0.01602,0.334112 0.02199,0.668531 0.02518,1.002969 0.0026,0.385249 0.0022,0.770511 0.0022,1.155766 -1.04e-4,0.404288 -2.01e-4,0.808576 -2.53e-4,1.212864 -4.6e-5,0.417677 -4.8e-5,0.835355 -5.1e-5,1.253032 -1e-6,0.396401 1e-6,0.792803 1e-6,1.189204 8.73e-4,0.348096 -0.04628,0.694088 -0.06875,1.04123 -0.009,0.387166 -0.05414,0.771805 -0.08285,1.15774 -0.01453,0.439155 -0.04585,0.876653 -0.07971,1.314648 -0.03507,0.449818 -0.04395,0.900982 -0.04959,1.351939 -0.0041,0.468519 -0.0034,0.937062 -0.0032,1.405594 0.0044,0.476156 0.0049,0.951264 -0.02662,1.426474 -0.03635,0.469699 -0.05205,0.94048 -0.06112,1.411374 -0.0071,0.493477 -0.0067,0.987026 -0.0068,1.480543 1.24e-4,0.518403 3.96e-4,1.036804 5.29e-4,1.555207 0.02661,0.513575 0.06027,1.026536 0.07743,1.540587 0.02938,0.579059 -0.01302,1.15761 -0.03946,1.735852 -0.02436,0.549256 -0.03205,1.099031 -0.03629,1.648751 0.0108,0.484497 -0.01116,0.967017 -0.04516,1.450051 -0.03062,0.430425 -0.04183,0.861814 -0.04783,1.293173 0.0095,0.412771 -0.01364,0.823195 -0.04688,1.234283 -0.01721,0.383345 -0.07065,0.763302 -0.105085,1.145191 -0.01717,0.378886 -0.04743,0.756007 -0.0828,1.133576 -0.02037,0.379169 -0.0728,0.755218 -0.106693,1.133213 -0.02968,0.364738 -0.03525,0.730803 -0.03899,1.096544 -0.0078,0.324808 0.01107,0.650343 -0.01286,0.97449 -0.03188,0.266216 -0.05794,0.532685 -0.07181,0.800452 -0.01,0.218585 -0.01058,0.437433 -0.01103,0.656198 -9.3e-5,0.263755 2.52e-4,0.52751 4.23e-4,0.791266 1.54e-4,0.277926 1.83e-4,0.555849 2.02e-4,0.833776 1.1e-5,0.23373 8e-6,0.467463 6e-6,0.701193 -2e-6,0.192828 -2e-6,0.385657 -3e-6,0.578485 0,0.188532 0,0.377063 0,0.565595 0,0.188899 0,0.377798 0,0.566697 0,0.154231 0,0.308462 0,0.462693 0,0.108125 0,0.216247 0,0.324369 0,0.02677 0,0.05354 0,0.08031 0.0012,0.08256 -0.130413,-0.07723 -0.204386,-0.122314 0.111931,-0.149913 0.323939,0.0084 0.212007,0.158295 v 0 c -0.09073,-0.01125 -0.181469,-0.02249 -0.272204,-0.03373 0,-7.94e-4 0,-0.0016 0,-0.0021 0,-0.02677 0,-0.05354 0,-0.08031 0,-0.108122 0,-0.216244 0,-0.324369 0,-0.15423 0,-0.308461 0,-0.462692 0,-0.1889 0,-0.377799 0,-0.566698 0,-0.188532 0,-0.377063 0,-0.565597 0,-0.192829 1e-6,-0.385657 3e-6,-0.578485 2e-6,-0.233725 5e-6,-0.46745 -6e-6,-0.701172 -1.9e-5,-0.277876 -4.8e-5,-0.555752 -2.02e-4,-0.833628 -1.65e-4,-0.263994 -5.03e-4,-0.527987 -4.23e-4,-0.79198 4.76e-4,-0.223163 0.0011,-0.446408 0.01139,-0.669383 0.01406,-0.269891 0.03974,-0.538567 0.07222,-0.806865 0.02522,-0.318133 0.0026,-0.638204 0.01211,-0.957049 0.0038,-0.372737 0.0096,-0.745794 0.04003,-1.117499 0.034,-0.378333 0.08636,-0.754719 0.106787,-1.134229 0.03534,-0.377288 0.06541,-0.754092 0.08271,-1.132692 0.03444,-0.381069 0.0877,-0.760201 0.104875,-1.142727 0.03277,-0.405236 0.05563,-0.809721 0.04605,-1.216637 0.0061,-0.436329 0.01748,-0.872688 0.04845,-1.30807 0.03362,-0.477542 0.05539,-0.954511 0.04451,-1.433513 0.0043,-0.553069 0.01204,-1.106194 0.03656,-1.6588 0.02613,-0.571278 0.06839,-1.142852 0.03934,-1.714939 -0.01723,-0.516972 -0.05167,-1.032806 -0.07758,-1.549342 -1.38e-4,-0.518438 -3.97e-4,-1.036878 -5.29e-4,-1.555318 8.2e-5,-0.495205 -3.7e-4,-0.990436 0.0068,-1.485601 0.0092,-0.475036 0.02503,-0.94996 0.06165,-1.423794 0.0312,-0.469332 0.03022,-0.93857 0.02604,-1.408847 -1.9e-4,-0.469672 -8.46e-4,-0.939355 0.0033,-1.409013 0.0057,-0.456658 0.01482,-0.913521 0.05036,-1.369022 0.03385,-0.437753 0.06502,-0.874988 0.07965,-1.3139 0.0287,-0.385098 0.07377,-0.768879 0.08268,-1.155208 0.02216,-0.341449 0.06838,-0.681784 0.0682,-1.024114 -1e-6,-0.396402 -2e-6,-0.792804 -1e-6,-1.189206 3e-6,-0.417688 5e-6,-0.835377 5e-5,-1.253065 5.2e-5,-0.404284 1.49e-4,-0.808567 2.54e-4,-1.212851 3e-5,-0.384407 3.97e-4,-0.76882 -0.0022,-1.153221 -0.0032,-0.331519 -0.0091,-0.663017 -0.02495,-0.994211 -0.01558,-0.365152 -0.03703,-0.731855 0.01633,-1.095229 0.02066,-0.185944 0.283625,-0.156726 0.262965,0.02922 z"
       inkscape:connector-curvature="0"
       inkscape:export-xdpi="300"
       inkscape:export-ydpi="300" />
    <path
       style="fill:#000000;fill-opacity:1;stroke:none;stroke-width:1;stroke-miterlimit:4;stroke-dasharray:none;stroke-dashoffset:0;stroke-opacity:1"
       id="path881"
       d="m 21.70242,10.915998 c 0.101983,0.290563 0.237674,0.567226 0.36628,0.846476 0.08985,0.180042 0.169664,0.364081 0.271563,0.537798 0.02336,0.06086 0.05498,0.112084 0.08957,0.165855 0.101004,0.157481 -0.121709,0.300322 -0.222712,0.14284 v 0 c -0.03606,-0.05642 -0.07158,-0.111913 -0.09515,-0.174957 -0.106096,-0.181325 -0.190452,-0.372793 -0.2836,-0.560881 -0.131232,-0.285097 -0.269543,-0.567623 -0.373685,-0.86423 -0.06569,-0.175176 0.182046,-0.268078 0.247737,-0.0929 z"
       inkscape:connector-curvature="0"
       inkscape:export-xdpi="300"
       inkscape:export-ydpi="300" />
    <path
       style="fill:#000000;fill-opacity:1;stroke:none;stroke-width:1;stroke-miterlimit:4;stroke-dasharray:none;stroke-dashoffset:0;stroke-opacity:1"
       id="path883"
       d="m 19.563168,13.2798 c 0.176538,-0.426269 0.380403,-0.84011 0.617838,-1.235585 0.180686,-0.32879 0.416636,-0.615254 0.677715,-0.882007 0.107592,-0.124328 0.254286,-0.215507 0.345295,-0.353624 0.04503,-0.109475 0.139031,-0.143761 0.253343,-0.125756 0.182544,0.04099 0.124579,0.299143 -0.05796,0.258155 v 0 c 0.08509,-0.06074 0.07494,-0.07916 0.02344,0.01634 -0.103569,0.149515 -0.250324,0.259011 -0.375095,0.390027 -0.246893,0.251877 -0.469924,0.521937 -0.639964,0.833175 -0.227911,0.378718 -0.422317,0.775433 -0.593603,1.182949 -0.05916,0.177488 -0.310169,0.09382 -0.251006,-0.08367 z"
       inkscape:connector-curvature="0"
       inkscape:export-xdpi="300"
       inkscape:export-ydpi="300" />
    <path
       style="fill:#000000;fill-opacity:1;stroke:none;stroke-width:1;stroke-miterlimit:4;stroke-dasharray:none;stroke-dashoffset:0;stroke-opacity:1"
       id="path885"
       d="m 20.941524,51.448009 c 0.423757,-0.09121 0.857357,-0.124992 1.287361,-0.175085 0.48606,-0.05765 0.975398,-0.07472 1.464339,-0.08486 0.487733,-0.0072 0.975537,-0.0062 1.463309,-0.006 0.456283,-0.0047 0.911389,-0.0021 1.366713,0.02813 0.56021,0.04112 1.121897,0.05306 1.683366,0.06135 0.594506,0.0069 1.189062,0.0067 1.783599,0.0068 0.641657,-1.59e-4 1.283314,-5.29e-4 1.924971,-5.29e-4 0.740127,-1.22e-4 1.480251,-1.3e-4 2.220375,-1.4e-4 0.776459,-1.49e-4 1.552011,0.04642 2.328077,0.06853 0.871865,0.02122 1.74404,0.02363 2.616118,0.0258 0.793234,-0.0064 1.58561,0.03881 2.376376,0.0963 0.756528,0.06231 1.515811,0.06629 2.273744,0.09803 0.89208,0.04705 1.785118,0.06747 2.678248,0.07977 0.949428,0.01042 1.898933,0.01008 2.848406,0.01035 1.07778,-6.9e-5 2.155563,-5.29e-4 3.233346,-5.29e-4 1.186564,-1.64e-4 2.373127,-1.83e-4 3.559691,-1.98e-4 1.177245,-0.0027 2.353892,0.0443 3.530782,0.0685 1.094801,0.0205 2.189811,0.02365 3.284768,0.02582 1.095891,0.0013 2.191779,7.94e-4 3.28767,5.29e-4 1.100069,0.0042 2.19968,0.0035 3.299349,-0.02722 1.08418,-0.02125 2.167496,-0.06089 3.250954,-0.104246 0.935588,-0.02138 1.869834,-0.0752 2.804829,-0.112278 0.818856,-0.01593 1.636795,-0.04536 2.454934,-0.08228 0.732801,-0.03523 1.465985,-0.07518 2.197703,-0.129236 0.673225,-0.05122 1.347121,-0.08895 2.019112,-0.155403 0.736058,-0.0684 1.468522,-0.169063 2.203924,-0.243625 0.681249,-0.07793 1.363075,-0.151342 2.043774,-0.23385 0.507894,-0.05696 1.015714,-0.111363 1.523158,-0.172328 0.270296,-0.04894 0.549299,-0.02863 0.819534,-0.07113 0.163267,-0.0442 0.333484,-0.05046 0.498105,-0.08512 0.149143,-0.03392 0.298976,-0.06529 0.450762,-0.0846 0.07259,-0.0072 0.145503,-0.01103 0.218438,-0.0118 0.129214,-0.01836 0.04066,0.24384 -0.06375,0.274304 -0.175025,0.101386 -0.306917,0.261408 -0.447525,0.403492 -0.299407,0.309415 -0.621953,0.594173 -0.963718,0.855644 -0.232315,0.171789 -0.465021,0.342969 -0.693333,0.520073 -0.02704,0.02101 -0.05389,0.04224 -0.08058,0.06369 -0.145852,0.117171 -0.31156,-0.08909 -0.165706,-0.206266 v 0 c 0.02787,-0.02238 0.05589,-0.04457 0.08412,-0.06649 0.228819,-0.17748 0.461957,-0.349139 0.694838,-0.521229 0.332377,-0.253741 0.645329,-0.531008 0.93635,-0.83157 0.175619,-0.177326 0.342119,-0.385519 0.581924,-0.476437 0.02714,-0.0048 0.0687,-0.03873 0.08142,-0.01429 0.108103,0.207666 0.124087,0.265962 0.03859,0.263649 -0.06271,5.3e-4 -0.125397,0.0039 -0.187844,0.0097 -0.145386,0.01828 -0.288716,0.04928 -0.431591,0.08146 -0.169785,0.03323 -0.343418,0.04458 -0.51172,0.08751 -0.273656,0.03869 -0.553185,0.02745 -0.826764,0.0721 -0.507357,0.06093 -1.015085,0.115366 -1.522892,0.172297 -0.682421,0.08263 -1.365943,0.156377 -2.048917,0.234418 -0.735626,0.07453 -1.468297,0.175379 -2.20459,0.243692 -0.674177,0.06655 -1.350235,0.104727 -2.025653,0.155969 -0.73424,0.05412 -1.469925,0.09439 -2.205247,0.129683 -0.818618,0.03694 -1.637043,0.06644 -2.456378,0.08234 -0.934966,0.03706 -1.869178,0.0909 -2.804734,0.112275 -1.084522,0.04339 -2.168903,0.08307 -3.254148,0.104355 -1.102111,0.03077 -2.204167,0.03155 -3.30668,0.02733 -1.096081,2.25e-4 -2.192163,7.94e-4 -3.288242,-5.29e-4 -1.096597,-0.0021 -2.19325,-0.0053 -3.289689,-0.02588 -1.175078,-0.02418 -2.34991,-0.07109 -3.525337,-0.06845 -1.186553,1.6e-5 -2.373103,3.4e-5 -3.559654,1.98e-4 -1.077822,1.75e-4 -2.155645,5.29e-4 -3.233465,5.29e-4 -0.950663,-2.64e-4 -1.901356,8.5e-5 -2.851975,-0.01037 -0.895609,-0.01233 -1.791129,-0.03281 -2.685688,-0.07998 -0.760629,-0.03195 -1.522626,-0.0358 -2.281843,-0.09849 -0.784601,-0.05705 -1.570794,-0.101997 -2.357848,-0.0956 -0.874371,-0.0021 -1.74884,-0.0046 -2.622999,-0.0259 -0.773552,-0.02204 -1.546596,-0.06843 -2.320534,-0.06842 -0.740111,1e-5 -1.480219,1.8e-5 -2.220327,1.4e-4 -0.641689,1.24e-4 -1.283375,2.64e-4 -1.925061,5.29e-4 -0.595829,-8.5e-5 -1.191673,9e-5 -1.78747,-0.0068 -0.566002,-0.0084 -1.132215,-0.02048 -1.696947,-0.0619 -0.449545,-0.02981 -0.898868,-0.03204 -1.34937,-0.02755 -0.485898,-2.65e-4 -0.971829,-0.0013 -1.457689,0.0059 -0.48054,0.0099 -0.961485,0.02651 -1.439198,0.08313 -0.41872,0.04877 -0.840895,0.08176 -1.253805,0.168963 -0.181503,0.04538 -0.245674,-0.211307 -0.06417,-0.256683 z"
       inkscape:connector-curvature="0"
       inkscape:export-xdpi="300"
       inkscape:export-ydpi="300" />
    <path
       style="fill:#000000;fill-opacity:1;stroke:none;stroke-width:1;stroke-miterlimit:4;stroke-dasharray:none;stroke-dashoffset:0;stroke-opacity:1"
       id="path887"
       d="m 88.495496,49.239508 c 0.35325,0.1157 0.691068,0.26239 1.022805,0.42894 0.190505,0.08605 0.355039,0.215283 0.531593,0.32381 0.08476,0.04161 0.151757,0.109196 0.201906,0.188111 0.04207,0.0504 0.05988,0.116589 0.06009,0.186251 -0.0091,0.186864 -0.273383,0.173974 -0.264268,-0.01288 v 0 c 0.06666,0.07416 -0.01185,-0.0118 -0.0208,-0.03411 -0.0294,-0.04605 -0.06514,-0.08111 -0.116949,-0.10286 -0.16859,-0.106283 -0.328149,-0.22743 -0.510291,-0.311853 -0.320416,-0.16087 -0.646332,-0.303065 -0.987759,-0.414391 -0.177487,-0.05916 -0.09382,-0.310168 0.08367,-0.251005 z"
       inkscape:connector-curvature="0"
       inkscape:export-xdpi="300"
       inkscape:export-ydpi="300" />
    <path
       style="fill:#000000;fill-opacity:1;stroke:none;stroke-width:1;stroke-miterlimit:4;stroke-dasharray:none;stroke-dashoffset:0;stroke-opacity:1"
       id="path889"
       d="m 20.134466,46.552977 c 0.338058,0 0.676115,0 1.014173,0 0.168849,0 0.337698,0 0.506546,0 0.106329,-0.0049 0.205141,-0.0024 0.305248,0.03681 0.04801,0.02196 0.0942,0.04821 0.135577,0.08111 0.09811,0.07054 -0.108371,0.226263 -0.208137,0.191913 -0.173779,-0.0693 -0.07577,-0.315064 0.09801,-0.245761 v 0 c 0.24421,0.103386 -0.301696,-0.0753 -0.05651,0.259363 -0.02175,-0.01609 -0.04476,-0.0304 -0.06939,-0.04185 -0.06336,-0.02901 -0.134147,-0.01445 -0.2048,-0.01699 -0.168848,0 -0.337697,0 -0.506546,0 -0.338058,0 -0.676115,0 -1.014173,0 -0.187089,0 -0.187089,-0.264583 0,-0.264583 z"
       inkscape:connector-curvature="0"
       inkscape:export-xdpi="300"
       inkscape:export-ydpi="300" />
    <path
       style="fill:#000000;fill-opacity:1;stroke:none;stroke-width:1;stroke-miterlimit:4;stroke-dasharray:none;stroke-dashoffset:0;stroke-opacity:1"
       id="path891"
       d="m 16.62398,47.178465 c 0.26392,-0.246431 0.507413,-0.512723 0.75454,-0.77542 0.09812,-0.09694 0.192009,-0.201014 0.262346,-0.320373 0.327327,-0.144262 0.2624,0.188756 0.246606,0.321339 -0.03567,0.308835 -0.07924,0.616532 -0.117724,0.92506 -0.03485,0.302678 -0.05108,0.606988 -0.05914,0.911421 -0.002,0.106658 -0.0042,0.213346 -0.0032,0.320029 6.88e-4,0.05134 0.0086,-0.0075 -0.0464,0.12187 -0.127821,0.136617 -0.321025,-0.04415 -0.193204,-0.180766 v 0 c -0.03801,0.134355 -0.02229,0.102809 -0.02497,0.06114 -9.26e-4,-0.109773 0.0012,-0.219551 0.0033,-0.3293 0.0083,-0.313039 0.02511,-0.625951 0.06109,-0.937173 0.03859,-0.308811 0.08224,-0.616773 0.117833,-0.925914 0.03168,-0.224774 -0.07952,-0.220827 0.263104,-0.191638 0.01469,0.0013 -0.03884,0.04229 -0.02002,0.03944 -0.08125,0.135192 -0.184378,0.256101 -0.29693,0.366207 -0.253724,0.269425 -0.503393,0.542936 -0.775017,0.794965 -0.142049,0.121756 -0.314237,-0.07913 -0.172189,-0.200885 z"
       inkscape:connector-curvature="0"
       inkscape:export-xdpi="300"
       inkscape:export-ydpi="300" />
    <path
       style="fill:#000000;fill-opacity:1;stroke:none;stroke-width:1;stroke-miterlimit:4;stroke-dasharray:none;stroke-dashoffset:0;stroke-opacity:1"
       id="path893"
       d="m 20.308845,16.209892 c 0.386393,-0.02804 0.769705,-0.08397 1.154273,-0.129376 0.171701,-0.01857 0.34358,-0.0361 0.515879,-0.04817 0.06507,-0.0077 0.08306,0.0085 0.153359,0.0414 0.02705,0.03416 0.06545,0.03655 0.115132,0.04307 0.04552,0.0055 0.0913,0.0084 0.13712,0.0097 0.01114,-2.55e-4 0.0033,-0.0012 -9.53e-4,3.44e-4 0.186213,-0.01808 0.211778,0.245269 0.02556,0.263346 v 0 c -0.01009,5.82e-4 -0.02016,0.0013 -0.03027,8.2e-4 -0.05705,-0.0013 -0.114026,-0.0056 -0.170662,-0.0126 -0.09108,-0.01459 -0.178906,-0.03606 -0.246663,-0.102612 0.06227,0.01899 0.08587,0.01853 0.03584,0.02041 -0.168109,0.01174 -0.335798,0.02894 -0.503327,0.04699 -0.385163,0.04546 -0.769085,0.101468 -1.156072,0.129582 -0.185945,0.02066 -0.215163,-0.242305 -0.02922,-0.262965 z"
       inkscape:connector-curvature="0"
       inkscape:export-xdpi="300"
       inkscape:export-ydpi="300" />
    <path
       style="fill:#000000;fill-opacity:1;stroke:none;stroke-width:1;stroke-miterlimit:4;stroke-dasharray:none;stroke-dashoffset:0;stroke-opacity:1"
       id="path895"
       d="m 14.600527,15.318617 c 0.05204,0.407895 0.03264,0.818432 0.01619,1.227781 -0.01016,0.221028 -0.01863,0.442126 -0.02501,0.663295 -8.2e-4,0.02982 -0.0018,0.06376 -0.0021,0.09251 0.0015,0.03428 8.2e-4,0.06864 6.88e-4,0.102949 -2.18e-4,0.04816 -2.91e-4,0.09632 -3.44e-4,0.144484 -1.8e-5,0.01074 -2.5e-5,0.02147 -3.3e-5,0.03221 0,9e-5 10e-7,1.8e-4 10e-7,2.65e-4 -0.09271,-0.0032 -0.185411,-0.0064 -0.278117,-0.0096 -0.06807,-0.174265 0.178373,-0.270537 0.246447,-0.09627 v 0 c -0.07764,0.03539 -0.155275,0.07077 -0.232913,0.106159 -10e-7,-1.93e-4 -10e-7,-3.97e-4 -10e-7,-5.82e-4 7e-6,-0.01087 1.5e-5,-0.02174 3.3e-5,-0.03261 6.9e-5,-0.04842 1.31e-4,-0.09683 3.44e-4,-0.145249 1.43e-4,-0.03321 8.2e-4,-0.06646 -6.88e-4,-0.09964 1.44e-4,-0.03411 0.0015,-0.0682 0.0022,-0.102299 0.0064,-0.222168 0.01491,-0.444265 0.02511,-0.666291 0.01596,-0.397033 0.03572,-0.795204 -0.01509,-1.19083 -0.01862,-0.18616 0.244655,-0.212487 0.263271,-0.02633 z"
       inkscape:connector-curvature="0"
       inkscape:export-xdpi="300"
       inkscape:export-ydpi="300" />
    <path
       style="fill:#000000;fill-opacity:1;stroke:none;stroke-width:1;stroke-miterlimit:4;stroke-dasharray:none;stroke-dashoffset:0;stroke-opacity:1"
       id="path897"
       d="m 13.514878,16.094018 c 0.198523,-0.170044 0.414739,-0.320783 0.606713,-0.498282 0.09909,-0.08384 0.193061,-0.173372 0.271841,-0.276825 0.04447,-0.05652 0.09005,-0.112174 0.136284,-0.16726 0.07422,-0.08797 0.02043,-0.02348 0.247697,0.110918 -0.01165,0.186726 -0.275719,0.170251 -0.26407,-0.01648 v 0 c 0.241603,0.06286 0.281919,0.0014 0.219018,0.07567 -0.04369,0.05204 -0.08674,0.104611 -0.128824,0.157955 -0.08862,0.115321 -0.192262,0.217282 -0.303212,0.3111 -0.201427,0.183178 -0.423172,0.343501 -0.631662,0.518497 -0.15224,0.108743 -0.306026,-0.106557 -0.153785,-0.2153 z"
       inkscape:connector-curvature="0"
       inkscape:export-xdpi="300"
       inkscape:export-ydpi="300" />
    <path
       style="fill:#000000;fill-opacity:1;stroke:none;stroke-width:1;stroke-miterlimit:4;stroke-dasharray:none;stroke-dashoffset:0;stroke-opacity:1"
       id="path899"
       d="m 15.900726,15.758089 c -0.20156,0.22107 -0.386867,0.457188 -0.558954,0.701805 -0.115624,0.165578 -0.160082,0.353876 -0.179996,0.55106 -0.0037,0.161825 0.05429,0.267848 0.167317,0.375142 0.138217,0.108013 0.3151,0.140143 0.486875,0.136023 0.208365,-0.03303 0.355017,-0.162372 0.473141,-0.327987 0.154465,-0.213177 0.248004,-0.461671 0.324967,-0.711499 0.04668,-0.150767 0.07744,-0.302361 0.04887,-0.458347 -0.01227,-0.104783 -0.07979,-0.145091 -0.162019,-0.194356 -0.125367,-0.06437 -0.266866,-0.08052 -0.40524,-0.0934 -0.132011,-0.009 -0.264416,-0.0091 -0.396669,-0.0089 -0.03461,1.99e-4 -0.06922,2.91e-4 -0.103817,0.0011 -0.0021,1.15e-4 0.0018,-8.9e-5 0.0027,-1.33e-4 -0.186629,0.0131 -0.205158,-0.250832 -0.01853,-0.263934 v 0 c 0.0029,-1.38e-4 0.0057,-3.7e-4 0.0086,-4.23e-4 0.03688,-8.47e-4 0.07376,-10e-4 0.110648,-0.0012 0.140743,-2.43e-4 0.281656,4e-6 0.422113,0.01005 0.177935,0.01714 0.357876,0.04262 0.516821,0.130187 0.146146,0.08849 0.26067,0.197665 0.286164,0.375845 0.03291,0.198279 0.0044,0.390647 -0.05685,0.58177 -0.08638,0.277452 -0.191639,0.55275 -0.364058,0.789285 -0.17267,0.232111 -0.387986,0.403902 -0.685296,0.436485 -0.242654,-0.0017 -0.483,-0.04895 -0.672685,-0.210787 -0.168658,-0.166475 -0.256443,-0.350372 -0.246162,-0.592298 0.02572,-0.242074 0.08504,-0.473407 0.226915,-0.676183 0.181263,-0.256627 0.375255,-0.505153 0.588114,-0.736445 0.132291,-0.132291 0.31938,0.0548 0.187089,0.187089 z"
       inkscape:connector-curvature="0"
       inkscape:export-xdpi="300"
       inkscape:export-ydpi="300" />
    <path
       style="fill:#000000;fill-opacity:1;stroke:none;stroke-width:1;stroke-miterlimit:4;stroke-dasharray:none;stroke-dashoffset:0;stroke-opacity:1"
       id="path901"
       d="m 18.175481,15.383966 c -0.213007,0.283262 -0.390558,0.589334 -0.524725,0.917108 -0.04265,0.180649 -0.171444,0.412063 -0.09875,0.600005 0.0414,0.129691 0.157061,0.134367 0.275899,0.153311 0.202422,0.0068 0.390726,-0.05282 0.574058,-0.131148 0.143004,-0.06491 0.247344,-0.16937 0.333288,-0.297135 0.0791,-0.131012 0.102558,-0.282234 0.118367,-0.43185 0.01809,-0.105436 -0.02028,-0.178476 -0.08459,-0.256663 -0.07481,-0.0644 -0.171038,-0.09059 -0.266573,-0.105392 -0.118186,-0.01802 -0.231529,-0.01034 -0.347493,0.01363 -0.183291,0.0375 -0.236328,-0.22171 -0.05304,-0.259214 v 0 c 0.147758,-0.02997 0.293877,-0.03838 0.443718,-0.01545 0.160685,0.02773 0.314974,0.08041 0.430409,0.201668 0.103836,0.133226 0.16628,0.276612 0.140621,0.44984 -0.0212,0.192667 -0.05696,0.385038 -0.162285,0.551704 -0.115343,0.169633 -0.259265,0.306377 -0.448665,0.392252 -0.229885,0.09781 -0.468328,0.16653 -0.721425,0.148723 -0.221034,-0.03824 -0.416551,-0.10767 -0.487017,-0.342731 -0.06288,-0.262342 0.02242,-0.523153 0.108788,-0.772198 0.145939,-0.353238 0.336355,-0.684464 0.568531,-0.988648 0.121756,-0.142049 0.322642,0.03014 0.200886,0.172188 z"
       inkscape:connector-curvature="0"
       inkscape:export-xdpi="300"
       inkscape:export-ydpi="300" />
    <path
       style="fill:#000000;fill-opacity:1;stroke:none;stroke-width:1;stroke-miterlimit:4;stroke-dasharray:none;stroke-dashoffset:0;stroke-opacity:1"
       id="path903"
       d="m 20.606936,31.055953 c 0.305953,-0.02313 0.611276,-0.0476 0.913325,-0.102175 0.151845,-0.03118 0.303063,-0.06437 0.457388,-0.0804 0.04423,-0.0042 0.08859,-0.0071 0.133022,-0.0074 0.07748,0.0057 0.04332,-0.01709 -0.131727,0.112045 -0.01713,-0.186303 0.246342,-0.210529 0.263472,-0.02424 v 0 c -0.148429,0.181287 -0.219654,0.171563 -0.134693,0.176744 -0.03439,5.29e-4 -0.06873,0.0026 -0.102979,0.006 -0.147698,0.01506 -0.292093,0.04859 -0.437524,0.07759 -0.317529,0.05716 -0.638565,0.08371 -0.960284,0.106376 -0.187089,0 -0.187089,-0.264584 0,-0.264584 z"
       inkscape:connector-curvature="0"
       inkscape:export-xdpi="300"
       inkscape:export-ydpi="300" />
    <path
       style="fill:#000000;fill-opacity:1;stroke:none;stroke-width:1;stroke-miterlimit:4;stroke-dasharray:none;stroke-dashoffset:0;stroke-opacity:1"
       id="path905"
       d="m 15.734303,30.04694 c 0.05218,0.380439 0.03325,0.763876 0.01632,1.145911 -0.01085,0.239519 -0.01933,0.479139 -0.02497,0.718835 -0.0013,0.06931 -0.0022,0.138634 -0.0021,0.20796 0.0056,0.117901 -0.290463,-0.108003 -0.26661,0.03246 -0.128106,-0.136348 0.06472,-0.317518 0.192826,-0.181168 v 0 c 0.106659,0.158038 0.09452,0.07995 -0.190622,0.166812 -0.0057,0.0019 0.0053,-0.02016 -1.77e-4,-0.01778 -8.4e-5,-0.07151 8.99e-4,-0.143013 0.0022,-0.214509 0.0057,-0.24153 0.01422,-0.482981 0.02516,-0.724331 0.01634,-0.36839 0.03567,-0.738116 -0.01496,-1.104974 -0.02066,-0.185944 0.242304,-0.215162 0.262965,-0.02922 z"
       inkscape:connector-curvature="0"
       inkscape:export-xdpi="300"
       inkscape:export-ydpi="300" />
    <path
       style="fill:#000000;fill-opacity:1;stroke:none;stroke-width:1;stroke-miterlimit:4;stroke-dasharray:none;stroke-dashoffset:0;stroke-opacity:1"
       id="path907"
       d="m 14.973419,30.370772 c 0.139544,-0.197266 0.286558,-0.389136 0.434219,-0.580359 0.02822,-0.03613 0.05603,-0.0726 0.08495,-0.108177 0.0015,-0.0016 0.003,-0.0034 0.0044,-0.0051 0.125301,-0.13893 0.321779,0.03827 0.196477,0.177205 v 0 c 9.53e-4,-0.0011 0.0019,-0.0021 0.0029,-0.0034 -0.02682,0.03342 -0.05309,0.06727 -0.07933,0.10114 -0.145654,0.188619 -0.290702,0.377849 -0.428333,0.572434 -0.108743,0.152241 -0.324043,-0.0016 -0.2153,-0.153784 z"
       inkscape:connector-curvature="0"
       inkscape:export-xdpi="300"
       inkscape:export-ydpi="300" />
    <path
       style="fill:#000000;fill-opacity:1;stroke:none;stroke-width:1;stroke-miterlimit:4;stroke-dasharray:none;stroke-dashoffset:0;stroke-opacity:1"
       id="path909"
       d="m 17.696112,29.837702 c -0.230379,0.189598 -0.438941,0.39913 -0.625846,0.631233 -0.124231,0.152397 -0.176407,0.330795 -0.204199,0.521208 -0.01854,0.117292 -0.01625,0.225615 0.02383,0.336695 0.01968,0.0615 0.05321,0.07332 0.110522,0.08575 0.142911,0.03114 0.278403,-0.0019 0.408837,-0.06128 0.185047,-0.09697 0.353118,-0.211596 0.500703,-0.359172 0.119715,-0.134274 0.206638,-0.287089 0.25825,-0.458859 0.0381,-0.148447 0.03417,-0.296564 0.009,-0.445932 -0.02543,-0.160917 -0.07463,-0.320624 -0.166578,-0.456271 -0.04472,-0.06907 -0.108609,-0.09383 -0.186473,-0.103838 -0.122326,-0.0053 -0.247253,0.04672 -0.353709,0.103531 -0.09986,0.06637 -0.198636,0.133599 -0.294296,0.205941 -0.149342,0.112692 -0.308711,-0.09851 -0.15937,-0.211201 v 0 c 0.107904,-0.08126 0.2188,-0.157771 0.332893,-0.23015 0.158897,-0.07936 0.334376,-0.148569 0.515273,-0.129543 0.151298,0.0258 0.280746,0.08886 0.367717,0.221369 0.106785,0.169566 0.177146,0.357844 0.205561,0.556874 0.0311,0.190119 0.03325,0.379542 -0.01723,0.567335 -0.06694,0.212236 -0.172908,0.403755 -0.324471,0.568349 -0.17154,0.169789 -0.365928,0.304197 -0.581215,0.413965 -0.187469,0.07979 -0.381243,0.122772 -0.583846,0.07432 -0.137925,-0.04065 -0.243345,-0.111972 -0.291212,-0.253543 -0.05239,-0.152061 -0.06124,-0.303985 -0.0359,-0.463206 0.03566,-0.236762 0.106369,-0.459139 0.259917,-0.64839 0.192961,-0.239176 0.40661,-0.457325 0.644753,-0.65228 0.132292,-0.132292 0.319381,0.0548 0.187089,0.187089 z"
       inkscape:connector-curvature="0"
       inkscape:export-xdpi="300"
       inkscape:export-ydpi="300" />
    <path
       style="fill:#000000;fill-opacity:1;stroke:none;stroke-width:1;stroke-miterlimit:4;stroke-dasharray:none;stroke-dashoffset:0;stroke-opacity:1"
       id="path911"
       d="m 20.56844,53.368894 c -0.234203,0.114515 -0.470174,0.226288 -0.696982,0.355227 -0.110048,0.07017 -0.23091,0.140925 -0.311769,0.245896 -0.03805,0.07895 0.01784,0.171514 0.05345,0.243451 0.08801,0.134432 0.226937,0.205984 0.367699,0.273352 0.155707,0.07552 0.311012,0.07418 0.477619,0.053 0.141148,-0.03996 0.264513,-0.118999 0.361016,-0.22859 0.07991,-0.113554 0.102225,-0.251251 0.117088,-0.386204 -0.0138,-0.0928 -0.06533,-0.170455 -0.125021,-0.240612 -0.07045,-0.08503 -0.162651,-0.122328 -0.267974,-0.141476 -0.113964,-0.02818 -0.219701,0.0076 -0.329853,0.03476 -0.01524,-0.0048 -0.199342,0.110204 -0.123508,0.05944 -0.118176,0.145039 -0.323293,-0.02209 -0.205117,-0.167127 v 0 c 0.07513,-0.0717 0.166855,-0.115871 0.265331,-0.149211 0.146641,-0.03611 0.292826,-0.07445 0.444045,-0.0375 0.164536,0.03382 0.310189,0.09954 0.420273,0.231664 0.104897,0.127529 0.184541,0.270002 0.184751,0.439629 -0.02185,0.191114 -0.06278,0.3806 -0.184876,0.535321 -0.143166,0.152439 -0.31648,0.266829 -0.523388,0.312457 -0.216878,0.02663 -0.424397,0.01963 -0.625559,-0.07735 -0.194609,-0.09489 -0.37984,-0.203232 -0.491082,-0.397116 -0.08144,-0.173603 -0.138269,-0.353983 -0.01847,-0.526883 0.107984,-0.125241 0.242055,-0.224261 0.384883,-0.307081 0.23111,-0.130635 0.470547,-0.245634 0.709119,-0.361696 0.167337,-0.08367 0.285662,0.152982 0.118325,0.236651 z"
       inkscape:connector-curvature="0"
       inkscape:export-xdpi="300"
       inkscape:export-ydpi="300" />
    <path
       style="fill:#000000;fill-opacity:1;stroke:none;stroke-width:1;stroke-miterlimit:4;stroke-dasharray:none;stroke-dashoffset:0;stroke-opacity:1"
       id="path913"
       d="m 51.91503,51.417203 c 0,0.284327 0,0.568654 0,0.85298 0,0.08861 0,0.177223 0,0.265832 -3.2e-5,0.101534 0.0053,0.01386 -0.264583,-0.0288 0,-0.187087 0.264583,-0.187087 0.264583,0 v 0 c -0.269936,0.04267 -0.264554,0.130339 -0.264583,0.0288 0,-0.08861 0,-0.17722 0,-0.265832 0,-0.284326 0,-0.568653 0,-0.85298 0,-0.187089 0.264583,-0.187089 0.264583,0 z"
       inkscape:connector-curvature="0"
       inkscape:export-xdpi="300"
       inkscape:export-ydpi="300" />
    <path
       style="fill:#000000;fill-opacity:1;stroke:none;stroke-width:1;stroke-miterlimit:4;stroke-dasharray:none;stroke-dashoffset:0;stroke-opacity:1"
       id="path915"
       d="m 51.629905,54.112257 c -0.26715,0.0714 -0.522669,0.165034 -0.754851,0.316283 -0.05568,0.0382 -0.115028,0.08137 -0.151525,0.140229 -0.01452,0.02342 0.01976,-0.02805 0.02265,-0.03994 0.201157,0.09057 0.423066,0.127712 0.634545,0.189037 0.243914,0.06202 0.475567,0.159329 0.667837,0.323178 0.151755,0.124528 0.180382,0.28353 0.174662,0.468667 -0.03056,0.220204 -0.189529,0.365463 -0.360439,0.489238 -0.20239,0.129156 -0.427249,0.17045 -0.662715,0.182753 -0.242933,0.02315 -0.423357,-0.0767 -0.561941,-0.269409 -0.105523,-0.154488 0.112959,-0.303721 0.21848,-0.149231 v 0 c 0.07752,0.125614 0.181578,0.170114 0.330166,0.15439 0.185314,-0.0089 0.360986,-0.03476 0.522433,-0.133953 0.103214,-0.072 0.214325,-0.155872 0.249586,-0.282771 0.0042,-0.109956 0.01058,-0.183563 -0.08328,-0.25954 -0.160644,-0.141746 -0.363712,-0.215011 -0.568679,-0.269267 -0.260149,-0.07591 -0.553974,-0.104389 -0.769112,-0.280154 -0.01902,-0.03286 -0.04762,-0.06181 -0.05706,-0.09859 -0.04513,-0.175988 0.13041,-0.299845 0.250822,-0.386879 0.257593,-0.165222 0.538414,-0.273312 0.834242,-0.350719 0.181504,-0.04538 0.245673,0.211307 0.06417,0.256683 z"
       inkscape:connector-curvature="0"
       inkscape:export-xdpi="300"
       inkscape:export-ydpi="300" />
    <path
       style="fill:#000000;fill-opacity:1;stroke:none;stroke-width:1;stroke-miterlimit:4;stroke-dasharray:none;stroke-dashoffset:0;stroke-opacity:1"
       id="path917"
       d="m 51.527273,53.572092 c 0.3351,0.04544 0.673994,0.05453 1.011671,0.06385 0.122063,0.0024 0.244155,0.0056 0.366255,0.0049 0.003,-5.8e-5 0.006,-8e-5 0.0091,-1.22e-4 0.186613,-0.01333 0.20546,0.250584 0.01884,0.263911 v 0 c -0.0088,2.65e-4 -0.0177,0.0011 -0.02656,7.94e-4 -0.124986,5.29e-4 -0.249965,-0.0024 -0.374914,-0.0051 -0.356714,-0.0099 -0.715145,-0.0186 -1.068536,-0.07165 -0.181501,-0.04538 -0.117332,-0.302059 0.06417,-0.256682 z"
       inkscape:connector-curvature="0"
       inkscape:export-xdpi="300"
       inkscape:export-ydpi="300" />
    <path
       style="fill:#000000;fill-opacity:1;stroke:none;stroke-width:1;stroke-miterlimit:4;stroke-dasharray:none;stroke-dashoffset:0;stroke-opacity:1"
       id="path919"
       d="m 78.001563,51.252191 c 0.233069,-0.08783 0.458012,-0.194763 0.690028,-0.285499 0.107558,-0.0356 0.07504,-0.02371 0.134268,-0.09057 0.03298,-0.02209 0.05627,-0.07648 0.120801,-0.119557 0.03549,-0.02 0.07353,-0.03499 0.113318,-0.04361 0.227372,-0.02209 0.160589,0.266054 0.136509,0.371271 -0.02761,0.20107 -0.06604,0.399373 -0.106031,0.598337 -0.0259,0.125714 -0.04498,0.252859 -0.0535,0.380941 -0.0021,0.03219 -0.003,0.06443 -0.0029,0.09667 6.1e-5,-0.0024 -2.64e-4,-0.0045 -5.29e-4,-0.0067 -0.08841,0.01688 -0.176818,0.03378 -0.265226,0.05067 -0.100555,-0.157768 0.122565,-0.299971 0.223118,-0.142203 v 0 c -0.233183,0.126866 -0.215244,0.202534 -0.221959,0.104982 -5.29e-4,-0.04041 0.0011,-0.0808 0.0034,-0.121142 0.0095,-0.139621 0.02976,-0.278281 0.0581,-0.415335 0.04054,-0.201422 0.07863,-0.402135 0.107591,-0.605557 0.0074,-0.03196 0.02008,-0.06293 0.02371,-0.09554 0.0016,-0.01365 -0.01384,-0.0455 -7.93e-4,-0.04123 0.158776,0.05187 0.08366,0.09527 0.150783,0.08423 -1.61e-4,4.5e-5 -0.0217,0.0061 -0.02712,0.0097 0.01886,-0.05788 -0.04538,0.08406 -0.07998,0.08864 0.02738,-0.05392 -0.05615,0.06544 -0.05625,0.06552 -0.0488,0.03943 -0.103489,0.05578 -0.161086,0.077 -0.233172,0.09113 -0.45906,0.198999 -0.693467,0.286814 -0.175176,0.06569 -0.268079,-0.182047 -0.0929,-0.247737 z"
       inkscape:connector-curvature="0"
       inkscape:export-xdpi="300"
       inkscape:export-ydpi="300" />
    <path
       style="fill:#000000;fill-opacity:1;stroke:none;stroke-width:1;stroke-miterlimit:4;stroke-dasharray:none;stroke-dashoffset:0;stroke-opacity:1"
       id="path921"
       d="m 76.654982,54.548563 c 0.299659,-0.221073 0.597294,-0.444738 0.897882,-0.664472 0.145836,-0.08614 0.264342,-0.217887 0.417994,-0.289637 0.04648,0.0096 0.09958,0.003 0.139435,0.02879 0.148273,0.09586 0.02146,0.401013 -0.0096,0.52184 -0.06833,0.250351 -0.163145,0.491831 -0.236852,0.740495 -0.03228,0.113641 -0.05002,0.23023 -0.05809,0.347869 0.02103,0.115231 -0.139295,-0.0324 -0.110058,-0.103757 0.168063,-0.0822 0.284316,0.155472 0.116255,0.237675 v 0 c -0.03004,0.01188 -0.05949,0.04596 -0.0901,0.03567 -0.189952,-0.06386 -0.185724,-0.07805 -0.180036,-0.187981 0.0097,-0.136869 0.03057,-0.272571 0.06838,-0.40473 0.07291,-0.245547 0.165854,-0.484185 0.234264,-0.731134 0.02254,-0.08766 0.03559,-0.189323 0.06431,-0.274743 0.0075,-0.02222 0.136748,0.16311 0.152662,0.03862 0.0185,-0.02249 0.01011,-0.01087 -0.03301,0.02183 -0.07246,0.05494 -0.145489,0.109161 -0.219401,0.162128 -0.03319,0.02379 -0.06669,0.04714 -0.100039,0.07071 -0.305829,0.223374 -0.607996,0.451646 -0.913751,0.675209 -0.158652,0.09915 -0.298879,-0.125212 -0.14023,-0.224367 z"
       inkscape:connector-curvature="0"
       inkscape:export-xdpi="300"
       inkscape:export-ydpi="300" />
    <path
       style="fill:#000000;fill-opacity:1;stroke:none;stroke-width:1;stroke-miterlimit:4;stroke-dasharray:none;stroke-dashoffset:0;stroke-opacity:1"
       id="path923"
       d="m 80.205134,53.941019 c -0.304725,0.190622 -0.588105,0.417359 -0.82337,0.689575 -0.122618,0.187775 -0.281612,0.38585 -0.305808,0.616747 0.03385,0.09992 0.221893,0.05723 0.302329,0.04666 0.312013,-0.06487 0.556234,-0.266443 0.77288,-0.488796 0.1827,-0.206127 0.32957,-0.435229 0.355608,-0.712629 -0.0095,-0.175549 -0.175258,-0.27114 -0.312836,-0.35279 -0.106719,-0.05809 -0.224226,-0.08185 -0.342704,-0.10101 -0.184563,-0.03064 -0.14124,-0.291648 0.04332,-0.261014 v 0 c 0.151387,0.02566 0.300789,0.05897 0.436089,0.135493 0.230238,0.140753 0.443788,0.312057 0.439237,0.607203 -0.03876,0.337333 -0.202062,0.620122 -0.429868,0.870058 -0.261496,0.264853 -0.556707,0.497443 -0.932656,0.566465 -0.271198,0.02609 -0.585711,-0.0099 -0.59313,-0.348398 0.04831,-0.281122 0.200443,-0.525097 0.368168,-0.75193 0.254859,-0.289774 0.554103,-0.536877 0.882509,-0.74 0.158652,-0.09916 0.298882,0.125212 0.140229,0.224367 z"
       inkscape:connector-curvature="0"
       inkscape:export-xdpi="300"
       inkscape:export-ydpi="300" />
    <path
       style="fill:#000000;fill-opacity:1;stroke:none;stroke-width:1;stroke-miterlimit:4;stroke-dasharray:none;stroke-dashoffset:0;stroke-opacity:1"
       id="path925"
       d="m 79.916239,14.962893 c 0.166502,-0.159337 0.331523,-0.334096 0.541856,-0.434985 0.311901,-0.04395 0.288798,0.213329 0.159147,0.393952 -0.13017,0.134505 -0.290648,0.209743 -0.473366,0.238729 -0.237821,-0.0017 -0.351566,-0.09378 -0.392301,-0.32846 0.01746,-0.270435 0.203512,-0.423408 0.425633,-0.543472 0.205734,-0.0813 0.369316,-0.166919 0.588354,-0.09392 0.189211,0.122397 0.116266,0.323401 0.01624,0.476966 -0.08455,0.120204 -0.217784,0.167588 -0.355214,0.197537 -0.03981,0.0078 -0.08014,0.01346 -0.120705,0.01053 -0.186053,-0.01965 -0.158263,-0.28277 0.02779,-0.26312 v 0 c -0.03043,-5.82e-4 0.03603,-0.0017 0.0376,-0.0061 0.071,-0.01476 0.147246,-0.02796 0.192862,-0.08922 0.03936,-0.04992 0.04732,-0.122352 0.09185,-0.08572 0.01902,-0.02545 -0.06434,-0.0056 -0.09533,0.0015 -0.08908,0.02024 -0.175612,0.04884 -0.259414,0.08533 -0.126603,0.06555 -0.246332,0.135822 -0.286514,0.282277 -0.01498,0.06997 0.02596,0.0854 0.08944,0.09436 0.115898,-0.01646 0.213347,-0.05871 0.302366,-0.137162 0.08993,-0.104344 0.03668,0.07895 0.162605,0.0062 -0.184251,0.07947 -0.318371,0.252494 -0.465815,0.381921 -0.132292,0.132292 -0.319378,-0.0548 -0.187087,-0.187089 z"
       inkscape:connector-curvature="0"
       inkscape:export-xdpi="300"
       inkscape:export-ydpi="300" />
    <path
       style="fill:#000000;fill-opacity:1;stroke:none;stroke-width:1;stroke-miterlimit:4;stroke-dasharray:none;stroke-dashoffset:0;stroke-opacity:1"
       id="path927"
       d="m 22.075452,49.55813 c 0.3341,-0.08954 0.637846,-0.254124 0.940291,-0.41702 0.371486,-0.230741 0.746607,-0.455983 1.113184,-0.694479 0.463235,-0.292121 0.936745,-0.566817 1.414144,-0.8349 0.574422,-0.298906 1.137663,-0.618385 1.702194,-0.935361 0.658995,-0.376663 1.32163,-0.747043 1.987949,-1.110599 0.694994,-0.370668 1.386195,-0.748424 2.072656,-1.134671 0.697854,-0.397563 1.409631,-0.76967 2.123832,-1.136769 0.777115,-0.409786 1.548455,-0.829768 2.318631,-1.25241 0.727307,-0.393134 1.451403,-0.792221 2.171057,-1.199198 0.713375,-0.424762 1.424223,-0.853569 2.149326,-1.258099 0.761117,-0.447397 1.542206,-0.85897 2.313559,-1.287978 0.779098,-0.441082 1.568252,-0.863751 2.359271,-1.282907 0.94188,-0.499427 1.873973,-1.016484 2.798617,-1.547045 0.930257,-0.531362 1.835275,-1.105175 2.732411,-1.690248 0.843764,-0.55762 1.706388,-1.08563 2.571141,-1.609778 0.826744,-0.493263 1.650688,-0.99155 2.48621,-1.469885 0.963785,-0.531302 1.932557,-1.053584 2.904821,-1.569193 0.993447,-0.551466 1.971701,-1.13011 2.94931,-1.709095 0.697461,-0.405222 1.367965,-0.853411 2.048465,-1.285763 0.603393,-0.389604 1.212181,-0.769932 1.836735,-1.124692 0.695047,-0.401429 1.393984,-0.796523 2.075331,-1.221004 0.460211,-0.272029 0.874014,-0.610654 1.285401,-0.949518 0.45343,-0.371796 0.956112,-0.677592 1.452539,-0.987564 0.432602,-0.25433 0.849958,-0.532603 1.272228,-0.803298 0.449122,-0.310235 0.898914,-0.6186 1.358207,-0.913649 0.571166,-0.341325 1.149241,-0.670714 1.721556,-1.01041 0.368744,-0.21566 0.71877,-0.459325 1.062463,-0.712202 0.451782,-0.33884 0.936236,-0.629657 1.418839,-0.921575 0.499846,-0.283326 0.99223,-0.579559 1.484379,-0.875965 0.263789,-0.169098 0.529965,-0.334334 0.803002,-0.488117 0.402162,-0.250743 0.818909,-0.47702 1.239266,-0.695506 0.443373,-0.229586 0.899983,-0.432915 1.334585,-0.67909 0.27849,-0.159255 0.567865,-0.297895 0.853239,-0.44419 0.40422,-0.21816 0.816414,-0.420368 1.234734,-0.610055 0.54334,-0.241092 1.075322,-0.505709 1.600872,-0.783193 0.332221,-0.191765 0.659558,-0.390739 0.998,-0.571658 0.43788,-0.211314 0.884719,-0.403598 1.332256,-0.593507 0.301927,-0.118758 0.600089,-0.247073 0.894411,-0.383559 0.15911,-0.07588 0.06536,-0.06448 0.267041,0.151309 -0.0028,0.03697 -0.0021,-0.0069 -0.003,-0.01371 0.04503,0.181587 -0.211768,0.245278 -0.256805,0.06369 v 0 c -0.0074,-0.04561 -0.0063,-0.0887 0.0086,-0.133183 0.25205,0.143759 0.251127,0.09366 0.09542,0.171931 -0.296966,0.137673 -0.597728,0.267275 -0.902353,0.387084 -0.44028,0.186828 -0.879814,0.376051 -1.310897,0.583291 -0.338868,0.181078 -0.666239,0.380869 -0.999183,0.572289 -0.530262,0.279939 -1.06702,0.546897 -1.615186,0.790205 -0.414531,0.187763 -0.822751,0.388407 -1.223251,0.604514 -0.282141,0.144638 -0.568261,0.281644 -0.843637,0.439015 -0.437565,0.247356 -0.896358,0.453232 -1.34289,0.683597 -0.417785,0.217031 -0.831757,0.442173 -1.231453,0.691277 -0.270835,0.152436 -0.534604,0.316664 -0.796314,0.484221 -0.492016,0.29629 -0.984205,0.592525 -1.483939,0.8757 -0.475787,0.28779 -0.953585,0.574225 -1.398974,0.9083 -0.350705,0.258034 -0.70802,0.506472 -1.08422,0.72661 -0.569637,0.338105 -1.14491,0.666112 -1.713603,1.005498 -0.459378,0.29508 -0.909045,0.603775 -1.358424,0.913788 -0.423169,0.271225 -0.84138,0.550107 -1.274879,0.804975 -0.486637,0.303852 -0.979746,0.603185 -1.42445,0.967358 -0.420373,0.346267 -0.843648,0.69168 -1.313736,0.969878 -0.684469,0.426239 -1.386319,0.823416 -2.084551,1.226491 -0.620808,0.352521 -1.225749,0.730775 -1.825514,1.117946 -0.682834,0.433828 -1.355662,0.883506 -2.055524,1.290094 -0.981184,0.581097 -1.963002,1.161883 -2.960177,1.715191 -0.969751,0.514268 -1.936001,1.035224 -2.897336,1.565068 -0.833649,0.477168 -1.655627,0.974453 -2.480511,1.466528 -0.862266,0.522639 -1.722429,1.049096 -2.563757,1.605134 -0.901361,0.58779 -1.810633,1.16427 -2.745261,1.698114 -0.927224,0.532027 -1.86191,1.050531 -2.806411,1.551345 -0.78944,0.418319 -1.577023,0.840134 -2.354559,1.280348 -0.771282,0.4289 -1.552215,0.840515 -2.313257,1.287812 -0.724684,0.404227 -1.434942,0.833027 -2.147983,1.257342 -0.720643,0.407519 -1.445707,0.807185 -2.17401,1.200843 -0.772274,0.423794 -1.54573,0.844889 -2.324968,1.255779 -0.711245,0.365569 -1.420087,0.73611 -2.115044,1.132041 -0.68747,0.386791 -1.379654,0.765146 -2.075673,1.13634 -0.665382,0.36303 -1.327068,0.732917 -1.985134,1.109041 -0.564525,0.316973 -1.127735,0.636508 -1.702182,0.935352 -0.472408,0.265282 -0.940992,0.537049 -1.39945,0.826011 -0.372773,0.242316 -0.753819,0.471839 -1.131976,0.705622 -0.321806,0.173281 -0.645836,0.346612 -1.001571,0.440754 -0.181502,0.04538 -0.245673,-0.21131 -0.06417,-0.256683 z"
       inkscape:connector-curvature="0"
       inkscape:export-xdpi="300"
       inkscape:export-ydpi="300" />
  </g>
</svg>
