<?xml version="1.0" encoding="UTF-8" standalone="no"?>
<!-- Created with Inkscape (http://www.inkscape.org/) -->

<svg
   xmlns:dc="http://purl.org/dc/elements/1.1/"
   xmlns:cc="http://creativecommons.org/ns#"
   xmlns:rdf="http://www.w3.org/1999/02/22-rdf-syntax-ns#"
   xmlns:svg="http://www.w3.org/2000/svg"
   xmlns="http://www.w3.org/2000/svg"
   xmlns:sodipodi="http://sodipodi.sourceforge.net/DTD/sodipodi-0.dtd"
   xmlns:inkscape="http://www.inkscape.org/namespaces/inkscape"
   width="210mm"
   height="297mm"
   viewBox="0 0 210 297"
   version="1.1"
   id="svg8"
   inkscape:version="0.92.3 (2405546, 2018-03-11)"
   sodipodi:docname="logo.svg">
  <defs
     id="defs2" />
  <sodipodi:namedview
     id="base"
     pagecolor="#ffffff"
     bordercolor="#666666"
     borderopacity="1.0"
     inkscape:pageopacity="0.0"
     inkscape:pageshadow="2"
     inkscape:zoom="1.979899"
     inkscape:cx="396.48465"
     inkscape:cy="903.45187"
     inkscape:document-units="mm"
     inkscape:current-layer="layer1"
     showgrid="false"
     inkscape:window-width="2426"
     inkscape:window-height="1329"
     inkscape:window-x="134"
     inkscape:window-y="55"
     inkscape:window-maximized="1" />
  <metadata
     id="metadata5">
    <rdf:RDF>
      <cc:Work
         rdf:about="">
        <dc:format>image/svg+xml</dc:format>
        <dc:type
           rdf:resource="http://purl.org/dc/dcmitype/StillImage" />
        <dc:title></dc:title>
      </cc:Work>
    </rdf:RDF>
  </metadata>
  <g
     inkscape:label="Layer 1"
     inkscape:groupmode="layer"
     id="layer1">
    <path
       style="fill:#808080;fill-opacity:1;fill-rule:nonzero;stroke:none;stroke-width:0.26458332"
       id="path815"
       d="m 26.736939,11.943773 c 0.05092,0.652057 0.113538,1.303572 0.197787,1.95224 0.07579,0.651276 0.184094,1.29806 0.25159,1.950295 0.08122,0.580241 0.137051,1.163156 0.21519,1.743725 0.08005,0.582572 0.101857,1.170688 0.116108,1.757867 -0.01077,0.507695 0.02283,1.011359 0.06752,1.51646 0.04611,0.518013 0.06016,1.038018 0.06896,1.557764 0.0061,0.494693 0.0053,0.989438 0.0051,1.48416 -0.0349,0.497052 -0.08445,0.992641 -0.110706,1.490354 -0.01466,0.418256 -0.01635,0.83472 -0.06514,1.250703 -0.05204,0.388109 -0.07284,0.778967 -0.08422,1.170048 -0.0098,0.439391 -0.0089,0.878935 -0.009,1.318411 1.99e-4,0.456496 5.29e-4,0.912992 7.94e-4,1.369486 1.4e-4,0.352152 1.77e-4,0.704302 1.93e-4,1.056455 5e-6,0.208523 5e-6,0.417044 0,0.625567 0,0.02938 -2e-6,0.05875 -2e-6,0.08813 -6.4e-5,0.561266 -0.793814,0.561176 -0.79375,-9e-5 v 0 c 0,-0.02935 2e-6,-0.0587 2e-6,-0.08805 5e-6,-0.208505 5e-6,-0.417012 0,-0.625517 -1.6e-5,-0.352047 -5.3e-5,-0.704096 -1.93e-4,-1.056143 -1.98e-4,-0.456655 -5.29e-4,-0.913309 -7.94e-4,-1.369964 7.4e-5,-0.447194 -7.93e-4,-0.894456 0.0094,-1.341562 0.01225,-0.414409 0.03455,-0.828588 0.08936,-1.239885 0.04751,-0.398806 0.04406,-0.798517 0.06077,-1.199554 0.02572,-0.483809 0.07032,-0.965882 0.109596,-1.448678 1.8e-4,-0.490155 0.0011,-0.980333 -0.005,-1.470461 -0.0084,-0.500874 -0.02164,-1.002017 -0.06599,-1.501231 -0.04616,-0.521906 -0.08062,-1.042717 -0.07037,-1.567215 -0.01344,-0.558184 -0.0333,-1.117343 -0.109246,-1.671177 -0.07923,-0.588733 -0.136155,-1.179808 -0.218107,-1.768255 -0.06618,-0.645445 -0.174961,-1.285299 -0.249211,-1.929826 -0.08455,-0.656345 -0.149377,-1.315322 -0.200404,-1.97507 -0.05585,-0.55848 0.733963,-0.637461 0.789811,-0.07898 z"
       inkscape:connector-curvature="0" />
    <path
       style="fill:#808080;fill-opacity:1;fill-rule:nonzero;stroke:none;stroke-width:0.26458332"
       id="path817"
       d="m 26.491308,32.921614 c 0.495371,-0.106952 0.989928,-0.218016 1.491342,-0.293237 0.477499,-0.06778 0.959943,-0.08064 1.4414,-0.08751 0.501192,-0.0041 1.002414,-0.0021 1.503617,-0.0013 0.55771,0.02527 1.103167,-0.07836 1.6466,-0.186552 0.601265,-0.148429 1.199176,-0.311401 1.798142,-0.469387 0.657104,-0.156128 1.323179,-0.269621 1.994718,-0.339812 0.782889,-0.06842 1.569633,-0.06904 2.354879,-0.07333 0.944501,0.01066 1.887508,-0.0021 2.829401,-0.0752 1.005044,-0.077 2.002195,-0.227578 3.004987,-0.32681 1.163701,-0.143071 2.334297,-0.202335 3.505427,-0.237548 1.265558,-0.04349 2.531129,-0.0073 3.796877,-0.0072 1.259033,-0.0056 2.518055,-0.01275 3.777099,-0.01643 1.419751,-0.0034 2.839505,-0.0035 4.259262,-0.0037 1.414415,-1.22e-4 2.82883,-2.7e-5 4.243245,1.8e-5 1.267849,4.3e-5 2.535698,5.3e-5 3.803544,6.1e-5 1.187699,0.0077 2.375792,-0.01733 3.563133,0.01614 1.192453,0.04799 2.38238,0.148312 3.572282,0.238479 1.276541,0.07521 2.553952,0.136237 3.831217,0.199282 1.197594,0.05722 2.39662,0.06985 3.595352,0.07802 1.155724,-0.0092 2.310042,0.06247 3.459313,0.179091 0.884148,0.110421 1.772065,0.198316 2.654541,0.321516 0.319196,0.04906 0.638416,0.09975 0.954669,0.165555 0.322141,0.07136 0.186058,0.06994 -0.0031,0.804807 -0.01019,0.03954 -0.07995,0.01662 -0.11992,0.0249 -0.549711,0.113302 -0.709945,-0.664105 -0.160234,-0.777407 v 0 c 0.484915,-0.09901 0.359452,0.81571 0.121224,0.724736 -0.29905,-0.0625 -0.60112,-0.109683 -0.902919,-0.156538 -0.872324,-0.122978 -1.750603,-0.207711 -2.624619,-0.3179 -1.124323,-0.114683 -2.253727,-0.184009 -3.384392,-0.175032 -1.209979,-0.0083 -2.420249,-0.02114 -3.629077,-0.07897 -1.284214,-0.06342 -2.568586,-0.124648 -3.852059,-0.200586 -1.177459,-0.08923 -2.354939,-0.188579 -3.534899,-0.236532 -1.179782,-0.03395 -2.360393,-0.0074 -3.540538,-0.01582 -1.267857,-7e-6 -2.535711,-1.8e-5 -3.803568,-6e-5 -1.414362,-4.5e-5 -2.828726,-1.41e-4 -4.243088,-1.9e-5 -1.419027,2.3e-4 -2.838053,2.65e-4 -4.257074,0.0037 -1.259833,0.0037 -2.519646,0.01079 -3.77947,0.01643 -1.257795,-1.05e-4 -2.515402,-0.03611 -3.773014,0.0069 -1.153036,0.03454 -2.305524,0.09285 -3.451209,0.234061 -1.008444,0.09943 -2.011101,0.251867 -3.021886,0.328297 -0.960829,0.07381 -1.922729,0.08906 -2.886204,0.07754 -0.75932,0.0041 -1.520092,0.0042 -2.277224,0.0691 -0.631058,0.06506 -1.256617,0.172828 -1.874343,0.317833 -0.614661,0.161986 -1.227987,0.330158 -1.845513,0.480332 -0.594802,0.11842 -1.192694,0.226796 -1.802728,0.20183 -0.497076,-7.94e-4 -0.99417,-0.0028 -1.491237,0.0013 -0.446058,0.0063 -0.893106,0.01693 -1.335614,0.07891 -0.476179,0.07047 -0.945282,0.178129 -1.415854,0.278212 -0.544508,0.136129 -0.73702,-0.633923 -0.192511,-0.770051 z"
       inkscape:connector-curvature="0" />
    <path
       style="fill:#808080;fill-opacity:1;fill-rule:nonzero;stroke:none;stroke-width:0.26458332"
       id="path819"
       d="m 87.301598,29.706705 c 0.529931,0.270068 1.094856,0.463094 1.65598,0.656677 0.493664,0.149341 0.98163,0.316608 1.429308,0.57517 0.263641,0.158236 0.494649,0.354996 0.679915,0.599953 0.14477,0.209624 0.187183,0.450056 0.202124,0.698532 0.03273,0.405259 -0.194803,0.708392 -0.471258,0.974256 -0.373396,0.336085 -0.824717,0.567368 -1.280906,0.769292 -0.430982,0.193821 -0.876022,0.352645 -1.335953,0.46109 -0.314295,0.06816 -0.635478,0.09017 -0.956167,0.0978 -0.118305,0.0016 -0.236664,0.0024 -0.354951,-7.94e-4 -0.01394,-2.64e-4 -0.02784,-0.0011 -0.04174,-0.0021 -0.55957,-0.04363 -0.497875,-0.834972 0.06169,-0.791348 v 0 c 5.3e-4,-2e-6 0.0013,-3.7e-5 0.0019,-8e-6 0.104902,0.003 0.209883,0.0019 0.314803,7.94e-4 0.266142,-0.006 0.532877,-0.02238 0.794068,-0.07723 0.413075,-0.09525 0.810924,-0.242184 1.197689,-0.415078 0.376272,-0.162973 0.749602,-0.352317 1.059686,-0.62416 0.109016,-0.09442 0.234119,-0.190992 0.218646,-0.348478 -0.0044,-0.09216 -0.0056,-0.184838 -0.04684,-0.269245 -0.116403,-0.162211 -0.274981,-0.282427 -0.4436,-0.388144 C 89.5869,31.385745 89.138677,31.25475 88.698699,31.113796 88.104704,30.90885 87.507544,30.702699 86.94662,30.416725 86.444607,30.165717 86.799583,29.455766 87.301595,29.706771 Z"
       inkscape:connector-curvature="0" />
    <path
       style="fill:#808080;fill-opacity:1;fill-rule:nonzero;stroke:none;stroke-width:0.26458332"
       id="path821"
       d="m 26.74561,11.143768 c 0.201223,0.584438 0.490164,1.127778 0.799401,1.66061 0.273876,0.480143 0.6012,0.923836 0.921967,1.372396 0.09805,0.128561 0.165219,0.283861 0.300215,0.378741 -0.0013,-0.0013 -0.0024,-0.0025 -0.0036,-0.0038 -0.0061,-0.0035 -0.01217,-0.0071 -0.01826,-0.01062 0.509289,0.235887 0.175694,0.956132 -0.333594,0.720245 v 0 c -0.07022,-0.03547 -0.03525,-0.01589 -0.104714,-0.05908 -0.204113,-0.150485 -0.351587,-0.350848 -0.485916,-0.564082 -0.334891,-0.469263 -0.676637,-0.93351 -0.962728,-1.435575 -0.331058,-0.57116 -0.63899,-1.154538 -0.855991,-1.780138 -0.197074,-0.52553 0.546137,-0.804234 0.743212,-0.278704 z"
       inkscape:connector-curvature="0" />
    <path
       style="fill:#808080;fill-opacity:1;fill-rule:nonzero;stroke:none;stroke-width:0.26458332"
       id="path823"
       d="m 23.701202,15.87559 c 0.15732,-0.508592 0.37043,-0.997806 0.560293,-1.494958 0.214753,-0.615506 0.519533,-1.191471 0.789877,-1.782589 0.244679,-0.522403 0.456457,-1.058262 0.609615,-1.614543 0.07739,-0.297656 0.116896,-0.603129 0.136259,-0.909558 0.01441,-0.3307479 -0.05134,-0.1907971 0.794802,0.01459 0.03036,0.0074 -7.94e-4,0.06247 -0.0011,0.09371 -2.65e-4,0.03306 -5.29e-4,0.06612 -7.94e-4,0.09918 -7.94e-4,0.162621 0.0038,0.07103 -0.02077,0.27432 -0.0795,0.555607 -0.865246,0.443176 -0.785746,-0.112431 v 0 c 0.01962,-0.09484 0.01219,-0.03917 0.01279,-0.168002 5.82e-4,-0.07648 0.0015,-0.200406 0.002,-0.20053 0.826506,-0.1959116 0.807176,-0.3273172 0.790946,0.05005 -0.0235,0.360803 -0.07112,0.720327 -0.163426,1.070549 -0.166071,0.596448 -0.389476,1.172933 -0.65295,1.73329 -0.263991,0.575218 -0.56043,1.136082 -0.769988,1.735183 -0.178624,0.467601 -0.376881,0.928279 -0.531746,1.404253 -0.136127,0.544507 -0.906178,0.351995 -0.770051,-0.192513 z"
       inkscape:connector-curvature="0" />
    <path
       style="fill:#808080;fill-opacity:1;fill-rule:nonzero;stroke:none;stroke-width:0.26458332"
       id="path829"
       d="m 95.815953,32.813741 c -0.48854,0.504523 -0.855734,1.105252 -1.172554,1.727528 -0.226854,0.530659 -0.427066,1.088517 -0.486381,1.665806 -0.01889,0.267552 -0.0096,0.446553 0.215628,0.601335 0.273973,0.120787 0.578387,0.127423 0.872709,0.141525 0.301644,-5.29e-4 0.584801,-0.07642 0.859698,-0.192585 0.05783,-0.05234 0.224509,-0.121698 0.221599,-0.214167 0.01897,-0.118284 0.0079,0.07068 -0.01672,-0.03112 -0.06509,-0.557477 0.723297,-0.649539 0.788395,-0.09206 v 0 c 0.014,0.157692 0.02088,0.316666 -0.05416,0.462632 -0.14328,0.271513 -0.354622,0.469736 -0.631582,0.606478 -0.384881,0.161017 -0.785754,0.258479 -1.206108,0.253624 -0.464267,-0.02323 -0.93575,-0.05513 -1.33553,-0.319233 -0.438647,-0.380511 -0.545777,-0.730888 -0.502618,-1.305859 0.08121,-0.671171 0.290557,-1.322041 0.568153,-1.937337 0.36385,-0.710682 0.787934,-1.396643 1.356791,-1.963918 0.422394,-0.369596 0.945084,0.227762 0.522687,0.597358 z"
       inkscape:connector-curvature="0" />
    <path
       style="fill:#808080;fill-opacity:1;fill-rule:nonzero;stroke:none;stroke-width:0.26458332"
       id="path831"
       d="m 92.399391,34.790102 c 0.7273,-0.190302 1.477648,-0.263258 2.224903,-0.322847 0.471355,-0.03385 0.943721,-0.05166 1.416206,-0.05784 0.405085,-0.0026 0.153686,-0.03292 0.21218,0.797838 -0.520793,0.20927 -0.816745,-0.52724 -0.295953,-0.736513 v 0 c 0.236469,0.790856 0.463939,0.729269 0.09409,0.732359 -0.454935,0.0059 -0.909756,0.02302 -1.363615,0.0554 -0.710544,0.05631 -1.424302,0.124306 -2.115619,0.306446 -0.547899,0.121753 -0.720087,-0.653095 -0.172188,-0.774851 z"
       inkscape:connector-curvature="0" />
    <path
       style="fill:#808080;fill-opacity:1;fill-rule:nonzero;stroke:none;stroke-width:0.26458332"
       id="path839"
       d="m 21.798557,7.3114555 c 0.08738,0.3807563 0.213236,0.7504898 0.303287,1.1307437 0.05691,0.2456225 0.0735,0.4969328 0.07895,0.7481223 -0.01849,0.1939264 0.03292,0.3750369 0.0719,0.5627728 0.03992,0.1905161 0.05221,0.3845347 0.05837,0.5785697 0.0039,0.167888 0.0029,0.335844 0.0026,0.503765 -2.91e-4,0.144194 -5.03e-4,0.288389 -6.35e-4,0.432584 0.0087,0.08129 -0.01177,0.166824 -7.4e-5,0.247689 0.0012,0.0083 -0.0031,-0.02319 0.0052,-0.02476 0.0079,-0.0015 0.0067,0.01457 0.01011,0.02185 0.05034,0.138499 0.08954,0.278026 0.107446,0.424287 0.0121,0.140748 0.01166,0.282185 0.01182,0.423338 -1.29e-4,0.09997 -5.29e-4,0.199932 -7.41e-4,0.299897 -7.6e-5,0.0324 -1.4e-4,0.0648 -1.96e-4,0.09721 -0.191336,0.177378 -0.668714,-0.405916 -0.785251,-0.108549 -0.06178,-0.557856 0.727151,-0.645222 0.788928,-0.08737 v 0 c 0.0027,0.491918 0.04993,0.237446 -0.797426,0.19469 5.7e-5,-0.03262 1.21e-4,-0.06523 1.98e-4,-0.09785 2.32e-4,-0.09906 6.08e-4,-0.198113 7.4e-4,-0.29717 -1.16e-4,-0.113401 4.5e-4,-0.226991 -0.0074,-0.340178 -0.0041,-0.08442 -0.0448,-0.162364 -0.06644,-0.24354 -0.05546,-0.167718 -0.07021,-0.334731 -0.0607,-0.510223 1.23e-4,-0.144386 3.44e-4,-0.288771 6.35e-4,-0.433157 2.51e-4,-0.159335 0.0012,-0.318703 -0.0022,-0.478012 -0.0044,-0.148066 -0.01194,-0.296211 -0.04217,-0.4416962 C 21.426986,9.6807889 21.37021,9.4477564 21.387205,9.2069109 21.383302,9.0115865 21.372843,8.8159568 21.329354,8.6247157 21.240518,8.2477485 21.113559,7.8817919 21.028498,7.503969 20.892371,6.959461 21.662421,6.7669483 21.798548,7.3114563 Z"
       inkscape:connector-curvature="0" />
    <path
       style="fill:#808080;fill-opacity:1;fill-rule:nonzero;stroke:none;stroke-width:0.26458332"
       id="path841"
       d="m 20.477742,12.609131 c 0.386672,-0.09368 0.778134,-0.164505 1.172769,-0.214014 0.209659,-0.05081 0.419091,-0.103172 0.631914,-0.139065 0.114115,-0.01908 0.229284,-0.02689 0.344806,-0.0288 0.05754,-3.97e-4 0.115083,2.62e-4 0.172623,6.88e-4 0.01816,1.29e-4 0.03631,2.65e-4 0.05447,4.23e-4 0.0385,10e-7 0.07699,-4e-6 0.115489,-5e-6 0.05885,0 0.117704,0 0.176556,0 0.03304,0 0.06607,0 0.09911,0 0.0068,0 0.01363,0 0.02044,0 0.03439,0 0.06879,0 0.103178,0 0.01862,0 0.03723,0 0.05585,0 0.02882,0 0.05764,0 0.08645,0 0.03957,0 0.07913,0 0.118699,0 0.03484,0 0.06967,0 0.104507,0 0.01701,0 0.03402,0 0.05103,0 4.77e-4,0 9.26e-4,0 0.0014,0 0.05837,0.252525 0.116735,0.50505 0.175103,0.757575 -0.464894,0.314473 -0.909625,-0.342986 -0.444732,-0.657459 v 0 c 0.08988,0.231211 0.179753,0.462423 0.269629,0.693634 -4.77e-4,0 -9.26e-4,0 -0.0014,0 -0.01701,0 -0.03402,0 -0.05103,0 -0.03484,0 -0.06967,0 -0.104507,0 -0.03957,0 -0.07913,0 -0.118699,0 -0.02882,0 -0.05764,0 -0.08645,0 -0.01862,0 -0.03724,0 -0.05585,0 -0.03439,0 -0.06878,0 -0.103177,0 -0.0068,0 -0.01363,0 -0.02044,0 -0.03304,0 -0.06607,0 -0.09911,0 -0.05885,0 -0.117694,0 -0.176541,0 -0.04071,1e-6 -0.08142,2.8e-5 -0.122136,-2.2e-5 -0.01786,-1.42e-4 -0.03572,-2.91e-4 -0.05358,-4.24e-4 -0.0515,-3.7e-4 -0.103008,-9.26e-4 -0.154512,-7.41e-4 -0.07653,0.0011 -0.152731,0.0054 -0.228358,0.01837 -0.223326,0.03527 -0.440228,0.101626 -0.662261,0.143456 -0.363018,0.04521 -0.722986,0.110664 -1.078722,0.196446 -0.544508,0.136127 -0.73702,-0.633924 -0.192512,-0.770051 z"
       inkscape:connector-curvature="0" />
    <path
       style="fill:#808080;fill-opacity:1;fill-rule:nonzero;stroke:none;stroke-width:0.26458332"
       id="path843"
       d="m 19.343443,7.1366686 c 0.331708,-0.064726 0.659866,-0.1465548 0.992241,-0.2079458 0.195137,-0.033608 0.392797,-0.043858 0.590408,-0.047157 0.05253,-0.055441 0.221374,-0.08356 0.317825,-0.1020093 0.133095,-0.020553 0.267599,-0.028416 0.402097,-0.030757 -0.416276,0.098263 0.113235,-0.0851 0.19068,-0.1022067 0.161245,-0.023902 0.32431,-0.029014 0.487031,-0.031436 -0.09214,0.00971 -0.01877,-0.018643 0.0073,-0.037335 -0.223263,0.1739165 0.425234,-0.083292 0.588542,0.071541 0.0094,0.00927 0.03882,0.035578 0.02816,0.027813 -0.06292,-0.045807 -0.05419,-0.055153 -0.07509,-0.062279 0.09553,0.00222 0.191085,0.00214 0.286634,0.00177 0.06296,-3.969e-4 0.125921,-6.35e-4 0.188882,-8.732e-4 0.03986,-1.558e-4 0.07973,-1.198e-4 0.119593,-1.235e-4 0.017,-2.7e-6 0.034,1.8e-6 0.051,5.8e-6 9.26e-4,-5e-7 0.0018,1.6e-6 0.0027,2.4e-6 0.0091,0.2685364 0.0183,0.5370729 0.02745,0.8056094 -0.532825,0.1763995 -0.782292,-0.577129 -0.249467,-0.7535286 v 0 c 0.01,0.033537 0.462035,0.7429542 0.218939,0.7416668 -0.01686,-4e-6 -0.03373,-8.5e-6 -0.0506,-5.8e-6 -0.03892,3.7e-6 -0.07784,-3.36e-5 -0.116759,1.182e-4 -0.06291,2.305e-4 -0.125811,4.763e-4 -0.188716,8.732e-4 -0.125877,4.762e-4 -0.251952,0.00193 -0.377613,-0.00665 -0.151453,-0.022667 -0.302311,-0.064729 -0.4131,-0.1801183 -0.135406,-0.130683 0.762131,-0.1997236 0.415203,0.00401 -0.136395,0.093986 -0.284025,0.1641018 -0.451521,0.1811685 -0.116599,0.00167 -0.233206,0.00507 -0.349262,0.017341 -0.04335,-0.00111 -0.231212,0.1465911 -0.326789,0.1162767 -0.09021,0.00143 -0.180315,0.00619 -0.26991,0.017428 -0.153947,0.0274 -0.291105,0.1077117 -0.450395,0.1153446 -0.153915,0.00241 -0.307916,0.00898 -0.460079,0.034237 -0.350932,0.063828 -0.696168,0.1557735 -1.047791,0.2161162 -0.557833,0.061981 -0.645488,-0.7269139 -0.08765,-0.7888954 z"
       inkscape:connector-curvature="0" />
    <path
       style="fill:#000000;fill-opacity:1;fill-rule:nonzero;stroke:none;stroke-width:0.26458332"
       id="path853"
       d="m 31.138243,17.024939 c 0.03353,-0.333123 -0.05294,-0.686344 0.02088,-1.014533 0.09472,0.02047 0.199676,0.01394 0.284149,0.06142 0.02397,0.01347 0.215554,0.624949 0.239789,0.697578 0.01535,0.03166 0.02951,0.06391 0.04602,0.09497 0.01696,0.03191 0.04729,0.111253 0.06981,0.08298 0.01648,-0.02068 -0.05613,-0.0115 -0.07245,-0.0323 -0.01127,-0.01436 0.0054,-0.03612 0.0081,-0.05418 0.129652,-0.389369 0.156681,-0.798987 0.143704,-1.206075 0.0092,-0.212828 -0.04242,-0.406176 0.330578,-0.107772 0.01696,0.01357 0.254659,0.632143 0.274942,0.681392 0.164152,0.324418 0.218064,0.830999 0.496511,1.085013 -0.0011,-0.0088 -0.0021,-0.01761 -0.0033,-0.02642 -0.02265,-0.0079 -0.06337,-8.1e-5 -0.06795,-0.02362 -0.0074,-0.03794 0.03149,-0.07083 0.04239,-0.107909 0.01897,-0.06452 0.0343,-0.130158 0.04704,-0.19619 0.04572,-0.236893 0.05114,-0.352612 0.07636,-0.601301 0.05211,-0.650402 0.0232,-1.3061 -0.02722,-1.955955 -0.0035,-0.0229 -0.03364,-0.06757 -0.0105,-0.06869 0.0952,-0.0046 0.200787,0.0033 0.280506,0.05551 0.0045,0.003 0.06325,0.283747 0.07597,0.333833 0.04796,0.188953 0.04422,0.162996 0.116091,0.334948 -0.0542,-0.01469 0.136663,0.260512 0.147579,0.178781 0.0016,-0.01212 -0.0182,-0.02121 -0.01566,-0.03317 0.01847,-0.08649 0.07084,-0.162152 0.102116,-0.244879 0.153495,-0.561098 0.241176,-1.133792 0.252016,-1.714824 0.0093,-0.213319 -0.134737,-0.468695 0.248891,-0.281613 0.02927,0.01427 0.0083,0.0646 0.01294,0.09684 0.0052,0.03609 0.01106,0.07209 0.01656,0.108129 0.03322,0.07917 0.03554,0.184824 0.09135,0.25452 0.0051,0.0064 0.0038,-0.01885 -0.0021,-0.02431 -0.01857,-0.01685 -0.05721,-0.01342 -0.06549,-0.0371 -0.0069,-0.01976 0.0227,-0.03519 0.03405,-0.05278 0.226822,-0.493359 0.325898,-1.03227 0.451107,-1.557236 0.01,-0.041 0.16488,-0.696092 0.198456,-0.689785 0.318405,0.05981 0.268475,0.105951 0.290459,0.330814 0.04434,0.396684 -0.02479,0.802403 0.02658,1.197357 0.0067,0.0044 0.02506,0.01951 0.02,0.01329 -0.01169,-0.0144 -0.09842,-0.103259 -0.09824,-0.10415 0.0089,-0.04727 0.04339,-0.08594 0.06237,-0.130139 0.07145,-0.166322 0.07001,-0.182466 0.122378,-0.36154 0.06409,-0.181963 0.175305,-0.587822 0.446823,-0.289 0.04572,0.05031 0.06407,0.409348 0.0668,0.441359 0.02574,0.722062 0.04703,1.445399 0.126293,2.163991 0.02529,0.129563 0.05786,0.333601 0.106966,0.464787 0.01357,0.03625 0.03038,0.07295 0.05673,0.101304 0.0064,0.0068 0.02703,-0.0056 0.02402,-0.01439 -0.03574,-0.104732 -0.08629,0.04186 -0.0052,-0.108166 0.06464,-0.08919 0.196508,-0.609924 0.302572,-0.60472 0.08059,0.004 0.144796,0.07125 0.217194,0.106869 0.01669,0.06228 0.03862,0.123399 0.05012,0.186851 0.03368,0.185894 0.04031,0.375715 0.06457,0.563072 0.05045,0.389715 0.125574,0.772122 0.206907,1.156348 0.105047,0.277185 0.197125,1.097421 0.473712,1.262274 0.01553,0.0093 0.03601,-0.0033 0.05401,-0.005 0.0646,-0.01548 0.175316,-0.335147 0.192818,-0.334477 0.09227,0.0035 0.176443,0.05454 0.264663,0.08181 0.01725,0.450582 -0.04047,0.902849 -0.07112,1.352873 -0.150524,-0.120037 0.07925,0.237794 0.01775,0.206398 -0.0301,-0.01537 -0.01958,-0.07208 -0.04897,-0.08879 -0.03714,-0.02112 -0.105707,0.025 -0.127641,-0.01167 -0.02278,-0.03809 0.03059,-0.08334 0.04588,-0.125013 0.06576,-0.175152 0.31346,-0.08216 0.2477,0.09299 v 0 c -0.04864,0.127243 -0.07169,0.277487 -0.263416,0.289659 -0.160864,0.01021 -0.130905,-0.316501 -0.135276,-0.381561 0.02793,-0.41011 0.05709,-0.820379 0.09226,-1.229831 0.06878,-0.01765 0.135361,-0.05124 0.206351,-0.05296 0.01892,-4.5e-4 -0.02056,0.03183 -0.0292,0.04866 -0.02005,0.0391 -0.0352,0.08071 -0.0568,0.11898 -0.05467,0.09683 -0.124438,0.206087 -0.229904,0.257014 -0.05406,0.0261 -0.118335,0.02026 -0.177501,0.03038 -0.05886,-0.02354 -0.124994,-0.03378 -0.176586,-0.07062 -0.334486,-0.238854 -0.410678,-1.028845 -0.537585,-1.38637 -0.127289,-0.602325 -0.226544,-1.207851 -0.286989,-1.820608 0.04635,-0.006 0.09561,-7.15e-4 0.139036,-0.01796 0.01445,-0.0057 0.02196,-0.05818 0.01625,-0.04372 -0.07713,0.195562 -0.122947,0.404658 -0.24215,0.581827 -0.04265,0.04765 -0.07203,0.111889 -0.127931,0.142938 -0.414679,0.230331 -0.485857,-0.498984 -0.526211,-0.720292 -0.07887,-0.721025 -0.102296,-1.446598 -0.126982,-2.17112 -0.0059,-0.07404 -0.0113,-0.148117 -0.01759,-0.222122 -0.0029,-0.03364 -0.03527,-0.07852 -0.0099,-0.100813 0.03683,-0.03237 0.09845,-0.0063 0.145904,-0.0187 0.0061,-0.0016 0.0011,-0.02366 -0.0026,-0.01859 -0.02053,0.02847 -0.03671,0.06011 -0.05054,0.09236 -0.02357,0.05498 -0.04093,0.112439 -0.0614,0.168659 -0.05909,0.198471 -0.337716,1.125575 -0.622958,0.53918 -0.04494,-0.399076 0.0087,-0.804652 -0.0274,-1.205119 -0.01701,-0.210026 -0.06355,-0.168515 0.207042,-0.231115 0.01188,-0.0027 -0.01532,0.01953 -0.01939,0.03103 -0.01553,0.04372 -0.02702,0.0888 -0.03913,0.133589 -0.02622,0.09695 -0.09604,0.380466 -0.116557,0.463064 -0.13512,0.566277 -0.234299,1.158432 -0.514006,1.675251 -0.04026,0.03834 -0.06968,0.0931 -0.120771,0.115026 -0.285441,0.122509 -0.341405,-0.204843 -0.392899,-0.394756 -5.29e-4,-0.0032 -0.0355,-0.226241 -0.03209,-0.229282 0.364221,-0.325662 0.264055,0.0856 0.279763,0.271036 -0.01222,0.612816 -0.103783,1.217978 -0.271084,1.808458 -0.05356,0.127373 -0.09916,0.294448 -0.224256,0.380221 -0.244634,0.167739 -0.41843,-0.08387 -0.499888,-0.278911 -0.02909,-0.07149 -0.234286,-0.677246 -0.206986,-0.718289 0.05194,-0.07809 0.1494,-0.124475 0.240784,-0.145581 0.02857,-0.0066 0.0084,0.05804 0.01257,0.08707 0.05141,0.665615 0.08078,1.337118 0.02664,2.003252 -0.02749,0.267605 -0.043,1.084128 -0.403706,1.163267 -0.04914,0.01078 -0.09512,-0.03279 -0.142679,-0.04918 -0.297593,-0.320885 -0.387628,-0.77566 -0.552522,-1.169789 -0.0213,-0.05171 -0.280826,-0.647354 -0.272372,-0.675359 0.02468,-0.08179 0.120583,-0.121559 0.18711,-0.175164 0.008,-0.0064 -0.0046,0.01999 -0.0069,0.02999 -0.0013,0.046 -0.0028,0.092 -0.0042,0.137996 0.01323,0.441667 -0.01781,0.885968 -0.160612,1.30765 -0.02265,0.04908 -0.03076,0.107978 -0.06791,0.147229 -0.222316,0.234873 -0.410273,-0.05957 -0.48207,-0.248371 -0.06274,-0.188043 -0.126236,-0.375897 -0.189484,-0.563672 -0.01236,-0.03671 -0.06518,-0.07903 -0.04054,-0.108916 0.04958,-0.06014 0.141248,-0.06594 0.211873,-0.09892 -0.06491,0.126088 0.02447,0.770031 -0.01109,0.943298 0,0.187089 -0.264584,0.187089 -0.264584,0 z"
       inkscape:connector-curvature="0" />
    <path
       style="fill:#000000;fill-opacity:1;fill-rule:nonzero;stroke:none;stroke-width:0.26458332"
       id="path855"
       d="m 38.335039,18.262722 c -0.06149,0.642332 -0.08189,1.287686 -0.101869,1.932369 -0.01241,0.03279 0.07495,0.857784 -0.202142,0.283993 -0.0265,-0.05487 0.03133,-0.11784 0.04377,-0.177494 0.01566,-0.07515 0.02701,-0.151138 0.04052,-0.226707 0.0218,-0.07539 0.139298,-0.880417 0.276177,-0.839945 0.08549,0.02528 0.131858,0.120004 0.197787,0.180006 0.02373,0.512272 0.06954,1.02311 0.111924,1.534249 0.02111,0.114025 0.01037,0.231906 0.02865,0.346275 0.0026,0.01588 0.03312,0.0514 0.0186,0.04451 -0.06181,-0.02932 -0.140335,-0.05402 -0.169307,-0.115987 -0.02035,-0.04354 0.03762,-0.08861 0.05225,-0.134389 0.02339,-0.07314 0.0411,-0.147971 0.06166,-0.221956 0.171223,-0.446293 0.138163,-0.957639 0.347917,-1.388181 0.06035,-0.02086 0.122272,-0.08755 0.181044,-0.06259 0.223136,0.09476 0.188015,0.981646 0.193275,1.185811 0.01117,0.153826 -0.0019,0.308375 0.0063,0.462264 0.0024,0.04606 0.0079,0.09205 0.01619,0.137436 0.0029,0.01598 0.03239,0.05097 0.01704,0.04565 -0.18887,-0.06541 -0.170206,-0.04933 -0.149021,-0.162552 0.193064,-0.639937 0.263657,-1.305868 0.323522,-1.968861 0.0043,-0.05743 0.03893,-0.503796 0.04117,-0.589108 0.0016,-0.05713 -7.94e-4,-0.114382 -0.0053,-0.171354 -0.0019,-0.02389 -0.03736,-0.07361 -0.0136,-0.0706 0.255379,0.03231 0.226621,0.04395 0.208,0.179839 -0.04877,0.0343 -0.02801,0.629501 -0.03824,0.633913 -0.02252,0.0097 -0.0109,-0.0478 -0.01635,-0.0717 -0.05912,-0.01523 -0.141825,0.0039 -0.177358,-0.0457 -0.02698,-0.0377 0.03642,-0.08531 0.05246,-0.128805 0.153625,-0.416585 0.268734,-0.84824 0.402433,-1.271441 0.09787,-0.309421 0.17585,-0.624672 0.271209,-0.934819 0.03174,-0.10324 0.08107,-0.255811 0.101915,-0.25455 0.09743,0.0059 0.181134,0.07282 0.271703,0.109225 0.01656,0.05399 -0.01929,0.718939 -0.06073,0.717983 -0.09296,-0.0021 -0.176266,-0.05932 -0.264398,-0.08897 0.07882,-0.436024 0.187452,-0.865247 0.264408,-1.301821 0.05086,-0.212499 -0.01278,-0.574816 0.34697,-0.275308 0.0071,0.0059 0.01209,0.224 0.01376,0.279504 0.0019,0.129368 0.0028,0.25877 0.0016,0.388151 -1.12e-4,0.0122 0.01011,0.04207 -7.94e-4,0.03658 -0.285933,-0.144172 -0.247224,-0.08743 -0.186005,-0.312097 0.148191,-0.304426 0.11471,-0.702531 0.312402,-0.980806 0.07951,0.03046 0.175577,0.03406 0.238537,0.09138 0.04283,0.039 0.03408,0.683944 0.03467,0.777774 -0.09582,-0.113529 0.03757,0.143919 -5e-5,0.125571 -0.08123,-0.03962 -0.174194,-0.07397 -0.228164,-0.146455 -0.0079,-0.01065 0.09395,-0.416993 0.103968,-0.458006 0.111652,-0.383417 0.349115,-0.574147 0.522351,-0.06672 0.112692,0.265357 0.04478,0.581014 0.137943,0.84666 0.02072,-0.05201 -0.121732,-0.0715 -0.11581,-0.0821 0.0444,-0.07957 0.129913,-0.133837 0.205277,-0.176497 0.06525,0.02467 0.143359,0.02793 0.195738,0.074 0.0664,0.05839 0.167286,0.376736 0.185124,0.433859 0.132083,0.423017 0.224277,0.859523 0.336092,1.288129 0.261663,0.98356 0.477917,1.997132 0.965153,2.898884 0.200885,0.237094 0.09215,0.149339 0.309046,0.283196 0.155885,0.103453 0.0096,0.323906 -0.146304,0.220453 v 0 c -0.285972,-0.199316 -0.150257,-0.07724 -0.395824,-0.378442 -0.49303,-0.922786 -0.725628,-1.951113 -0.988089,-2.957312 -0.110075,-0.422073 -0.201806,-0.851279 -0.3301,-1.268349 -0.02312,-0.07519 -0.05053,-0.148996 -0.07648,-0.223259 -0.01193,-0.03412 -0.05015,-0.06815 -0.03712,-0.101866 0.01085,-0.02807 0.05765,-0.01725 0.08647,-0.02588 -0.106113,0.08975 -0.279691,0.370819 -0.446791,0.09055 -0.07402,-0.273657 -0.04809,-0.568135 -0.136094,-0.840698 -0.04033,-0.136195 -0.04809,-0.12464 0.09943,-0.17195 0.0066,-0.0021 -0.153947,0.213511 -0.112987,0.220147 -0.02564,0.104873 -0.05343,0.215934 -0.07655,0.321369 -0.01069,0.04878 0.01116,0.118653 -0.03011,0.146768 -0.333118,0.226903 -0.289134,0.10686 -0.290695,-0.0504 -0.0013,-0.203005 -0.0038,-0.405636 -0.01397,-0.608416 -0.0013,-0.02627 -0.02842,-0.06875 -0.0041,-0.0788 0.06263,-0.02587 0.135512,-0.0023 0.203267,-0.0035 0.0077,-0.04722 0.01233,-0.06872 -0.02875,0.07632 -0.057,0.201225 -0.1039,0.405081 -0.163291,0.605748 -0.01865,0.06303 -0.03927,0.125455 -0.0589,0.188182 -0.06357,0.233253 -0.0011,0.182618 -0.33379,0.236675 -0.0105,0.0017 5.29e-4,-0.02128 7.94e-4,-0.03192 0.0011,-0.126398 2.64e-4,-0.252813 -0.0016,-0.379198 -0.0013,-0.04538 -0.0019,-0.09078 -0.0039,-0.136131 -0.0016,-0.03632 -0.03561,-0.08699 -0.0066,-0.108853 0.389617,-0.293205 0.185695,0.133705 0.174773,0.279003 -0.07353,0.416357 -0.167214,0.828338 -0.260837,1.24039 -0.08559,0.01388 -0.170262,0.04766 -0.256754,0.04163 -0.02008,-0.0014 0.01127,-0.0387 0.01487,-0.05849 0.03058,-0.167616 0.04432,-0.338245 0.05356,-0.508149 0.06951,-0.02287 0.136035,-0.05871 0.208544,-0.06862 0.01704,-0.0023 -0.02093,0.02784 -0.02727,0.04385 -0.02011,0.05087 -0.03553,0.103484 -0.0516,0.155765 -0.09593,0.311976 -0.174302,0.629108 -0.272881,0.940317 -0.11081,0.350688 -0.212405,0.704608 -0.326966,1.054073 -0.0077,0.02339 -0.128583,0.382848 -0.152266,0.400779 -0.07061,0.05346 -0.16846,0.05476 -0.25269,0.08215 -0.103687,-0.240663 -0.01111,-0.528438 -0.0031,-0.783095 0.03979,-0.17754 0.0085,-0.259545 0.31251,-0.174803 0.03604,0.01004 0.0082,0.528021 0.0054,0.568972 -0.0077,0.110372 -0.01654,0.220664 -0.02482,0.330997 -0.06285,0.694268 -0.135816,1.393439 -0.349041,2.060649 -0.03433,0.05696 -0.04064,0.14774 -0.102986,0.170894 -0.409766,0.152175 -0.27232,-0.598254 -0.290039,-0.762508 -0.0049,-0.18952 -0.0074,-0.337735 -0.01728,-0.527083 -0.004,-0.07696 -0.0088,-0.153892 -0.01519,-0.230682 -0.0046,-0.0551 -0.03432,-0.112065 -0.01802,-0.164896 0.01937,-0.06269 0.223121,0.08761 0.176427,-0.0873 -0.08118,0.148709 -0.09611,0.302697 -0.12782,0.468668 -0.05596,0.292918 -0.118777,0.584718 -0.201276,0.871469 -0.0071,0.0248 -0.106003,0.415391 -0.161518,0.449138 -0.407276,0.247577 -0.320265,-0.213829 -0.348604,-0.417741 -0.04148,-0.50031 -0.08942,-1.000271 -0.107249,-1.502064 0.05413,0.0035 0.110254,0.02537 0.162398,0.01042 0.02808,-0.0081 0.03077,-0.09291 0.05066,-0.07151 0.02228,0.02397 -0.02159,0.06183 -0.03034,0.09337 -0.05662,0.20424 -0.0928,0.41354 -0.137284,0.620528 -0.0019,0.0096 -0.07211,0.431387 -0.09865,0.454622 -0.452432,0.396168 -0.299964,-0.196566 -0.308346,-0.38952 0.02019,-0.651704 0.04092,-1.304088 0.103362,-1.953392 0.02066,-0.185945 0.283626,-0.156726 0.262965,0.02922 z"
       inkscape:connector-curvature="0" />
    <path
       style="fill:#000000;fill-opacity:1;fill-rule:nonzero;stroke:none;stroke-width:0.26458332"
       id="path857"
       d="m 44.930107,21.615188 c 0.170199,0.90486 0.421219,1.794599 0.699011,2.671913 0.109741,0.302136 0.208994,0.624878 0.412475,0.881547 0.04872,0.06146 0.124938,0.145786 0.196746,0.07815 0.08717,-0.16635 0.246394,-0.319812 0.424971,-0.117785 0.04793,0.05423 0.05383,0.134367 0.08075,0.201551 0.156974,0.604515 0.306353,1.211692 0.509505,1.802705 0.01048,0.02429 0.163396,0.400881 0.235527,0.369644 0.01381,-0.006 -0.02066,-0.02392 -0.02323,-0.03876 -0.0033,-0.01897 -5.29e-4,-0.03951 0.0066,-0.05737 0.02066,-0.05154 0.05062,-0.09885 0.07594,-0.148272 0.08735,-0.165444 0.321325,-0.04191 0.233973,0.123536 v 0 c -0.05988,0.110776 -0.128918,0.283496 -0.259053,0.340389 -0.295426,0.129151 -0.439383,-0.332435 -0.519973,-0.503311 -0.202467,-0.591323 -0.354832,-1.197779 -0.509606,-1.803006 -0.0083,-0.03595 -0.03772,-0.07321 -0.02498,-0.107835 0.0088,-0.02388 0.05063,-0.01028 0.07295,-0.02251 0.0085,-0.0047 0.02241,-0.03105 0.01447,-0.02539 -0.09829,0.07004 -0.123465,0.216245 -0.260175,0.244646 -0.05626,0.0061 -0.112827,0.02666 -0.168768,0.01818 -0.425838,-0.06461 -0.620995,-0.843092 -0.750323,-1.15627 -0.281335,-0.889268 -0.535811,-1.791003 -0.707745,-2.708252 -0.03076,-0.184543 0.230225,-0.228041 0.260982,-0.0435 z"
       inkscape:connector-curvature="0" />
    <path
       style="fill:#000000;fill-opacity:1;fill-rule:nonzero;stroke:none;stroke-width:0.26458332"
       id="path859"
       d="m 48.256134,26.402655 c 0.07411,0.588768 0.160591,1.177972 0.36199,1.738285 0.0094,0.01934 0.06358,0.174014 0.123917,0.190603 0.02598,0.0071 -0.02944,-0.05135 -0.02294,-0.0775 0.01082,-0.04353 0.04299,-0.07877 0.0628,-0.119015 0.03005,-0.06107 0.05783,-0.12323 0.08674,-0.184843 0.127817,-0.192911 0.119115,-0.467606 0.250049,-0.65713 0.0213,-0.03084 0.04406,-0.08348 0.08112,-0.07788 0.08409,0.0127 0.148701,0.08254 0.223052,0.123817 0.109048,0.437369 0.11109,0.891034 0.179408,1.335667 -0.16615,-0.08959 0.119185,0.228867 0.04842,0.212465 -0.03161,-0.0073 -0.02561,-0.06644 -0.05494,-0.08037 -0.03485,-0.01656 -0.08836,0.02643 -0.115758,-7.94e-4 -0.0061,-0.006 0.04638,-0.229634 0.05873,-0.284641 0.05039,-0.159779 0.132649,-0.83035 0.237072,-0.933445 0.04209,-0.04156 0.102886,-0.0584 0.154328,-0.0876 0.05656,0.0461 0.126077,0.07978 0.169678,0.138287 0.07174,0.09626 0.159586,0.482804 0.19845,0.604901 0.0454,0.142629 0.09528,0.283795 0.142293,0.425902 -0.08802,-0.103822 0.158814,0.342339 0.141044,0.279088 -0.03876,-0.137983 -0.129108,0.05721 -0.02297,-0.181906 0.175344,-0.392216 0.256786,-0.834224 0.517551,-1.181979 0.04272,-0.02357 0.07945,-0.06792 0.12817,-0.07073 0.291724,-0.01685 0.435252,0.433287 0.541821,0.642569 -0.02241,-0.04286 0.157144,0.256853 0.172413,0.194911 0.0034,-0.0136 -0.02994,-0.01577 -0.0297,-0.02977 5.3e-4,-0.02267 0.02006,-0.0407 0.0313,-0.0604 0.0289,-0.0507 0.05937,-0.100479 0.08905,-0.150718 0.239911,-0.467452 0.404741,-0.980545 0.740087,-1.391472 0.05248,-0.02936 0.09785,-0.08004 0.157448,-0.08807 0.400759,-0.05401 0.592294,0.572294 0.723517,0.848638 0.09658,0.176996 0.173921,0.366342 0.296986,0.527831 0.05158,0.06769 0.100741,0.111371 0.118288,0.09112 0.0099,-0.0114 -0.01257,-0.02746 -0.01884,-0.04119 0.236593,-0.317834 0.391856,-0.684933 0.59091,-1.025531 0.370025,-0.497009 0.688928,-0.121142 0.921327,0.259144 0.137671,0.217109 0.215612,0.471463 0.368139,0.679765 0.0608,0.08303 0.03853,0.08113 0.09369,0.06202 0.09705,-0.217279 0.285205,-0.428684 0.453644,-0.597295 0.435623,-0.3318 0.887619,-0.07555 1.290812,0.173998 0.285462,0.148027 0.630235,0.49757 0.974119,0.370764 0.483296,-0.461164 0.710602,-1.130052 0.971072,-1.729482 0.378579,-0.833933 0.668033,-1.711244 1.139766,-2.49984 0.402855,-0.466105 0.485257,0.10902 0.509313,0.415281 0.0016,0.03001 0.0031,0.06001 0.0046,0.09002 0.0024,-6.35e-4 0.0097,-5.29e-4 0.0075,-0.0019 -0.06251,-0.03868 -0.158496,-0.04508 -0.190373,-0.111313 -0.02484,-0.05166 0.04088,-0.107151 0.05908,-0.16151 0.06724,-0.200811 0.110064,-0.359734 0.169738,-0.567286 0.250777,-0.83048 0.399409,-1.685178 0.569732,-2.534336 0.02625,-0.288429 0.142209,-0.56593 0.178755,-0.851631 0.01249,-0.356859 0.07395,-0.709961 0.125513,-1.062789 0.07259,-0.388436 0.1568,-0.774636 0.247508,-1.159217 0.0389,-0.17175 0.05553,-0.345935 0.08959,-0.519631 0.197512,-0.880186 0.41701,-1.757575 0.689896,-2.617695 0.04659,-0.08751 0.19273,-0.657928 0.337338,-0.698219 0.32098,-0.08943 0.322035,0.233282 0.352148,0.439505 0.03962,0.192296 0.0034,0.395238 0.03257,0.587841 0.0021,0.01365 0.03531,0.0415 0.02379,0.03391 -0.163531,-0.10768 -0.138654,-0.06743 -0.05097,-0.205711 0.591109,-1.015814 1.271352,-1.969432 2.020316,-2.873787 0.199322,-0.174382 0.522796,-0.64609 0.871776,-0.561008 0.351864,0.08579 0.373996,0.517128 0.425603,0.795264 0.08004,0.553332 -0.04041,1.109202 -0.03194,1.661427 -0.04758,-0.04612 -0.107889,-0.08201 -0.142743,-0.138369 -0.01378,-0.02228 1.56e-4,-0.05338 0.0089,-0.07807 0.03033,-0.08564 0.07187,-0.16688 0.107455,-0.250467 0.171334,-0.402382 0.350137,-0.79554 0.546645,-1.186403 0.13933,-0.232631 0.603036,-1.319176 0.992997,-0.743811 0.05208,0.07685 0.05458,0.177469 0.08187,0.266203 0.113708,0.590133 0.06006,1.194155 0.111943,1.788909 0.0063,0.02886 0.04853,0.08667 0.019,0.08659 -0.03358,-9e-5 -0.02529,-0.06547 -0.05133,-0.08668 -0.02553,-0.02081 -0.0883,10e-4 -0.09367,-0.03148 -0.0061,-0.03703 0.278482,-0.674801 0.297841,-0.720395 0.102296,-0.202927 0.403164,-1.128365 0.755531,-1.013544 0.07719,0.02515 0.123367,0.105573 0.185052,0.15836 0.1982,0.570818 0.186063,1.191435 0.200467,1.789387 0.02061,0.211218 -0.0058,0.134138 0.05038,0.266053 0.0091,0.02141 -0.01365,-0.04531 -0.02695,-0.06441 -0.01281,-0.0184 -0.05206,-0.02324 -0.04952,-0.04552 0.0062,-0.05429 0.04773,-0.09832 0.07152,-0.14751 0.04077,-0.0843 0.08145,-0.168659 0.122169,-0.252989 0.181083,-0.328294 0.450384,-1.185026 0.779399,-1.366501 0.05999,-0.03309 0.133744,-0.02978 0.200617,-0.04466 0.07521,0.05783 0.166754,0.09909 0.225642,0.173475 0.11607,0.146615 0.200274,0.498807 0.239879,0.658824 0.11207,0.452817 0.180711,0.915388 0.262406,1.374246 0.107656,0.308855 0.05958,0.945333 0.253026,1.215303 0.06184,0.08629 0.006,-0.07061 -1.72e-4,-0.09021 0.349097,-0.604704 0.640419,-1.238703 1.006891,-1.833924 0.161001,-0.202513 0.358463,-0.498473 0.672772,-0.409556 0.337362,0.09544 0.491318,0.50718 0.631772,0.779814 0.162097,0.385819 0.267782,0.790446 0.385048,1.190881 0.06931,0.236675 0.123706,0.459884 0.279389,0.652925 0.356386,-0.576144 0.643382,-1.190974 0.941065,-1.799122 0.257313,-0.486143 0.491567,-0.992828 0.820981,-1.4369 0.108551,-0.14633 0.300744,-0.386937 0.497716,-0.447262 0.0834,-0.02555 0.174455,0.0012 0.261683,0.0017 0.07783,0.06553 0.172101,0.115451 0.233484,0.196591 0.29327,0.38767 0.40952,1.370382 0.476287,1.856468 -0.140718,-0.203578 0.133705,0.623162 0.146918,0.447112 0.0021,-0.02687 -0.04193,-0.04689 -0.03493,-0.07292 0.01701,-0.0632 0.06762,-0.112099 0.09999,-0.168981 0.06078,-0.106782 0.119626,-0.21465 0.179438,-0.321974 0.424852,-0.787959 0.765717,-1.642973 1.331526,-2.346626 0.08629,-0.107316 0.188175,-0.201104 0.28226,-0.301655 0.09336,-0.05211 0.176268,-0.130749 0.280083,-0.156316 0.746456,-0.183834 0.95536,1.208204 1.0605,1.658773 0.116099,0.584214 0.193715,1.174792 0.285779,1.762897 0.05521,0.352683 0.107463,0.684354 0.24909,1.011846 0.02119,0.02014 0.03491,0.05469 0.06357,0.06042 0.0186,0.0037 -0.02315,-0.03327 -0.02262,-0.05223 0.0016,-0.05439 0.05813,-0.09277 0.09522,-0.132578 0.124933,-0.134116 0.07568,-0.08974 0.278683,-0.135159 0.07703,0.07367 0.17517,0.130278 0.231084,0.221025 0.102431,0.166245 0.332047,0.961972 0.360127,1.060594 0.259144,0.910196 0.465696,1.835014 0.692185,2.753624 0.323955,1.375628 0.597699,2.762745 1.006136,4.116702 0.04379,0.135085 0.119375,0.375091 0.173074,0.519539 0.01519,0.04086 0.02887,0.08276 0.05037,0.120683 0.0043,0.0077 0.03118,0.01607 0.02416,0.01077 -0.06857,-0.05173 -0.04675,-0.04536 -0.105788,-0.04432 0.01879,-0.04441 0.03287,-0.08988 0.042,-0.137141 2.14e-4,-0.0021 5.29e-4,-0.0042 5.29e-4,-0.0063 0.09233,7.15e-4 0.193706,-0.03768 0.276995,0.0022 0.04724,0.02261 0.03345,0.09961 0.04322,0.151069 0.05216,0.274853 0.04595,0.567135 0.0559,0.845012 0.05072,0.649293 -0.03189,1.308921 0.03616,1.956407 0.09134,0.02652 -0.118517,-0.03359 -0.142086,-0.06297 -0.02093,-0.02611 0.01865,-0.06429 0.02906,-0.09609 0.07723,-0.236257 0.146552,-0.468873 0.204896,-0.710725 0.05915,-0.194119 0.152164,-0.854783 0.515239,-0.624424 0.04923,0.03124 0.06368,0.09769 0.09552,0.146539 0.113572,0.286992 0.178991,0.59295 0.303972,0.875267 0.06,0.09372 0.03803,0.02916 -0.0029,0.01704 -0.01532,-0.0046 -0.03379,0.0045 -0.04784,-0.0031 -0.02156,-0.01169 0.01802,-0.04572 0.0295,-0.06738 0.07517,-0.173033 0.226354,-0.202449 0.358294,-0.05031 0.03994,0.04606 0.08931,0.234307 0.102806,0.278831 0.09309,0.168757 0.04498,0.526069 0.138441,0.681506 -0.02151,-0.02371 -0.04301,-0.04743 -0.06452,-0.07115 -0.02522,-0.0024 -0.05588,0.0088 -0.07568,-0.007 -0.0094,-0.0075 0.195395,-0.317053 0.215519,-0.347205 0.336219,-0.37507 0.638048,0.109136 0.826254,0.376367 0.163528,0.215715 0.271129,0.503944 0.480393,0.683443 0.254736,0.218128 0.275352,0.538255 0.309229,0.851696 0.01982,0.186034 -0.243271,0.214067 -0.263093,0.02803 v 0 c -0.02612,-0.24897 -0.02357,-0.511471 -0.226089,-0.685766 -0.213424,-0.206449 -0.353989,-0.480041 -0.51684,-0.72517 -0.01625,-0.02312 -0.317804,-0.439404 -0.331179,-0.433546 -0.02389,0.01048 -0.03908,0.03456 -0.05862,0.05184 -0.08396,0.12574 -0.244104,0.477681 -0.421216,0.464719 -0.04818,-0.0035 -0.07877,-0.05595 -0.118163,-0.08393 -0.08336,-0.226182 -0.07367,-0.478412 -0.148095,-0.708565 -0.01238,-0.04286 -0.0231,-0.08622 -0.03712,-0.128572 -0.0087,-0.02614 -0.04617,-0.05383 -0.0308,-0.07669 0.01423,-0.02114 0.05078,0.01429 0.07586,0.0097 0.02101,-0.0038 0.05846,-0.06161 0.04673,-0.04378 -0.01288,0.01958 -0.02029,0.04225 -0.03045,0.06338 -0.129527,0.229063 -0.312137,0.294685 -0.452988,0.03144 -0.119007,-0.276231 -0.193439,-0.570009 -0.293237,-0.85345 -0.03023,-0.101508 -0.03186,-0.03535 0.07881,-0.09191 0.0057,-0.0029 -0.0136,-0.01196 -0.0177,-0.0071 -0.02384,0.02831 -0.04225,0.06139 -0.05669,0.09546 -0.03984,0.09402 -0.102307,0.330918 -0.12622,0.416063 -0.02781,0.114637 -0.295685,1.495164 -0.612285,0.83414 -0.06368,-0.654101 0.0085,-1.31781 -0.03733,-1.973542 -0.008,-0.224204 -0.01101,-0.393232 -0.02875,-0.612642 -0.0048,-0.05973 -0.01209,-0.119242 -0.01969,-0.178682 -0.0033,-0.02609 -0.03236,-0.06001 -0.01299,-0.07781 0.231921,-0.213357 0.221615,-0.175456 0.209749,-0.08688 -0.01815,0.100785 -0.05272,0.197589 -0.116145,0.279414 -0.03641,0.02436 -0.06594,0.06629 -0.10922,0.07309 -0.320047,0.05031 -0.389257,-0.608042 -0.472408,-0.791028 -0.409511,-1.358353 -0.685337,-2.749577 -1.009713,-4.129758 -0.22533,-0.913927 -0.431057,-1.833914 -0.688319,-2.739618 -0.05939,-0.209084 -0.126892,-0.415779 -0.190336,-0.623669 -0.04401,-0.120145 -0.09609,-0.237635 -0.132032,-0.360435 -0.01037,-0.03539 -0.0039,-0.07364 -0.0058,-0.110464 -0.0026,-0.01116 0.0024,-0.03852 -0.0078,-0.03347 -0.142627,0.07009 -0.170908,0.265623 -0.350171,0.300121 -0.190564,0.03667 -0.21431,-0.05147 -0.31056,-0.168451 -0.368451,-0.888033 -0.313553,-1.893591 -0.548881,-2.817834 -0.04748,-0.20471 -0.29986,-1.550987 -0.678984,-1.484906 -0.0773,0.01347 -0.140835,0.06924 -0.211252,0.103854 -0.08638,0.09114 -0.180242,0.175732 -0.259138,0.273422 -0.561321,0.69502 -0.894029,1.544292 -1.316336,2.322583 -0.03881,0.06924 -0.271121,0.515495 -0.370054,0.58617 -0.409684,0.292663 -0.482243,-0.325939 -0.514448,-0.56255 -0.08452,-0.617422 -0.157827,-1.279561 -0.477491,-1.826112 -0.03142,-0.01289 -0.06122,-0.04654 -0.09425,-0.03865 -0.168672,0.04029 -0.328618,0.251547 -0.413943,0.366196 -0.323559,0.434756 -0.55213,0.932085 -0.804699,1.408295 -0.136652,0.279162 -0.359217,0.737018 -0.503256,1.019402 -0.129791,0.25445 -0.32716,0.797399 -0.6614,0.880748 -0.07513,0.01873 -0.150013,-0.03845 -0.225017,-0.05768 -0.396878,-0.547664 -0.396799,-1.281843 -0.689068,-1.883076 -0.04753,-0.09383 -0.324993,-0.71663 -0.510873,-0.666794 -0.13547,0.03632 -0.260983,0.229009 -0.332838,0.314956 -0.212627,0.344589 -0.197925,0.308091 -0.394071,0.68095 -0.176228,0.334999 -0.32667,0.693147 -0.528426,1.014168 -0.04884,0.07772 -0.1095,0.147364 -0.16425,0.221045 -0.08102,0.02698 -0.157864,0.08683 -0.243054,0.08094 -0.301737,-0.02084 -0.360519,-1.178169 -0.415666,-1.380721 -0.100002,-0.561683 -0.168728,-1.144703 -0.348258,-1.688618 -0.02442,-0.074 -0.06778,-0.140923 -0.09141,-0.215184 -0.0087,-0.02722 -0.0029,-0.05705 -0.0043,-0.08558 -0.08302,-0.04039 -0.06499,-0.04918 -0.166047,0.07837 -0.274013,0.345841 -0.393218,0.800894 -0.599207,1.184393 -0.01728,0.03569 -0.20071,0.429299 -0.247314,0.474908 -0.321627,0.314782 -0.422817,-0.102394 -0.42301,-0.339314 -0.01312,-0.546082 -0.01519,-1.101172 -0.145733,-1.634502 0.02207,-0.05783 0.04546,-0.107367 0.01008,-0.09227 -0.207423,0.08853 -0.391682,0.704375 -0.497359,0.889619 -0.04249,0.10006 -0.263048,0.697138 -0.32322,0.766687 -0.191318,0.221143 -0.31881,0.123058 -0.355764,-0.09565 -0.0484,-0.579217 -0.0026,-1.166049 -0.103516,-1.741549 -0.01341,-0.05994 -0.02681,-0.119886 -0.04021,-0.179829 0.01333,-0.02245 0.04143,-0.04127 0.04,-0.06734 -0.0041,-0.07494 -0.140817,0.06668 -0.186394,0.126306 -0.136593,0.178703 -0.288586,0.459787 -0.396711,0.647532 -0.220675,0.43835 -0.195495,0.373413 -0.389437,0.816673 -0.09096,0.207885 -0.158935,0.426737 -0.267629,0.625924 -0.03831,0.07021 -0.06028,0.176466 -0.137715,0.196479 -0.08019,0.02073 -0.15094,-0.06825 -0.226407,-0.10237 -0.0019,-0.538101 0.102248,-1.077853 0.03608,-1.617055 -0.0027,-0.0159 -0.09246,-0.551574 -0.140965,-0.578463 -0.233585,-0.129494 -0.589341,0.40304 -0.692235,0.46633 -0.748014,0.902561 -1.423241,1.856359 -2.016098,2.868564 -0.05334,0.0608 -0.08395,0.154934 -0.160028,0.182414 -0.294251,0.106286 -0.28339,-0.153839 -0.290139,-0.318673 -0.0089,-0.217232 -0.0085,-0.186123 -0.02527,-0.407147 -0.01659,-0.129165 -0.07981,-0.267264 0.102571,-0.294325 0.02453,-0.0036 -0.04294,0.02807 -0.05561,0.04937 -0.08584,0.14424 -0.170889,0.407415 -0.222176,0.547535 -0.270285,0.850482 -0.486603,1.718421 -0.682471,2.588731 -0.03497,0.176855 -0.05194,0.354172 -0.09167,0.529265 -0.08897,0.377155 -0.171485,0.755904 -0.243221,1.136737 -0.05168,0.353623 -0.112234,0.707243 -0.125812,1.064788 -0.04871,0.289231 -0.142415,0.571656 -0.180843,0.863403 -0.171749,0.856259 -0.32199,1.718026 -0.574876,2.555444 -0.02069,0.0719 -0.182893,0.723119 -0.245419,0.771914 -0.08074,0.06301 -0.189469,0.09276 -0.291831,0.09609 -0.02986,9.79e-4 -0.03094,-0.160479 -0.03136,-0.168819 -0.0021,-0.02625 -0.03897,-0.328081 -0.0387,-0.328529 0.07413,-0.125307 0.151332,-0.03115 0.02008,0.02898 -0.467743,0.777456 -0.747199,1.647386 -1.124005,2.4692 -0.234283,0.538947 -0.511485,1.332623 -0.951915,1.741333 -0.05784,0.05367 -0.128212,0.09199 -0.192318,0.13798 -0.06726,0.01503 -0.132929,0.04205 -0.201782,0.04509 -0.360923,0.01598 -0.682813,-0.293373 -0.981411,-0.446381 -0.288211,-0.179618 -0.636185,-0.433605 -0.965576,-0.210254 -0.0391,0.03772 -0.08165,0.07217 -0.117297,0.113176 -0.141338,0.162605 -0.238001,0.436017 -0.449961,0.527277 -0.04793,0.02064 -0.103556,0.01296 -0.155335,0.01947 -0.04778,-0.0222 -0.100957,-0.03526 -0.143324,-0.06656 -0.226076,-0.167018 -0.296945,-0.572564 -0.462114,-0.790271 -0.03119,-0.05323 -0.223747,-0.379391 -0.303472,-0.389556 -0.07713,-0.0098 -0.127949,0.08825 -0.162657,0.128061 -0.225936,0.384725 -0.381429,0.830259 -0.716984,1.135832 -0.06665,0.01156 -0.132752,0.0424 -0.199954,0.03467 -0.236995,-0.02727 -0.433721,-0.576268 -0.537702,-0.742976 -0.0923,-0.194382 -0.172643,-0.406789 -0.287697,-0.589418 -0.01992,-0.03163 -0.05121,-0.05508 -0.07107,-0.08675 -0.0086,-0.01368 0.0026,-0.0413 -0.01267,-0.04676 -0.0218,-0.0078 -0.04475,0.01206 -0.06712,0.01807 -0.335131,0.392948 -0.470077,0.913944 -0.717637,1.360088 -0.269367,0.430574 -0.457883,0.483441 -0.724683,0.0282 -0.0317,-0.06226 -0.25304,-0.431554 -0.247105,-0.481378 0.0078,-0.06536 0.06948,-0.01569 0.02148,-0.04776 -0.262461,0.316595 -0.300815,0.771787 -0.486516,1.131382 -0.256627,0.528519 -0.481832,0.280448 -0.608901,-0.126248 -0.07171,-0.216795 -0.141568,-0.433578 -0.209971,-0.651386 -0.02122,-0.06756 -0.04439,-0.134501 -0.06651,-0.201776 -0.01402,-0.04263 -0.05546,-0.08516 -0.0419,-0.127937 0.0086,-0.0271 0.05662,-0.0052 0.08493,-0.0078 0.02207,-0.02633 0.03209,-0.08325 0.06617,-0.07898 0.0296,0.0037 -0.02376,0.05481 -0.03319,0.08311 -0.0878,0.263768 -0.1388,0.539419 -0.191989,0.811548 -0.0031,0.014 -0.07388,0.342826 -0.09005,0.362887 -0.236998,0.293857 -0.344262,-0.03733 -0.366088,-0.227449 -0.06398,-0.417994 -0.07792,-0.840804 -0.154199,-1.256782 0.05064,-0.0058 0.103661,-0.0011 0.15191,-0.01746 0.01511,-0.0052 0.02802,-0.05722 0.02291,-0.04208 -0.0753,0.223872 -0.169566,0.443611 -0.253444,0.664625 -0.03197,0.06746 -0.14228,0.31763 -0.201488,0.377817 -0.246989,0.251066 -0.442219,0.03386 -0.537509,-0.211005 -0.206174,-0.581411 -0.301654,-1.190143 -0.376068,-1.800895 -0.01863,-0.18616 0.244652,-0.212487 0.263268,-0.02633 z"
       inkscape:connector-curvature="0" />
  </g>
</svg>
